<?xml version="1.0" encoding="UTF-8" standalone="no"?>
<svg
   xmlns:dc="http://purl.org/dc/elements/1.1/"
   xmlns:cc="http://creativecommons.org/ns#"
   xmlns:rdf="http://www.w3.org/1999/02/22-rdf-syntax-ns#"
   xmlns:svg="http://www.w3.org/2000/svg"
   xmlns="http://www.w3.org/2000/svg"
   xmlns:sodipodi="http://sodipodi.sourceforge.net/DTD/sodipodi-0.dtd"
   xmlns:inkscape="http://www.inkscape.org/namespaces/inkscape"
   width="34"
   height="34"
   viewBox="0 0 34 34"
   id="svg2"
   version="1.1"
   inkscape:version="0.91 r13725"
   sodipodi:docname="github-square.svg">
  <metadata
     id="metadata10">
    <rdf:RDF>
      <cc:Work
         rdf:about="">
        <dc:format>image/svg+xml</dc:format>
        <dc:type
           rdf:resource="http://purl.org/dc/dcmitype/StillImage" />
        <dc:title></dc:title>
      </cc:Work>
    </rdf:RDF>
  </metadata>
  <defs
     id="defs8" />
  <sodipodi:namedview
     pagecolor="#ffffff"
     bordercolor="#666666"
     borderopacity="1"
     objecttolerance="10"
     gridtolerance="10"
     guidetolerance="10"
     inkscape:pageopacity="0"
     inkscape:pageshadow="2"
     inkscape:window-width="1393"
     inkscape:window-height="839"
     id="namedview6"
     showgrid="false"
     inkscape:zoom="13.270833"
     inkscape:cx="-2.3241762"
     inkscape:cy="13.5"
     inkscape:window-x="0"
     inkscape:window-y="0"
     inkscape:window-maximized="0"
     inkscape:current-layer="svg2"
     fit-margin-top="0"
     fit-margin-left="0"
     fit-margin-right="0"
     fit-margin-bottom="0" />
  <path
     d="m 8.721354,27.09375 q -0.177083,0.199254 -0.442708,-0.06658 -0.287761,-0.243525 -0.08854,-0.420609 0.177083,-0.199183 0.442708,0.06658 0.265625,0.243454 0.08854,0.420537 z M 7.791667,25.743525 q 0.199218,0.265625 0,0.420537 -0.177084,0.132813 -0.376302,-0.154912 -0.199219,-0.287796 0,-0.398437 0.199218,-0.154984 0.376302,0.132812 z M 6.441406,24.4154 q -0.110677,0.154912 -0.28776,0.04392 -0.221354,-0.110713 -0.154948,-0.265625 0.06637,-0.110713 0.28776,-0.04392 0.221354,0.110642 0.154948,0.265625 z m 0.686198,0.752604 q -0.132812,0.154913 -0.354167,-0.06658 -0.199218,-0.243454 -0.04427,-0.354167 0.132813,-0.132812 0.354167,0.06658 0.199219,0.243454 0.04427,0.354166 z m 2.855469,2.479167 q -0.08854,0.265625 -0.420573,0.132812 -0.376302,-0.08854 -0.28776,-0.332066 0.08854,-0.243454 0.420572,-0.154913 0.354167,0.110642 0.287761,0.354167 z m 1.394531,0.110641 q 0,0.243526 -0.354166,0.243526 -0.376303,0.04392 -0.376303,-0.243526 0,-0.243454 0.354167,-0.243454 0.376302,-0.04392 0.376302,0.243454 z m 1.283854,-0.221354 q 0.04427,0.221354 -0.309895,0.309896 -0.354167,0.08854 -0.398438,-0.177083 -0.04427,-0.265625 0.309896,-0.331996 0.354167,-0.04392 0.398437,0.199183 z M 34,6.375 l 0,21.25 q 0,2.63415 -1.870446,4.504575 Q 30.259115,34 27.625,34 l -4.958333,0 Q 22.3125,34 22.124345,33.97804 21.936198,33.95608 21.692708,33.867327 21.449219,33.778787 21.338542,33.546381 21.227865,33.313977 21.227865,32.93764 l 0,-5.29033 q 0,-2.14717 -1.151042,-3.143229 1.261719,-0.132812 2.268877,-0.398437 1.007165,-0.265625 2.080729,-0.863317 1.073571,-0.597621 1.792968,-1.471987 0.719405,-0.874367 1.173178,-2.324254 0.453779,-1.449817 0.453779,-3.331363 0,-2.67835 -1.748698,-4.559896 Q 26.916667,9.54054 25.920573,7.039202 25.300781,6.840019 24.127604,7.282727 22.954427,7.725435 22.091146,8.256685 L 21.25,8.787937 Q 19.191406,8.212417 17,8.212417 q -2.191406,0 -4.25,0.57552 Q 12.395833,8.544412 11.809241,8.190246 11.222656,7.836079 9.960937,7.33805 8.699219,6.840021 8.057292,7.039204 7.083333,9.540542 7.902344,11.554829 q -1.748698,1.881546 -1.748698,4.559896 0,1.881546 0.453772,3.320312 0.45378,1.438838 1.162113,2.324255 0.708334,0.885416 1.781898,1.483037 1.073571,0.597692 2.080729,0.863317 1.007165,0.265625 2.268884,0.398437 -0.885417,0.796875 -1.084636,2.279913 -0.464843,0.221354 -0.996093,0.332066 -0.53125,0.110642 -1.261719,0.110642 -0.730469,0 -1.449874,-0.475929 Q 8.389323,26.274917 7.880208,25.367329 7.459635,24.658996 6.806637,24.216287 6.153646,23.773579 5.710937,23.685037 l -0.442708,-0.06658 q -0.464844,0 -0.641927,0.09959 -0.177083,0.09959 -0.110677,0.254575 0.06637,0.154912 0.199219,0.309896 0.132812,0.154912 0.28776,0.265625 l 0.154948,0.110641 q 0.486979,0.221355 0.962887,0.841146 0.475915,0.619792 0.697269,1.128942 l 0.221354,0.509079 q 0.287761,0.841146 0.973959,1.361346 0.686198,0.5202 1.483073,0.664062 0.796875,0.143863 1.538408,0.154913 0.74154,0.01133 1.228519,-0.07742 l 0.509114,-0.08854 q 0,0.841146 0.01105,2.279913 0.01105,1.438837 0.01105,1.505208 0,0.486979 -0.243489,0.741554 -0.24349,0.254575 -0.486979,0.287725 Q 11.820313,34 11.333333,34 L 6.375,34 Q 3.740885,34 1.870439,32.129575 0,30.25915 0,27.625 L 0,6.375 Q 0,3.740921 1.870439,1.870425 3.740885,0 6.375,0 l 21.25,0 Q 30.259115,0 32.129554,1.870425 34,3.740921 34,6.375 Z"
     id="path4"
     style="fill:#111111;fill-opacity:1"
     inkscape:connector-curvature="0" />
</svg>
