<?xml version="1.0" encoding="UTF-8" standalone="no"?>
<svg
   xmlns:dc="http://purl.org/dc/elements/1.1/"
   xmlns:cc="http://creativecommons.org/ns#"
   xmlns:rdf="http://www.w3.org/1999/02/22-rdf-syntax-ns#"
   xmlns:svg="http://www.w3.org/2000/svg"
   xmlns="http://www.w3.org/2000/svg"
   xmlns:sodipodi="http://sodipodi.sourceforge.net/DTD/sodipodi-0.dtd"
   xmlns:inkscape="http://www.inkscape.org/namespaces/inkscape"
   viewBox="-277500 -256 0 1850"
   id="svg2"
   version="1.1"
   inkscape:version="0.91 r13725"
   width="150"
   height="150"
   sodipodi:docname="list-icon.svg">
  <metadata
     id="metadata12">
    <rdf:RDF>
      <cc:Work
         rdf:about="">
        <dc:format>image/svg+xml</dc:format>
        <dc:type
           rdf:resource="http://purl.org/dc/dcmitype/StillImage" />
        <dc:title></dc:title>
      </cc:Work>
    </rdf:RDF>
  </metadata>
  <defs
     id="defs10" />
  <sodipodi:namedview
     pagecolor="#ffffff"
     bordercolor="#666666"
     borderopacity="1"
     objecttolerance="10"
     gridtolerance="10"
     guidetolerance="10"
     inkscape:pageopacity="0"
     inkscape:pageshadow="2"
     inkscape:window-width="1181"
     inkscape:window-height="685"
     id="namedview8"
     showgrid="false"
     inkscape:zoom="0.13169643"
     inkscape:cx="896"
     inkscape:cy="896"
     inkscape:window-x="0"
     inkscape:window-y="25"
     inkscape:window-maximized="0"
     inkscape:current-layer="svg2" />
  <g
     transform="matrix(0.08370536,0,0,-0.08370536,-2.56e-6,133.92857)"
     id="g4">
    <path
       d="M 256,224 256,32 Q 256,19 246.5,9.5 237,0 224,0 L 32,0 Q 19,0 9.5,9.5 0,19 0,32 L 0,224 Q 0,237 9.5,246.5 19,256 32,256 l 192,0 q 13,0 22.5,-9.5 Q 256,237 256,224 Z m 0,384 0,-192 q 0,-13 -9.5,-22.5 Q 237,384 224,384 L 32,384 Q 19,384 9.5,393.5 0,403 0,416 L 0,608 Q 0,621 9.5,630.5 19,640 32,640 l 192,0 q 13,0 22.5,-9.5 Q 256,621 256,608 Z m 0,384 0,-192 q 0,-13 -9.5,-22.5 Q 237,768 224,768 L 32,768 Q 19,768 9.5,777.5 0,787 0,800 l 0,192 q 0,13 9.5,22.5 9.5,9.5 22.5,9.5 l 192,0 q 13,0 22.5,-9.5 Q 256,1005 256,992 Z M 1792,224 1792,32 Q 1792,19 1782.5,9.5 1773,0 1760,0 L 416,0 Q 403,0 393.5,9.5 384,19 384,32 l 0,192 q 0,13 9.5,22.5 9.5,9.5 22.5,9.5 l 1344,0 q 13,0 22.5,-9.5 9.5,-9.5 9.5,-22.5 z m -1536,1152 0,-192 q 0,-13 -9.5,-22.5 Q 237,1152 224,1152 l -192,0 q -13,0 -22.5,9.5 Q 0,1171 0,1184 l 0,192 q 0,13 9.5,22.5 9.5,9.5 22.5,9.5 l 192,0 q 13,0 22.5,-9.5 9.5,-9.5 9.5,-22.5 z m 1536,-768 0,-192 q 0,-13 -9.5,-22.5 Q 1773,384 1760,384 l -1344,0 q -13,0 -22.5,9.5 Q 384,403 384,416 l 0,192 q 0,13 9.5,22.5 9.5,9.5 22.5,9.5 l 1344,0 q 13,0 22.5,-9.5 9.5,-9.5 9.5,-22.5 z m 0,384 0,-192 q 0,-13 -9.5,-22.5 Q 1773,768 1760,768 l -1344,0 q -13,0 -22.5,9.5 Q 384,787 384,800 l 0,192 q 0,13 9.5,22.5 9.5,9.5 22.5,9.5 l 1344,0 q 13,0 22.5,-9.5 9.5,-9.5 9.5,-22.5 z m 0,384 0,-192 q 0,-13 -9.5,-22.5 -9.5,-9.5 -22.5,-9.5 l -1344,0 q -13,0 -22.5,9.5 -9.5,9.5 -9.5,22.5 l 0,192 q 0,13 9.5,22.5 9.5,9.5 22.5,9.5 l 1344,0 q 13,0 22.5,-9.5 9.5,-9.5 9.5,-22.5 z"
       id="path6"
       inkscape:connector-curvature="0"
       style="fill:currentColor" />
  </g>
</svg>
