<?xml version="1.0" encoding="UTF-8" standalone="no"?>
<svg
   xmlns:dc="http://purl.org/dc/elements/1.1/"
   xmlns:cc="http://creativecommons.org/ns#"
   xmlns:rdf="http://www.w3.org/1999/02/22-rdf-syntax-ns#"
   xmlns:svg="http://www.w3.org/2000/svg"
   xmlns="http://www.w3.org/2000/svg"
   xmlns:sodipodi="http://sodipodi.sourceforge.net/DTD/sodipodi-0.dtd"
   xmlns:inkscape="http://www.inkscape.org/namespaces/inkscape"
   width="1728"
   height="1408"
   viewBox="0 0 1728 1408"
   id="svg2"
   version="1.1"
   inkscape:version="0.91 r13725"
   sodipodi:docname="truck.svg">
  <metadata
     id="metadata10">
    <rdf:RDF>
      <cc:Work
         rdf:about="">
        <dc:format>image/svg+xml</dc:format>
        <dc:type
           rdf:resource="http://purl.org/dc/dcmitype/StillImage" />
        <dc:title></dc:title>
      </cc:Work>
    </rdf:RDF>
  </metadata>
  <defs
     id="defs8" />
  <sodipodi:namedview
     pagecolor="#ffffff"
     bordercolor="#666666"
     borderopacity="1"
     objecttolerance="10"
     gridtolerance="10"
     guidetolerance="10"
     inkscape:pageopacity="0"
     inkscape:pageshadow="2"
     inkscape:window-width="1037"
     inkscape:window-height="703"
     id="namedview6"
     showgrid="false"
     inkscape:zoom="0.13169643"
     inkscape:cx="801.62711"
     inkscape:cy="768.00001"
     inkscape:window-x="333"
     inkscape:window-y="123"
     inkscape:window-maximized="0"
     inkscape:current-layer="svg2"
     fit-margin-top="0"
     fit-margin-left="0"
     fit-margin-right="0"
     fit-margin-bottom="0" />
  <path
     d="m 1152,1152 q 0,-52 38,-90 38,-38 90,-38 52,0 90,38 38,38 38,90 0,52 -38,90 -38,38 -90,38 -52,0 -90,-38 -38,-38 -38,-90 z m 384,-512 -384,0 0,-256 158,0 q 13,0 22,9 l 195,195 q 9,9 9,22 l 0,30 z M 256,1152 q 0,-52 38,-90 38,-38 90,-38 52,0 90,38 38,38 38,90 0,52 -38,90 -38,38 -90,38 -52,0 -90,-38 -38,-38 -38,-90 z M 0,64 0,1088 q 0,15 4,26.5 4,11.5 13.5,18.5 9.5,7 16.5,11.5 7,4.5 23.5,6 16.5,1.5 22.5,2 6,0.5 25.5,0 19.5,-0.5 22.5,-0.5 0,106 75,181 75,75 181,75 106,0 181,-75 75,-75 75,-181 l 384,0 q 0,106 75,181 75,75 181,75 106,0 181,-75 75,-75 75,-181 l 64,0 q 3,0 22.5,0.5 19.5,0.5 25.5,0 6,-0.5 22.5,-2 16.5,-1.5 23.5,-6 7,-4.5 16.5,-11.5 9.5,-7 13.5,-18.5 4,-11.5 4,-26.5 0,-26 -19,-45 -19,-19 -45,-19 l 0,-320 q 0,-8 0.5,-35 0.5,-27 0,-38 -0.5,-11 -2.5,-34.5 -2,-23.5 -6.5,-37 Q 1651,546 1641.5,529 1632,512 1619,499 L 1421,301 q -19,-19 -50.5,-32 -31.5,-13 -58.5,-13 l -160,0 0,-192 Q 1152,38 1133,19 1114,0 1088,0 L 64,0 Q 38,0 19,19 0,38 0,64 Z"
     id="path4"
     inkscape:connector-curvature="0"
     style="fill:#757575;fill-opacity:1" />
</svg>
