<?xml version="1.0" encoding="UTF-8" standalone="no"?>
<svg
   xmlns:dc="http://purl.org/dc/elements/1.1/"
   xmlns:cc="http://creativecommons.org/ns#"
   xmlns:rdf="http://www.w3.org/1999/02/22-rdf-syntax-ns#"
   xmlns:svg="http://www.w3.org/2000/svg"
   xmlns="http://www.w3.org/2000/svg"
   xmlns:sodipodi="http://sodipodi.sourceforge.net/DTD/sodipodi-0.dtd"
   xmlns:inkscape="http://www.inkscape.org/namespaces/inkscape"
   width="34"
   height="34"
   viewBox="0 0 34 34"
   id="svg2"
   version="1.1"
   inkscape:version="0.91 r13725"
   sodipodi:docname="twitter-square.svg">
  <metadata
     id="metadata10">
    <rdf:RDF>
      <cc:Work
         rdf:about="">
        <dc:format>image/svg+xml</dc:format>
        <dc:type
           rdf:resource="http://purl.org/dc/dcmitype/StillImage" />
        <dc:title></dc:title>
      </cc:Work>
    </rdf:RDF>
  </metadata>
  <defs
     id="defs8" />
  <sodipodi:namedview
     pagecolor="#ffffff"
     bordercolor="#666666"
     borderopacity="1"
     objecttolerance="10"
     gridtolerance="10"
     guidetolerance="10"
     inkscape:pageopacity="0"
     inkscape:pageshadow="2"
     inkscape:window-width="1253"
     inkscape:window-height="775"
     id="namedview6"
     showgrid="false"
     inkscape:zoom="11.9375"
     inkscape:cx="13.5"
     inkscape:cy="13.5"
     inkscape:window-x="0"
     inkscape:window-y="0"
     inkscape:window-maximized="0"
     inkscape:current-layer="svg2"
     fit-margin-top="0"
     fit-margin-left="0"
     fit-margin-right="0"
     fit-margin-bottom="0" />
  <path
     d="M 28.333333,10.669271 Q 27.09375,11.222692 25.654948,11.421875 27.160156,10.536458 27.713542,8.832067 26.27474,9.673212 24.747396,9.960937 23.397135,8.5 21.360677,8.5 q -1.925781,0 -3.287113,1.361346 -1.361324,1.361346 -1.361324,3.287091 0,0.641963 0.110677,1.0625 -2.855469,-0.154912 -5.356771,-1.438766 -2.501302,-1.283854 -4.25,-3.431025 -0.641927,1.106771 -0.641927,2.346354 0,2.523437 2.014323,3.873733 Q 7.548177,15.539273 6.375,14.985713 l 0,0.04392 q 0,1.660121 1.106771,2.955025 1.106771,1.294975 2.722656,1.604871 -0.641927,0.177083 -1.128906,0.177083 -0.287761,0 -0.863281,-0.08854 0.464843,1.394496 1.649085,2.302083 1.184248,0.907517 2.689456,0.929688 -2.567708,1.992187 -5.777344,1.992187 -0.57552,0 -1.10677,-0.06658 3.276041,2.080729 7.127604,2.080729 2.479167,0 4.648437,-0.785825 2.169271,-0.785754 3.71875,-2.102829 1.549479,-1.317075 2.667314,-3.032588 1.117843,-1.715441 1.660157,-3.585937 0.542321,-1.870425 0.542321,-3.7298 0,-0.398438 -0.0221,-0.597621 1.394531,-0.996129 2.324219,-2.412796 z M 34,6.375 l 0,21.25 q 0,2.63415 -1.870446,4.504575 Q 30.259115,34 27.625,34 L 6.375,34 Q 3.740885,34 1.870439,32.129575 0,30.25915 0,27.625 L 0,6.375 Q 0,3.740921 1.870439,1.870425 3.740885,0 6.375,0 l 21.25,0 Q 30.259115,0 32.129554,1.870425 34,3.740921 34,6.375 Z"
     id="path4"
     style="fill:#111111;fill-opacity:1"
     inkscape:connector-curvature="0" />
</svg>
