<?xml version="1.0" encoding="UTF-8" standalone="no"?>
<!-- Created with Inkscape (http://www.inkscape.org/) -->

<svg
   xmlns:osb="http://www.openswatchbook.org/uri/2009/osb"
   xmlns:dc="http://purl.org/dc/elements/1.1/"
   xmlns:cc="http://creativecommons.org/ns#"
   xmlns:rdf="http://www.w3.org/1999/02/22-rdf-syntax-ns#"
   xmlns:svg="http://www.w3.org/2000/svg"
   xmlns="http://www.w3.org/2000/svg"
   xmlns:xlink="http://www.w3.org/1999/xlink"
   xmlns:sodipodi="http://sodipodi.sourceforge.net/DTD/sodipodi-0.dtd"
   xmlns:inkscape="http://www.inkscape.org/namespaces/inkscape"
   inkscape:export-ydpi="320"
   inkscape:export-xdpi="320"
   inkscape:export-filename="/Users/lucacorsato/Documents/osd/website/opensensorsdata.github.io/assets/img/logos/logo_podcast/osd-logo_podcast_orizzontale.png"
   sodipodi:docname="osd-logo_podcast_orizzontale.svg"
   inkscape:version="0.91 r13725"
   version="1.1"
   id="svg2"
   height="275"
   width="982">
  <sodipodi:namedview
     fit-margin-bottom="0"
     fit-margin-right="0"
     fit-margin-left="0"
     fit-margin-top="0"
     inkscape:window-maximized="0"
     inkscape:window-y="0"
     inkscape:window-x="73"
     inkscape:window-height="851"
     inkscape:window-width="1440"
     showgrid="false"
     inkscape:current-layer="layer5"
     inkscape:document-units="px"
     inkscape:cy="204.25736"
     inkscape:cx="446.60638"
     inkscape:zoom="0.59754208"
     inkscape:pageshadow="2"
     inkscape:pageopacity="0.0"
     borderopacity="1.0"
     bordercolor="#666666"
     pagecolor="#ffffff"
     id="base" />
  <defs
     id="defs4">
    <linearGradient
       osb:paint="solid"
       id="linearGradient4444">
      <stop
         id="stop4446"
         offset="0"
         style="stop-color:#002fa7;stop-opacity:1;" />
    </linearGradient>
    <linearGradient
       gradientUnits="userSpaceOnUse"
       y2="393.59521"
       x2="3401.6096"
       y1="393.59521"
       x1="1481.6096"
       id="linearGradient4448"
       xlink:href="#linearGradient4444"
       inkscape:collect="always" />
    <linearGradient
       gradientTransform="translate(-1761.6116,2283.4524)"
       y2="393.59521"
       x2="3401.6096"
       y1="393.59521"
       x1="1481.6096"
       gradientUnits="userSpaceOnUse"
       id="linearGradient4452"
       xlink:href="#linearGradient4444"
       inkscape:collect="always" />
    <clipPath
       clipPathUnits="userSpaceOnUse"
       id="clipPath8097">
      <rect
         style="display:inline;opacity:1;fill:#757575;fill-opacity:1;fill-rule:nonzero;stroke:none;stroke-width:3.5;stroke-linecap:round;stroke-linejoin:round;stroke-miterlimit:4;stroke-dasharray:none;stroke-dashoffset:263;stroke-opacity:1"
         id="rect8099"
         width="600"
         height="436.36365"
         x="1762.1588"
         y="-1034.2781"
         ry="40.909092"
         rx="40.909092"
         clip-path="none"
         mask="none" />
    </clipPath>
    <inkscape:path-effect
       effect="spiro"
       id="path-effect4886"
       is_visible="true" />
    <inkscape:path-effect
       is_visible="true"
       id="path-effect4882"
       effect="spiro" />
    <inkscape:path-effect
       is_visible="true"
       id="path-effect4878"
       effect="spiro" />
    <linearGradient
       inkscape:collect="always"
       xlink:href="#linearGradient4444"
       id="linearGradient4360"
       x1="1481.6096"
       y1="393.59521"
       x2="3401.6096"
       y2="393.59521"
       gradientUnits="userSpaceOnUse" />
    <linearGradient
       inkscape:collect="always"
       xlink:href="#linearGradient4444"
       id="linearGradient4362"
       gradientUnits="userSpaceOnUse"
       x1="1481.6096"
       y1="393.59521"
       x2="3401.6096"
       y2="393.59521"
       gradientTransform="translate(-1761.6116,2283.4524)" />
    <clipPath
       id="clipPath8097-1"
       clipPathUnits="userSpaceOnUse">
      <rect
         mask="none"
         clip-path="none"
         rx="40.909092"
         ry="40.909092"
         y="-1034.2781"
         x="1762.1588"
         height="436.36365"
         width="600"
         id="rect8099-33"
         style="display:inline;opacity:1;fill:#757575;fill-opacity:1;fill-rule:nonzero;stroke:none;stroke-width:3.5;stroke-linecap:round;stroke-linejoin:round;stroke-miterlimit:4;stroke-dasharray:none;stroke-dashoffset:263;stroke-opacity:1" />
    </clipPath>
    <linearGradient
       gradientUnits="userSpaceOnUse"
       y2="393.59521"
       x2="3401.6096"
       y1="393.59521"
       x1="1481.6096"
       id="linearGradient4513"
       xlink:href="#linearGradient4444"
       inkscape:collect="always" />
    <linearGradient
       gradientTransform="translate(-1761.6116,2283.4524)"
       y2="393.59521"
       x2="3401.6096"
       y1="393.59521"
       x1="1481.6096"
       gradientUnits="userSpaceOnUse"
       id="linearGradient4515"
       xlink:href="#linearGradient4444"
       inkscape:collect="always" />
    <clipPath
       clipPathUnits="userSpaceOnUse"
       id="clipPath8097-5">
      <rect
         style="display:inline;opacity:1;fill:#757575;fill-opacity:1;fill-rule:nonzero;stroke:none;stroke-width:3.5;stroke-linecap:round;stroke-linejoin:round;stroke-miterlimit:4;stroke-dasharray:none;stroke-dashoffset:263;stroke-opacity:1"
         id="rect8099-3"
         width="600"
         height="436.36365"
         x="1762.1588"
         y="-1034.2781"
         ry="40.909092"
         rx="40.909092"
         clip-path="none"
         mask="none" />
    </clipPath>
  </defs>
  <metadata
     id="metadata7">
    <rdf:RDF>
      <cc:Work
         rdf:about="">
        <dc:format>image/svg+xml</dc:format>
        <dc:type
           rdf:resource="http://purl.org/dc/dcmitype/StillImage" />
        <dc:title />
      </cc:Work>
    </rdf:RDF>
  </metadata>
  <g
     inkscape:groupmode="layer"
     id="layer5"
     inkscape:label="sfondo"
     transform="translate(-1902.1588,165.1869)"
     style="display:inline">
    <rect
       style="opacity:1;fill:#ffffff;fill-opacity:1;stroke:#000000;stroke-width:1.35282958;stroke-linecap:round;stroke-linejoin:round;stroke-miterlimit:4;stroke-dasharray:none;stroke-opacity:1"
       id="rect4176"
       width="980.64716"
       height="273.64719"
       x="1902.8352"
       y="-164.5105"
       rx="0"
       ry="0" />
    <text
       xml:space="preserve"
       style="font-style:normal;font-variant:normal;font-weight:normal;font-stretch:normal;font-size:180px;line-height:125%;font-family:Griffo;-inkscape-font-specification:Griffo;text-align:start;letter-spacing:0px;word-spacing:0px;writing-mode:lr-tb;text-anchor:start;fill:#000000;fill-opacity:1;stroke:none;stroke-width:1px;stroke-linecap:butt;stroke-linejoin:miter;stroke-opacity:1"
       x="-255.30142"
       y="1233.9358"
       id="text4157-4"
       sodipodi:linespacing="125%"><tspan
         sodipodi:role="line"
         id="tspan4159-7"
         x="-255.30142"
         y="1233.9358"
         style="font-style:normal;font-variant:normal;font-weight:bold;font-stretch:normal;font-family:'Open Sans';-inkscape-font-specification:'Open Sans Bold'" /></text>
    <rect
       style="opacity:1;fill:none;fill-opacity:1;fill-rule:nonzero;stroke:none;stroke-width:3.5;stroke-linecap:round;stroke-linejoin:round;stroke-miterlimit:4;stroke-dasharray:none;stroke-dashoffset:263;stroke-opacity:1"
       id="rect4950"
       width="720"
       height="720"
       x="1902.1588"
       y="-610.18689" />
    <g
       id="g4178"
       transform="matrix(0.12499984,0,0,0.12499984,2561.8901,-104.28915)">
      <path
         inkscape:connector-curvature="0"
         id="path4967"
         style="font-style:normal;font-variant:normal;font-weight:bold;font-stretch:normal;font-size:28px;line-height:125%;font-family:'Open Sans';-inkscape-font-specification:'Open Sans Bold';text-align:start;letter-spacing:0px;word-spacing:0px;writing-mode:lr-tb;text-anchor:start;display:inline;fill:#e91e63;fill-opacity:1;stroke:none"
         d="m 2089.3617,-250.32005 c 0,9.7944 1.5743,17.19855 4.7232,22.2132 3.2072,5.01405 8.3972,7.52175 15.5697,7.52175 7.1144,0 12.2171,-2.478 15.3078,-7.4331 3.149,-5.0154 4.7234,-12.4488 4.7235,-22.30185 -10e-5,-9.7938 -1.5745,-17.13855 -4.7235,-22.0353 -3.1494,-4.8966 -8.31,-7.34565 -15.4824,-7.34565 -7.1146,0 -12.246,2.44905 -15.3951,7.34565 -3.1489,4.83765 -4.7232,12.1824 -4.7232,22.0353 m 67.6149,0 c -10e-5,16.1061 -4.1985,28.70235 -12.5956,37.78815 -8.3976,9.0861 -20.0891,13.6281 -35.076,13.6281 -9.3884,0 -17.6693,-2.064 -24.8417,-6.1941 -7.1727,-4.18965 -12.6831,-10.17705 -16.5324,-17.9652 -3.8485,-7.7874 -5.7729,-16.8732 -5.7729,-27.25695 0,-16.1646 4.1691,-28.7313 12.5081,-37.6995 8.3392,-8.9676 20.0605,-13.45155 35.1634,-13.45155 9.389,0 17.669,2.06475 24.8424,6.19485 7.1724,4.1301 12.683,10.059 16.5318,17.7882 3.8484,7.72875 5.7728,16.7844 5.7729,27.168"
         inkscape:export-filename="/Users/lucacorsato/Documents/o{s}d/o{s}d_semplice.png"
         inkscape:export-xdpi="300"
         inkscape:export-ydpi="300" />
      <path
         d="m 2407.6652,-198.9035 c -11.4881,0 -20.5263,-4.5132 -27.116,-13.5396 -6.5311,-9.02625 -9.7965,-21.5337 -9.7965,-37.52205 0,-16.224 3.3234,-28.84935 9.9714,-37.8753 6.7061,-9.08595 15.9194,-13.62885 27.6407,-13.62885 12.304,0 21.6928,4.8378 28.1652,14.5131 l 0.8745,0 c -1.341,-7.3743 -2.0117,-13.953 -2.0115,-19.734 l 0,-31.68195 26.7655,0 0,137.6994 -20.4681,0 -5.1609,-12.8316 -1.137,0 c -6.0651,9.73395 -15.3075,14.60085 -27.7282,14.60085 m 9.3592,-21.50385 c 6.8225,0 11.8085,-2.0061 14.9574,-6.0171 3.2069,-4.01235 4.9562,-10.827 5.2484,-20.44335 l 0,-2.92035 c 0,-10.61895 -1.6328,-18.2292 -4.8986,-22.83195 -3.2073,-4.6011 -8.4555,-6.9027 -15.7444,-6.9027 -5.9484,0 -10.584,2.56665 -13.9079,7.6998 -3.2656,5.0736 -4.8984,12.4776 -4.8984,22.21155 0,9.735 1.6622,17.05035 4.9859,21.9474 3.3238,4.83795 8.0761,7.2567 14.2575,7.2567"
         style="font-style:normal;font-variant:normal;font-weight:bold;font-stretch:normal;font-size:28px;line-height:125%;font-family:'Open Sans';-inkscape-font-specification:'Open Sans Bold';text-align:start;letter-spacing:0px;word-spacing:0px;writing-mode:lr-tb;text-anchor:start;display:inline;fill:#3f51b5;fill-opacity:1;stroke:none"
         id="path4969"
         inkscape:connector-curvature="0"
         inkscape:export-filename="/Users/lucacorsato/Documents/o{s}d/o{s}d_semplice.png"
         inkscape:export-xdpi="300"
         inkscape:export-ydpi="300" />
      <path
         inkscape:connector-curvature="0"
         id="path4971"
         style="font-style:normal;font-variant:normal;font-weight:normal;font-stretch:normal;font-size:56px;line-height:125%;font-family:'Liberation Serif';-inkscape-font-specification:'Liberation Serif';text-align:start;letter-spacing:0px;word-spacing:0px;writing-mode:lr-tb;text-anchor:start;display:inline;fill:#e91e63;fill-opacity:1;stroke:none"
         d="m 2240.2472,-100.18685 c -14.6948,0 -26.0079,-4.54335 -33.9381,-13.629 -7.8144,-9.08595 -11.7213,-21.88755 -11.7213,-38.4066 l 0,-52.2123 c 0,-13.8051 -3.0906,-24.13035 -9.2714,-30.9741 -6.0651,-6.96135 -15.5116,-10.6779 -28.341,-11.14995 l 0,-7.9644 c 25.0752,-0.4725 37.6124,-14.3952 37.6124,-41.7699 l 0,-52.03575 c 0,-16.63695 3.7902,-29.43855 11.371,-38.40675 7.581,-8.96715 19.01,-13.45125 34.2884,-13.45125 l 23.6173,0 0,8.319 -10.8468,0 c -10.6134,0 -18.1938,3.24495 -22.7421,9.7341 -4.4317,6.372 -6.6475,15.81105 -6.6474,28.3185 l 0,58.4067 c -1e-4,11.20995 -3.0327,20.8854 -9.0973,29.0271 -6.0644,8.02335 -14.2286,13.1556 -24.4917,15.3984 l 0,0.531 c 10.3798,2.4774 18.5439,7.728 24.4917,15.7521 6.0646,7.905 9.0972,17.5806 9.0973,29.02665 l 0,59.11455 c -1e-4,12.5073 2.2157,21.94665 6.6474,28.3191 4.5483,6.48855 12.1289,9.7335 22.7421,9.7335 l 10.8468,0 0,8.319 -23.6173,0"
         inkscape:export-filename="/Users/lucacorsato/Documents/o{s}d/o{s}d_semplice.png"
         inkscape:export-xdpi="300"
         inkscape:export-ydpi="300" />
      <path
         inkscape:connector-curvature="0"
         id="path4973"
         style="font-style:normal;font-variant:normal;font-weight:normal;font-stretch:normal;font-size:56px;line-height:125%;font-family:'Liberation Serif';-inkscape-font-specification:'Liberation Serif';text-align:start;letter-spacing:0px;word-spacing:0px;writing-mode:lr-tb;text-anchor:start;display:inline;fill:#3f51b5;fill-opacity:1;stroke:none"
         d="m 2263.8645,-100.18685 0,-8.31975 10.8461,0 c 10.6129,0 18.1351,-3.24495 22.5673,-9.7335 4.548,-6.37245 6.8228,-15.8118 6.8228,-28.3191 l 0,-59.11455 c 0,-11.44575 2.9734,-21.12105 8.9218,-29.02665 5.9478,-8.0241 14.1699,-13.2747 24.6666,-15.7521 l 0,-0.531 c -10.2633,-2.24205 -18.4276,-7.434 -24.4917,-15.5751 -6.0649,-8.142 -9.0967,-17.7579 -9.0967,-28.85025 l 0,-58.4067 c 0,-12.50745 -2.2748,-21.9465 -6.8228,-28.31865 -4.4322,-6.489 -11.9544,-9.73395 -22.5673,-9.73395 l -10.8461,0 0,-8.319 23.7915,0 c 15.1614,7.5e-4 26.5331,4.4847 34.1136,13.452 7.5803,8.9673 11.3706,21.76965 11.3706,38.406 l 0,52.03575 c 0,27.37455 12.5381,41.29755 37.6125,41.76975 l 0,7.9644 c -12.5956,0.4725 -22.0426,4.12935 -28.3401,10.9734 -6.1816,6.8439 -9.2724,17.2272 -9.2724,31.15065 l 0,52.2123 c 0,16.4013 -3.9651,29.14455 -11.8953,38.22975 -7.8144,9.20355 -19.0101,13.80585 -33.5889,13.80585 l -23.7915,0"
         inkscape:export-filename="/Users/lucacorsato/Documents/o{s}d/o{s}d_semplice.png"
         inkscape:export-xdpi="300"
         inkscape:export-ydpi="300" />
      <path
         inkscape:connector-curvature="0"
         id="path4975"
         style="font-style:normal;font-variant:normal;font-weight:bold;font-stretch:normal;font-size:medium;line-height:125%;font-family:'Open Sans';-inkscape-font-specification:'Open Sans Bold';text-align:start;letter-spacing:0px;word-spacing:0px;writing-mode:lr-tb;text-anchor:start;fill:#757575;fill-opacity:1;stroke:none"
         d="m 2298.6056,-231.5459 q 0,14.09325 -9.8324,21.4677 -9.7506,7.3743 -29.2518,7.3743 -9.9964,0 -17.0431,-1.3935 -7.0467,-1.311 -13.1919,-3.933 l 0,-20.6484 q 6.9646,3.27765 15.6501,5.48985 8.7673,2.21235 15.4042,2.21235 13.6017,0 13.6017,-7.866 0,-2.94975 -1.8025,-4.75245 -1.8027,-1.88445 -6.2273,-4.1787 -4.4248,-2.3763 -11.7991,-5.48985 -10.5699,-4.4247 -15.5682,-8.1939 -4.9163,-3.76905 -7.2105,-8.6034 -2.2124,-4.91625 -2.2124,-12.04485 0,-12.20865 9.4229,-18.8457 9.5049,-6.7188 26.8756,-6.7188 16.5513,0 32.2016,7.2105 l -7.5383,18.02625 q -6.8827,-2.94975 -12.8643,-4.83435 -5.9815,-1.8846 -12.2086,-1.8846 -11.0616,0 -11.0616,5.98155 0,3.3594 3.5232,5.8176 3.6054,2.45805 15.6501,7.2924 10.7338,4.34265 15.7321,8.11185 4.9982,3.7692 7.3743,8.68545 2.3762,4.91625 2.3762,11.7171 z" />
    </g>
    <g
       id="g4425"
       transform="matrix(1.5039422,0,0,1.5039422,997.99073,1032.2344)"
       style="fill:#cccccc">
      <path
         style="fill:#cccccc"
         d="m 1094.2514,-614.28405 c -2.7019,-1.80661 -1.5371,-24.78525 2.1091,-41.60736 0.8193,-3.77996 1.4896,-8.43553 1.4896,-10.3457 0,-1.91018 0.6367,-4.66748 1.4149,-6.12734 1.6044,-3.00972 4.0224,-12.4459 6.5736,-25.65429 3.2763,-16.9616 4.1742,-18.05336 18.5115,-22.50813 29.6895,-9.22485 31.0706,-10.08273 26.8959,-16.70669 -0.7678,-1.21815 -1.4028,-4.36815 -1.4112,-7 -0.015,-4.56301 -0.9672,-7.55518 -2.3465,-7.37059 -0.351,0.047 -1.0882,0.0854 -1.6382,0.0854 -1.3813,0 -1.2896,-20.42782 0.1119,-24.929 3.4605,-11.11397 8.6076,-15.571 17.9817,-15.571 7.131,0 8.6812,2.86849 3.5726,6.61084 -0.4587,0.33596 -0.098,0.8933 0.8019,1.23854 1.0655,0.40887 1.393,0.23482 0.9393,-0.49924 -0.4918,-0.79567 0.3152,-0.93715 2.7452,-0.48129 2.4724,0.46382 4.66,0.057 7.7676,-1.44438 7.1002,-3.43042 17.2444,7.92161 17.7023,19.80992 0.1321,3.42891 0.5119,6.67411 0.8441,7.21156 0.3322,0.53744 -0.2862,3.80697 -1.374,7.26561 -1.9381,6.16159 -5.5926,21.3529 -5.5926,23.24745 0,0.52745 1.35,1.28455 3,1.68244 1.65,0.3979 7.275,2.13742 12.5,3.8656 5.225,1.72818 13.1045,4.27698 17.51,5.664 12.5211,3.9421 12.7511,4.32693 15.4381,25.82895 0.4124,3.3 1.0256,6.9 1.3626,8 0.337,1.1 1.1343,5.825 1.7716,10.5 2.2252,16.32157 2.7561,19.54734 4.3387,26.358 0.8764,3.7719 2.21,8.0469 2.9635,9.5 7.2625,14.00589 4.2941,21.84183 -7.857,20.74073 -4.9679,-0.45019 -8.2289,-0.29374 -9.6421,0.46259 -1.6253,0.86987 -2.6912,0.84539 -4.4623,-0.10249 -1.4864,-0.79551 -4.4495,-1.05286 -8.2034,-0.71247 -7.6359,0.6924 -8.2197,-0.21856 -8.2197,-12.82639 l 0,-9.60717 -4.75,3.56968 c -10.4756,7.8725 -14.2365,8.87657 -14.2653,3.8085 -0.01,-1.48004 -0.4721,-3.36598 -1.0305,-4.19098 -0.7287,-1.07681 -0.936,0.19275 -0.7347,4.5 0.3849,8.23413 -3.4585,9.16536 -20.9496,5.07588 -19.7731,-4.62304 -18.2699,-4.80794 -18.2699,2.24733 0,6.97816 -0.067,7.02656 -9.7733,7.09024 -3.4504,0.0226 -7.1333,0.50136 -8.1843,1.06385 -2.4502,1.31131 -8.7368,1.32626 -9.5424,0.0227 -0.7456,-1.20639 -8.5,-1.35283 -8.5,-0.16052 0,2.58402 -18.284,4.61163 -21.5987,2.39521 z m 96.261,-28.48469 c -0.2774,-0.6875 -0.5044,-0.125 -0.5044,1.25 0,1.375 0.227,1.9375 0.5044,1.25 0.2774,-0.6875 0.2774,-1.8125 0,-2.5 z m -0.573,-10.81309 c -0.758,-3.86513 -0.8843,-4.02862 -0.9797,-1.2687 -0.06,1.74252 0.171,3.89943 0.5139,4.79313 1.1112,2.89552 1.3583,1.02582 0.4658,-3.52443 z m -21.0659,-27.73799 c 0.6719,-4.5656 1.7542,-8.8406 2.4051,-9.5 2.565,-2.5986 2.5915,-4.77591 0.086,-7.09773 -2.2169,-2.05455 -2.3202,-2.4782 -1.0222,-4.19332 1.7571,-2.3217 1.8778,-3.40787 0.3787,-3.40787 -0.6208,0 -2.9833,-1.67959 -5.25,-3.73242 -4.7354,-4.28864 -5.9628,-2.43957 -3.6048,5.43031 1.2206,4.07348 3.7893,27.90904 4.0739,37.80211 l 0.1726,6 0.7694,-6.5 c 0.4232,-3.575 1.3192,-10.23549 1.9911,-14.80108 z m 21.2321,10.0522 c -0.1344,-5.91311 -0.5176,-17.57726 -0.8515,-25.92032 l -0.607,-15.16919 -3.0021,3.41919 c -1.6511,1.88056 -3.7729,3.4192 -4.715,3.4192 -2.1726,0 -1.2485,9.6074 1.4244,14.80816 2.1245,4.13374 4.0666,12.57603 4.9901,21.69184 0.39,3.85 0.9149,7.3375 1.1664,7.75 1.3925,2.2841 1.814,-0.35824 1.5947,-9.99888 z m -8.7804,-45.23043 c 0.8387,-0.69607 1.5249,-1.84798 1.5249,-2.5598 0,-0.71182 0.4924,-1.45837 1.0943,-1.65899 1.0892,-0.36306 2.4294,-5.4533 3.5682,-13.5519 0.5729,-4.07419 0.4888,-4.25 -2.0324,-4.25 -3.7097,0 -3.2912,-2.39178 0.6199,-3.5432 2.5083,-0.73845 3.3222,-1.58439 3.5664,-3.7068 0.3284,-2.85344 -1.4332,-3.73315 -3.4457,-1.72073 -0.7057,0.7057 -1.9474,0.55045 -3.95,-0.49384 -4.7642,-2.48449 -5.3434,-2.06996 -4.9267,3.52637 0.2626,3.52713 0.026,4.94479 -0.781,4.67587 -1.3784,-0.45947 -2.4755,-4.00797 -2.6133,-8.45249 -0.135,-4.35311 -4.0241,-6.82166 -4.0165,-2.54942 0.01,4.43147 -0.3579,6.26424 -1.2499,6.26424 -0.4583,0 -0.8333,-0.64844 -0.8333,-1.44098 0,-2.21304 -1.1171,-2.46575 -6.4751,-1.46478 -7.6642,1.43184 -8.8791,6.18588 -1.9147,7.49241 4.2092,0.78965 4.3402,2.18608 0.336,3.58197 -2.7746,0.96721 -2.991,1.35112 -2.3658,4.19763 2.917,13.2809 16.2386,22.00844 23.8947,15.65444 z m -11.9251,-4.89435 c 1.7902,-1.64634 9.719,-2.15534 8.3765,-0.53774 -0.6581,0.79293 -2.9582,1.4114 -5.2489,1.4114 -2.3836,0 -3.6829,-0.36297 -3.1276,-0.87366 z m -2.3,-4.1575 c -4.0195,-1.61565 -2.3915,-2.79517 4.5,-3.26028 3.7125,-0.25056 7.65,-0.62498 8.75,-0.83206 3.499,-0.65868 2.2415,2.54113 -1.5,3.81706 -4.1576,1.4178 -8.646,1.52295 -11.75,0.27528 z m 2.7664,-6.6085 c -3.6072,-3.03524 -2.7083,-5.89801 1.1044,-3.517 1.7382,1.08558 2.3535,1.03737 3.8316,-0.30027 3.0078,-2.722 4.6434,0.42974 1.9801,3.81556 -2.5756,3.27438 -3.0266,3.27449 -6.9161,0.002 z m -14.0806,-24.32596 c 1.1987,-0.64153 3.6468,-0.38187 7.6628,0.81274 5.7703,1.71643 13.4681,1.23848 16.9873,-1.05475 0.5973,-0.38919 2.6462,-0.8127 4.5532,-0.94113 3.368,-0.22682 3.4586,-0.34252 3.1659,-4.04237 -0.1678,-2.12196 0.151,-3.80887 0.7199,-3.80887 0.5617,0 0.2841,-1.125 -0.6169,-2.5 -1.9588,-2.98958 -4.9438,-3.1933 -13.6674,-0.93278 -3.6133,0.93629 -8.9049,1.43951 -13.1443,1.25 -7.0963,-0.31722 -7.0963,-0.31722 -7.4097,2.93278 -0.176,1.82556 0.1527,3.25 0.75,3.25 1.5668,0 1.2928,2.91346 -0.4366,4.64286 -0.825,0.825 -1.4645,2.03035 -1.4211,2.67857 0.055,0.81777 0.2346,0.7924 0.5872,-0.0829 0.2795,-0.6938 1.3009,-1.68568 2.2697,-2.20417 z m 32.0642,141.46562 c 0,-0.275 0.225,-0.5 0.5,-0.5 0.275,0 0.5,0.225 0.5,0.5 0,0.275 -0.225,0.5 -0.5,0.5 -0.275,0 -0.5,-0.225 -0.5,-0.5 z m 9.7568,-3.25 c 1.2951,-1.2375 2.8921,-2.23632 3.549,-2.21959 0.6568,0.0167 0.2942,0.52972 -0.8058,1.13998 -1.1,0.61027 -2.697,1.60908 -3.549,2.21959 -0.852,0.61051 -0.4894,0.0975 0.8058,-1.13998 z m -35.7568,-1.25 c 0,-0.73333 0.3,-1.03333 0.6667,-0.66667 0.3666,0.36667 0.3666,0.96667 0,1.33334 -0.3667,0.36666 -0.6667,0.0667 -0.6667,-0.66667 z m 3.8125,-0.68311 c 0.7219,-0.28887 1.5844,-0.25335 1.9167,0.0789 0.3323,0.33229 -0.2584,0.56864 -1.3125,0.52522 -1.165,-0.048 -1.4019,-0.28494 -0.6042,-0.60416 z m 3.9375,0.0208 c 0.6875,-0.27741 1.8125,-0.27741 2.5,0 0.6875,0.27741 0.125,0.50439 -1.25,0.50439 -1.375,0 -1.9375,-0.22698 -1.25,-0.50439 z m 8.9833,-0.46181 c 0.6784,-0.68342 1.4853,-0.99067 1.7932,-0.68278 0.3078,0.30789 -0.2472,0.86705 -1.2334,1.24258 -1.4252,0.54268 -1.54,0.42782 -0.5598,-0.5598 z m 9.2667,-0.37588 c 0,-0.825 0.4359,-1.5 0.9686,-1.5 0.5328,0 0.7096,0.675 0.393,1.5 -0.3166,0.825 -0.7524,1.5 -0.9686,1.5 -0.2161,0 -0.393,-0.675 -0.393,-1.5 z m 15,0 c 0,-0.275 0.225,-0.5 0.5,-0.5 0.275,0 0.5,0.225 0.5,0.5 0,0.275 -0.225,0.5 -0.5,0.5 -0.275,0 -0.5,-0.225 -0.5,-0.5 z m 4.8125,-0.18311 c 0.7219,-0.28887 1.5844,-0.25335 1.9167,0.0789 0.3323,0.33229 -0.2584,0.56864 -1.3125,0.52522 -1.165,-0.048 -1.4019,-0.28494 -0.6042,-0.60416 z"
         id="path4433"
         inkscape:connector-curvature="0" />
      <path
         style="fill:#cccccc"
         d="m 1094.3501,-614.23178 c -0.55,-0.43283 -1.0234,-1.23696 -1.0521,-1.78696 -0.029,-0.55 -0.4107,-2.65817 -0.8491,-4.68482 -0.48,-2.21972 -0.3645,-5.00295 0.2906,-7 0.5982,-1.82335 1.3072,-7.00591 1.5757,-11.5168 0.2684,-4.51088 1.1732,-11.48588 2.0107,-15.5 0.8374,-4.01411 1.5229,-9.02895 1.5234,-11.14409 4e-4,-2.11514 0.6609,-5.04014 1.4677,-6.5 1.4561,-2.63472 5.4882,-18.55534 7.3975,-29.20895 2.5163,-14.04055 2.3401,-13.89064 25.1356,-21.382 21.5986,-7.098 27.2824,-9.54194 22.25,-9.56709 -1.4103,-0.007 -4.473,-9.04945 -3.9651,-11.70648 0.6428,-3.36257 -0.9737,-6.97512 -3.4057,-7.61111 -3.1298,-0.81846 -2.6252,-18.93479 0.7795,-27.98711 3.8225,-10.16286 15.5027,-16.2073 21.8413,-11.30269 1.1122,0.86061 1.4452,1.56165 0.75,1.57934 -0.6875,0.0175 -1.25,0.8988 -1.25,1.95848 0,1.05967 -0.7875,2.11503 -1.75,2.34524 -1.6255,0.38878 -1.6183,0.47552 0.1009,1.21904 1.1502,0.49742 2.1281,0.35204 2.583,-0.384 0.5263,-0.85158 1.4716,-0.90327 3.3637,-0.18392 1.708,0.64939 2.8435,0.65767 3.2354,0.0236 5.3999,-8.73724 20.5949,3.88767 21.1011,17.53201 0.1229,3.31174 0.513,6.76823 0.867,7.68109 0.354,0.91286 -0.046,2.99386 -0.8895,4.62445 -0.8432,1.63058 -2.0198,6.01137 -2.6147,9.73508 -0.5948,3.72372 -1.4533,7.49272 -1.9076,8.37556 -2.6951,5.23718 -2.2554,8.86309 1.1364,9.37087 1.8009,0.2696 6.4243,1.72196 10.2743,3.22746 3.85,1.50549 8.125,2.93875 9.5,3.185 20.5505,3.68047 22.9616,6.4393 26.0627,29.82184 1.5958,12.03293 1.7167,12.85201 2.8032,19 0.5832,3.3 1.5501,9.56037 2.1487,13.91193 0.5986,4.35156 1.5152,8.70947 2.0369,9.68426 0.5217,0.97478 0.9485,3.22898 0.9485,5.00933 0,1.78035 0.6814,3.98993 1.5142,4.91018 0.8328,0.92024 2.1828,4.24013 3,7.37753 3.2687,12.54916 1.4296,15.21131 -9.7823,14.16067 -5.1045,-0.47833 -8.1865,-0.3039 -10.1092,0.57214 -2.2495,1.02496 -2.9174,1.01519 -3.5772,-0.0524 -0.5855,-0.94737 -2.7634,-1.2023 -7.8271,-0.91618 -8.7259,0.49306 -8.8263,0.35092 -8.7652,-12.40722 0.026,-5.36234 -0.147,-9.74984 -0.3839,-9.75 -0.2368,-1.5e-4 -3.6118,2.17609 -7.5,4.83611 -9.452,6.46649 -10.4068,6.75629 -11.1304,3.37831 -1.282,-5.98457 -2.4761,-6.84318 -2.1045,-1.51324 0.1995,2.8608 -0.1092,5.6733 -0.6859,6.25 -2.3232,2.32327 -19.3909,0.49832 -32.0491,-3.42682 -6.6616,-2.0657 -8.007,-0.94239 -7.144,5.96498 l 0.6365,5.09445 -10.2959,1.28186 c -11.5742,1.441 -14.4447,1.52121 -20.5959,0.57554 -3.419,-0.52562 -4.7207,-0.28001 -6.3536,1.19873 -2.1895,1.98289 -18.266,3.28405 -20.3465,1.6468 z m 96.1623,-28.53696 c -0.2774,-0.6875 -0.5044,-0.125 -0.5044,1.25 0,1.375 0.227,1.9375 0.5044,1.25 0.2774,-0.6875 0.2774,-1.8125 0,-2.5 z m -0.5395,-11.31711 -0.9219,-3.93289 -0.1004,4.08333 c -0.055,2.24584 0.2276,4.41146 0.6287,4.8125 1.2097,1.20971 1.3692,-0.80124 0.3936,-4.96294 z m -21.136,-23.90755 c 0.797,-6.55923 1.9433,-11.24525 3.3477,-13.68536 2.1356,-3.71069 2.1356,-3.71069 -0.2388,-6.23815 -2.2528,-2.39793 -2.2913,-2.6543 -0.7525,-5.0028 1.541,-2.35195 1.5158,-2.509 -0.505,-3.15039 -1.1698,-0.37128 -3.3968,-1.97411 -4.9489,-3.56185 -5.2093,-5.32912 -6.036,-3.03541 -3.4646,9.61321 0.7827,3.85 1.6962,11.5 2.0301,17 1.6451,27.10409 1.8248,27.30334 4.532,5.02534 z m 22.2132,16.27466 c -0.854,-0.85397 -1.2,-7.01343 -1.2,-21.36043 0,-11.08823 -0.2895,-22.27252 -0.6433,-24.85397 l -0.6433,-4.69354 -2.9295,3.55397 c -1.6112,1.95468 -3.7755,3.55397 -4.8096,3.55397 -2.2481,0 -1.7831,8.34191 0.7442,13.35247 2.542,5.03944 4.2787,11.95581 4.9336,19.64753 0.774,9.08955 1.7498,12 4.0232,12 1.3414,0 1.458,-0.26667 0.5247,-1.2 z m -9.8353,-54.2759 c 2.6506,-2.0076 4.7789,-6.30404 5.7086,-11.5241 0.4407,-2.475 1.1039,-5.92785 1.4736,-7.673 0.6185,-2.91915 0.4497,-3.19916 -2.1102,-3.5 -3.942,-0.46326 -4.0471,-2.23408 -0.1999,-3.3665 2.7069,-0.79676 3.3166,-1.51453 3.5766,-4.2105 0.3416,-3.54324 0.035,-3.77448 -2.9121,-2.19718 -1.4146,0.75708 -2.9409,0.70072 -5.4336,-0.20066 -3.5806,-1.29476 -7.4191,0.2166 -4.9259,1.93948 1.1875,0.8206 1.341,6.20836 0.1768,6.20836 -1.2866,0 -2.1609,-3.44096 -2.6046,-10.25 -0.063,-0.9625 -0.789,-1.75 -1.614,-1.75 -0.825,0 -1.5,-0.45 -1.5,-1 0,-0.55 1.0684,-1 2.3743,-1 1.3058,0 4.2874,-0.675 6.6257,-1.5 2.3383,-0.825 5.3009,-1.5 6.5835,-1.5 2.0632,0 2.2994,-0.41487 2.0487,-3.59831 -0.1896,-2.40751 0.1915,-3.78055 1.1517,-4.14899 1.1995,-0.46031 1.1709,-0.6985 -0.1744,-1.45138 -0.8852,-0.49539 -1.6095,-1.55334 -1.6095,-2.35101 0,-1.90309 -6.4304,-1.8759 -14.5,0.0613 -3.9611,0.95093 -8.2937,1.22984 -12.75,0.82078 -7.1864,-0.65966 -9.0967,1.93701 -5.5745,7.57706 0.9467,1.5159 0.8494,2.2085 -0.5,3.55786 -0.9215,0.92154 -1.6755,2.41851 -1.6755,3.32661 0,1.29005 0.3404,1.1651 1.5567,-0.57143 3.5839,-5.11667 15.6346,-0.91617 15.2249,5.30693 -0.2568,3.90207 -1.7816,5.44086 -1.7816,1.798 0,-1.51615 -5.5347,-1.37008 -11.25,0.29691 -3.5547,1.03682 -1.1611,7.37565 2.7852,7.37565 3.213,0 3.1646,1.78343 -0.082,3.01773 -4.584,1.74282 -0.8369,13.02629 6.2472,18.81215 4.2789,3.49468 12.1613,4.34724 15.6641,1.69422 z m -11.3647,-5.5241 c 0,-0.55 1.9125,-0.99311 4.25,-0.98469 3.1125,0.0112 3.8485,0.27478 2.75,0.98469 -1.9745,1.27601 -7,1.27601 -7,0 z m -3.75,-4.60134 c -2.989,-1.35184 -0.7777,-2.25885 5.1083,-2.09531 3.6842,0.10237 6.9578,-0.32079 7.7836,-1.00613 1.9203,-1.59372 4.8829,0.078 3.1713,1.78954 -1.2366,1.23667 -13.9362,2.27387 -16.0632,1.3119 z m 3.8425,-6.52979 c -3.145,-3.37569 -1.5499,-5.92622 1.6839,-2.6925 0.9018,0.90183 1.6438,0.75337 3.1791,-0.63612 1.91,-1.72847 2.0343,-1.73034 2.6828,-0.0405 1.7178,4.47651 -4.0959,7.07219 -7.5458,3.36907 z m -14.0925,-16.86887 c 0,-0.55 -0.45,-1 -1,-1 -0.55,0 -1,0.45 -1,1 0,0.55 0.45,1 1,1 0.55,0 1,-0.45 1,-1 z m 39,133.5 c 0,-0.275 0.225,-0.5 0.5,-0.5 0.275,0 0.5,0.225 0.5,0.5 0,0.275 -0.225,0.5 -0.5,0.5 -0.275,0 -0.5,-0.225 -0.5,-0.5 z m 2,-2 c 0,-0.275 0.225,-0.5 0.5,-0.5 0.275,0 0.5,0.225 0.5,0.5 0,0.275 -0.225,0.5 -0.5,0.5 -0.275,0 -0.5,-0.225 -0.5,-0.5 z m -35,-2 c 0,-0.275 0.225,-0.5 0.5,-0.5 0.275,0 0.5,0.225 0.5,0.5 0,0.275 -0.225,0.5 -0.5,0.5 -0.275,0 -0.5,-0.225 -0.5,-0.5 z m 4,0 c 0,-0.275 0.225,-0.5 0.5,-0.5 0.275,0 0.5,0.225 0.5,0.5 0,0.275 -0.225,0.5 -0.5,0.5 -0.275,0 -0.5,-0.225 -0.5,-0.5 z m 3.3333,-0.16667 c 0.3667,-0.36666 0.9667,-0.36666 1.3334,0 0.3666,0.36667 0.067,0.66667 -0.6667,0.66667 -0.7333,0 -1.0333,-0.3 -0.6667,-0.66667 z m 31.6667,0.16667 c 0,-0.275 0.225,-0.5 0.5,-0.5 0.275,0 0.5,0.225 0.5,0.5 0,0.275 -0.225,0.5 -0.5,0.5 -0.275,0 -0.5,-0.225 -0.5,-0.5 z m -13,-1.5 c 0,-0.73333 0.3,-1.03333 0.6667,-0.66667 0.3666,0.36667 0.3666,0.96667 0,1.33334 -0.3667,0.36666 -0.6667,0.0667 -0.6667,-0.66667 z"
         id="path4431"
         inkscape:connector-curvature="0" />
      <path
         style="fill:#cccccc"
         d="m 1096.2478,-614.14689 c -2.7219,-0.61143 -5.2542,-9.90293 -3.5611,-13.06648 0.5934,-1.10878 1.3499,-5.56858 1.6811,-9.91067 0.3312,-4.34208 1.0715,-10.5947 1.6451,-13.8947 0.5736,-3.3 1.27,-8.925 1.5475,-12.5 0.3463,-4.46135 1.101,-7.15055 2.4063,-8.57419 1.0459,-1.1408 1.6798,-2.29607 1.4086,-2.56725 -0.2712,-0.27119 0.6684,-4.96281 2.0879,-10.42582 1.4195,-5.46301 2.9471,-12.40774 3.3945,-15.43274 2.0719,-14.00689 2.9985,-14.89627 21.8743,-20.99542 13.8216,-4.46607 24.8546,-8.53659 26.0106,-9.59641 0.2159,-0.19791 -0.1767,-1.04571 -0.8724,-1.884 -0.6958,-0.83829 -0.9151,-1.52417 -0.4876,-1.52417 0.4276,0 -0.08,-0.94724 -1.1275,-2.10499 -1.2911,-1.42659 -1.9099,-3.60199 -1.9203,-6.75 -0.01,-2.55475 -0.3725,-5.20751 -0.809,-5.89501 -0.4366,-0.6875 -0.4297,-1.29486 0.015,-1.34968 0.4449,-0.0548 -0.316,-0.4202 -1.691,-0.81195 -2.7858,-0.7937 -3.412,-19.75521 -0.878,-26.58837 3.1521,-8.49996 4.0441,-9.66896 9.2161,-12.07706 9.7926,-4.55949 18.2114,-1.23478 10.7664,4.2518 -1.4411,1.06202 -1.4009,1.2563 0.3955,1.90803 1.1,0.39909 2.407,0.95076 2.9045,1.22593 0.5024,0.27791 0.5493,-0.0744 0.1054,-0.7926 -0.6236,-1.00908 0,-1.14282 2.8455,-0.6092 2.0045,0.37605 3.6446,0.28557 3.6446,-0.20107 0,-1.04306 4.4429,-3.20583 6.5857,-3.20583 5.2512,0 13.8096,13.30113 13.9984,21.75579 0.077,3.46632 0.4084,6.57003 0.7355,6.89713 0.3271,0.3271 -0.2896,2.32816 -1.3705,4.44681 -1.0808,2.11864 -1.8845,4.20042 -1.7859,4.62618 0.3509,1.51521 -1.4362,10.80746 -2.4549,12.76463 -0.5699,1.0948 -1.1423,2.8948 -1.272,4 -0.1298,1.1052 -0.3935,2.58863 -0.5861,3.2965 -0.3052,1.1218 6.4668,4.23684 12.2996,5.65765 0.9074,0.22103 3.8324,1.10472 6.5,1.96376 2.6676,0.85904 7.5502,2.29618 10.8502,3.19365 14.3336,3.89816 15.6948,5.11831 17.3731,15.57272 0.6776,4.22116 1.4077,8.72116 1.6224,10 0.2147,1.27885 0.8956,5.92518 1.5131,10.32518 1.8294,13.03593 1.9161,13.55885 4.0591,24.5 1.1312,5.775 2.3024,12.3 2.6028,14.5 0.3004,2.2 1.1344,4.675 1.8534,5.5 1.5128,1.73583 4.4761,12.57417 4.4761,16.37129 0,4.40912 -3.6564,5.92526 -12.3295,5.11252 -4.9337,-0.46233 -8.1256,-0.31063 -9.5545,0.45409 -1.6691,0.89327 -2.2553,0.86111 -2.6393,-0.14478 -0.3566,-0.93418 -2.4472,-1.20044 -7.5316,-0.95924 -9.3571,0.4439 -9.4682,0.30397 -9.3267,-11.74868 0.1355,-11.54621 0.074,-11.60069 -7.0275,-6.24849 -9.61,7.24246 -11.2315,7.59616 -12.1589,2.65224 -0.6383,-3.40215 -2.0093,-5.24502 -3.0946,-4.15971 -0.2912,0.29124 -0.088,2.59829 0.451,5.12679 1.7146,8.0393 -7.5286,8.66501 -31.2242,2.11371 -8.2713,-2.28682 -8.9808,-1.82926 -8.2345,5.31059 l 0.6099,5.83556 -7.2198,0.64155 c -3.9709,0.35286 -10.2573,0.92839 -13.9698,1.27897 -3.9801,0.37585 -6.75,0.25328 -6.75,-0.2987 0,-1.36119 -7.1,-0.31831 -9.7777,1.4362 -2.2754,1.49089 -13.7299,2.51776 -17.8246,1.59794 z m 94.1775,-30.12994 c -1.2065,-1.20653 -1.7814,0.78155 -1.001,3.46152 0.8143,2.79657 0.8143,2.79657 1.1953,-0.0448 0.2096,-1.56278 0.1221,-3.10028 -0.1943,-3.41667 z m -0.066,-9.17789 c -0.7501,-5.45377 -2.5088,-6.94633 -2.5088,-2.12912 0,3.37378 1.7771,8.62132 2.6306,7.76781 0.3161,-0.31606 0.2613,-2.85347 -0.1218,-5.63869 z m -22.5732,-12.56402 c 0.1392,-7.31019 3.0108,-23.58535 4.5487,-25.78112 2.0443,-2.91855 1.9112,-4.27246 -0.6546,-6.66295 -2.0834,-1.94096 -2.0995,-2.10029 -0.4021,-3.97595 1.7987,-1.9875 1.422,-4.07622 -0.7366,-4.08461 -0.6551,-0.003 -2.6291,-1.35254 -4.3868,-3 -5.8782,-5.50961 -6.5843,-4.00977 -4.2287,8.98152 0.9498,5.23771 2.0084,14.47311 2.3525,20.52311 1.1676,20.52782 3.2268,28.7465 3.5076,14 z m 23.2644,4.3 c -0.8688,-0.86882 -1.2,-8.04444 -1.2,-26 0,-13.64 -0.3617,-24.8 -0.8038,-24.8 -0.4421,0 -2.3304,1.575 -4.1962,3.5 -1.8658,1.925 -4.041,3.5 -4.8338,3.5 -2.1173,0 -0.8083,9.34051 2.2581,16.11309 1.3415,2.9628 2.9397,9.21191 3.5517,13.88691 2.0044,15.31241 1.9155,15 4.2693,15 1.6759,0 1.888,-0.26667 0.9547,-1.2 z m -9.45,-54.44113 c 1.2375,-0.77274 2.25,-2.0321 2.25,-2.79859 0,-0.76649 0.4233,-1.54361 0.9407,-1.72695 0.8403,-0.29775 4.0564,-13.4391 4.0585,-16.58333 4e-4,-0.6875 -1.0976,-1.25 -2.4402,-1.25 -3.8694,0 -3.9088,-1.72945 -0.068,-2.99696 3.1031,-1.02412 3.5092,-1.5542 3.5092,-4.58059 0,-3.66199 -0.8732,-4.14308 -3.9886,-2.19749 -1.5478,0.96661 -2.2198,0.96661 -3.1864,0 -2.6777,-2.67764 -8.2936,-0.69938 -5.9683,2.10238 0.5831,0.7026 0.6678,1.82404 0.1954,2.58833 -0.9062,1.46631 -1.2948,0.60536 -2.5569,-5.66567 -0.3598,-1.7875 -1.1809,-3.25689 -1.8247,-3.26531 -2.3014,-0.0301 1.8624,-1.95468 4.3295,-2.00118 1.375,-0.0259 3.3735,-0.7078 4.4411,-1.51531 1.0677,-0.80751 3.4302,-1.4682 5.25,-1.4682 1.8199,0 3.3089,-0.45 3.3089,-1 0,-0.55 -0.4079,-1 -0.9064,-1 -1.052,0 -0.2568,-3.92183 1.1635,-5.73817 0.6689,-0.85546 0.4697,-1.42943 -0.6445,-1.85699 -0.8869,-0.34035 -1.6126,-1.19319 -1.6126,-1.8952 0,-2.22718 -3.6806,-2.36163 -13.3556,-0.48787 -6.7665,1.31047 -10.491,1.57161 -13.2749,0.93075 -6.2435,-1.43728 -11.9262,6.28695 -6.1195,8.31805 0.9162,0.32048 0.7827,0.96456 -0.5,2.41207 -0.9625,1.08616 -1.75,2.82704 -1.75,3.86861 0,1.71757 0.1448,1.68698 1.5567,-0.32874 1.8746,-2.67635 3.468,-2.76118 9.7269,-0.51784 4.9856,1.787 7.1861,5.22565 4.8432,7.56855 -0.8357,0.83571 -1.1268,0.8168 -1.1268,-0.0732 0,-1.52012 -5.6473,-1.56751 -9.9054,-0.0831 -4.2228,1.47207 -4.2925,7.15584 -0.095,7.71781 3.9661,0.53094 4.4172,1.82424 1.0462,2.99936 -3.5643,1.24252 -3.5112,3.08416 0.3214,11.15801 4.8733,10.26609 14.4943,14.29239 22.3824,9.36682 z m -10.75,-5.35887 c 0,-0.55 1.6875,-0.99311 3.75,-0.98469 2.7894,0.0114 3.3658,0.26364 2.25,0.98469 -1.9709,1.27369 -6,1.27369 -6,0 z m -4.5,-4.93906 c -1.4803,-0.68123 -0.3726,-0.93863 4.2636,-0.99065 3.4449,-0.0387 7.137,-0.61576 8.2045,-1.28243 2.1766,-1.35932 3.9847,-0.34068 2.3309,1.31315 -1.4202,1.42022 -12.2695,2.12395 -14.799,0.95993 z m 3.5037,-6.557 c -2.8248,-3.00687 -2.2289,-4.01928 1.3942,-2.36851 2.0319,0.92581 2.9321,0.93461 3.8292,0.0374 1.5604,-1.56032 2.7729,-1.48505 2.7729,0.17214 0,4.20583 -4.8445,5.51382 -7.9963,2.15893 z m 5.9963,-8.00394 c 0,-0.275 0.225,-0.5 0.5,-0.5 0.275,0 0.5,0.225 0.5,0.5 0,0.275 -0.225,0.5 -0.5,0.5 -0.275,0 -0.5,-0.225 -0.5,-0.5 z m -19.5,-8.5 c 0.3399,-0.55 -0.084,-1 -0.941,-1 -0.8574,0 -1.559,0.45 -1.559,1 0,0.55 0.4234,1 0.941,1 0.5175,0 1.2191,-0.45 1.559,-1 z m 35.1667,-6.66667 c -0.3667,-0.36666 -0.6667,-0.0667 -0.6667,0.66667 0,0.73333 0.3,1.03333 0.6667,0.66667 0.3666,-0.36667 0.3666,-0.96667 0,-1.33334 z m -43.6667,0.16667 c 0,-0.275 -0.225,-0.5 -0.5,-0.5 -0.275,0 -0.5,0.225 -0.5,0.5 0,0.275 0.225,0.5 0.5,0.5 0.275,0 0.5,-0.225 0.5,-0.5 z m 53,136 c 0,-0.275 0.225,-0.5 0.5,-0.5 0.275,0 0.5,0.225 0.5,0.5 0,0.275 -0.225,0.5 -0.5,0.5 -0.275,0 -0.5,-0.225 -0.5,-0.5 z m -13,-2 c 0,-0.275 0.225,-0.5 0.5,-0.5 0.275,0 0.5,0.225 0.5,0.5 0,0.275 -0.225,0.5 -0.5,0.5 -0.275,0 -0.5,-0.225 -0.5,-0.5 z"
         id="path4429"
         inkscape:connector-curvature="0" />
      <path
         style="fill:#cccccc"
         d="m 1094.3501,-616.51874 c 0.3491,-1.1 0.2055,-2 -0.3191,-2 -1.6249,0 -2.0111,-6.35526 -0.5591,-9.20034 0.758,-1.48519 1.3861,-5.31019 1.3957,-8.5 0.01,-3.18981 0.7281,-9.84966 1.5967,-14.79966 0.8687,-4.95 1.7226,-11.45313 1.8978,-14.45139 0.1896,-3.24748 0.8959,-5.87533 1.7469,-6.5 0.7857,-0.57674 1.7021,-3.07361 2.0365,-5.54861 0.3343,-2.475 1.5166,-7.65 2.6271,-11.5 1.1106,-3.85 2.0324,-8.25591 2.0484,-9.7909 0.016,-1.535 0.9715,-5.70785 2.1233,-9.27301 2.5027,-7.74695 1.7115,-7.26793 23.9058,-14.47272 16.0162,-5.19923 24.5454,-8.94824 22.1638,-9.74211 -0.6401,-0.21336 -1.1638,-1.05757 -1.1638,-1.87602 0,-0.81845 -0.7099,-2.19796 -1.5775,-3.06557 -1.0106,-1.01064 -1.5047,-3.0511 -1.3749,-5.67857 0.2727,-5.52254 -0.7383,-8.13914 -3.659,-9.46989 -2.303,-1.04933 -2.4045,-1.43998 -1.786,-6.87189 0.3607,-3.16763 0.5855,-7.46453 0.4996,-9.54868 -0.1773,-4.29814 2.1421,-12.90832 4.4092,-16.36835 2.9532,-4.50713 16.0023,-8.49527 18.7631,-5.73448 0.8808,0.88086 -1.5295,4.39219 -3.015,4.39219 -1.9138,0 -1.5045,1.79853 0.6748,2.96482 2.4774,1.32587 4.3672,1.33204 3.5511,0.0116 -0.4155,-0.67229 0.7654,-0.80003 3.441,-0.37219 2.498,0.39945 4.0736,0.26211 4.0736,-0.35509 0,-3.2891 6.1967,-3.56708 9.147,-0.41033 1.6249,1.73866 3.2876,3.1612 3.6948,3.1612 3.9618,0 9.023,23.00361 5.8971,26.80322 -0.9782,1.18907 -1.7744,4.63554 -3.2649,14.13372 -0.2967,1.89031 -0.916,3.91531 -1.3763,4.5 -2.7998,3.55635 -2.2032,8.3814 1.1231,9.08267 1.8036,0.38024 4.6292,1.25169 6.2792,1.93656 8.6993,3.6108 14.2308,5.54383 15.8641,5.54383 10.6047,0 20.0689,6.35147 21.6063,14.5 2.0292,10.75468 3.2808,18.93156 3.444,22.5 0.088,1.925 0.421,4.175 0.7398,5 0.6757,1.74879 4.1076,22.4776 4.2494,25.66702 0.053,1.19186 0.4339,2.50436 0.8464,2.91667 0.4125,0.4123 0.75,2.37452 0.75,4.36047 0,1.98596 0.7875,4.72346 1.75,6.08333 2.1583,3.04942 4.147,10.2304 4.2059,15.18733 0.059,4.94421 -2.0066,5.95033 -11.0452,5.38063 -4.1486,-0.26149 -8.1657,0.0192 -9.5951,0.67052 -1.835,0.83611 -2.6403,0.82676 -3.174,-0.0368 -0.4587,-0.74226 -3.391,-1.08042 -8.1784,-0.94314 l -7.4632,0.21397 -0.2838,-10.75 c -0.3358,-12.71608 -0.6053,-12.90539 -9.0506,-6.35711 -8.2739,6.41527 -9.8131,6.65276 -10.6593,1.64459 -1.0852,-6.42345 -3.9682,-5.57688 -3.1073,0.91246 1.1325,8.53751 -5.8295,9.12626 -30.1761,2.55191 -8.7421,-2.36062 -9.5615,-1.86026 -9.0282,5.51249 l 0.4329,5.98566 -7.0638,0.14806 c -9.7851,0.2051 -10.2848,0.25452 -11.1401,1.10194 -1.1196,1.10924 -8.2063,0.9107 -8.9237,-0.25 -0.9901,-1.60205 -9.5,-1.25864 -9.5,0.38337 0,1.93776 -3.1979,2.58718 -12.8174,2.60298 -7.8652,0.0129 -8.2829,-0.0951 -7.6826,-1.98635 z m 97.3164,-24.67288 c -0.4077,-3.44403 -2.8164,-4.36522 -2.8164,-1.07712 0,2.53439 0.7239,3.75 2.2331,3.75 0.4949,0 0.7574,-1.2028 0.5833,-2.67288 z m -0.465,-9.66128 c -0.4014,-1.19121 -0.7954,-3.26608 -0.8756,-4.61082 -0.08,-1.34475 -0.67,-2.61975 -1.3107,-2.83334 -1.4852,-0.49504 -1.5712,6.15094 -0.1149,8.87207 1.3677,2.55553 3.2501,1.38751 2.3012,-1.42791 z m -20.531,-35.56133 c 0.5678,-2.41752 1.4358,-4.66752 1.9289,-5 2.2221,-1.49824 2.1591,-4.28706 -0.149,-6.59512 -2.1525,-2.15246 -2.2414,-2.57678 -0.932,-4.44622 1.5543,-2.21904 1.0443,-4.06317 -1.1237,-4.06317 -0.7356,0 -2.7554,-1.61496 -4.4884,-3.58879 -5.984,-6.81538 -7.0321,-4.18448 -4.1558,10.43171 1.0452,5.31139 2.1817,15.84544 2.5255,23.40899 0.9179,20.19358 2.5357,22.83926 4.1264,6.74809 0.6797,-6.875 1.7003,-14.47797 2.2681,-16.89549 z m 21.1796,25.56216 c 0,-0.73334 -0.3146,-1.64798 -0.6992,-2.03254 -0.3846,-0.38457 -0.8491,-11.79907 -1.0322,-25.36557 -0.378,-27.99562 -0.1136,-26.65366 -4.3105,-21.87357 -1.7409,1.98275 -3.9437,3.60501 -4.895,3.60501 -3.4188,0 -2.9345,8.50284 0.9403,16.50696 1.2824,2.64908 2.8943,9.45009 3.9313,16.5875 1.6292,11.21238 2.633,13.83546 5.3153,13.89023 0.4125,0.008 0.75,-0.58469 0.75,-1.31802 z m -11.3916,-54.43627 c 3.2189,-1.75447 5.6002,-6.06002 7.0276,-12.70637 2.1579,-10.04795 1.9201,-11.51101 -1.886,-11.60011 l -3.25,-0.0761 3.1782,-1.17392 c 4.0242,-1.48638 4.5897,-2.08665 4.9245,-5.22762 0.312,-2.92563 -1.8888,-4.28371 -4.0436,-2.49535 -1.0987,0.91186 -2.123,0.80883 -4.5775,-0.46048 -4.4157,-2.28345 -6.3033,-1.3397 -5.5177,2.7587 0.4877,2.5444 0.391,2.88023 -0.4451,1.54542 -2.5186,-4.02082 -1.7492,-9.11407 1.4812,-9.80533 1.65,-0.35308 3.9829,-1.1701 5.1843,-1.81561 1.2013,-0.64551 3.3388,-1.17365 4.75,-1.17365 1.4111,0 2.5657,-0.45 2.5657,-1 0,-0.55 -0.5051,-1 -1.1224,-1 -0.8257,0 -0.828,-0.35489 -0.01,-1.34201 0.6125,-0.7381 0.7839,-1.67186 0.3807,-2.075 -0.4031,-0.40315 0.071,-1.18301 1.054,-1.73303 1.6389,-0.91716 1.5336,-1.25917 -1.2701,-4.12688 -3.0571,-3.12684 -3.0571,-3.12684 -13.2953,-1.17107 -7.7115,1.4731 -11.3843,1.73325 -14.882,1.05413 -7.1625,-1.39069 -11.2062,3.6439 -6.6146,8.2355 0.9327,0.93265 0.9524,1.42042 0.079,1.96002 -1.6636,1.02836 -2.8296,6.19834 -1.3976,6.19834 0.6269,0 1.3988,-0.675 1.7154,-1.5 1.3993,-3.64655 14.3633,-0.49244 14.3588,3.49348 0,2.39479 -0.2686,2.50652 -5.9652,2.50652 -9.4272,0 -12.8455,7.49429 -4.1701,9.14259 l 3.6381,0.69123 -3.2264,1.32631 c -2.9372,1.20747 -3.1707,1.61811 -2.6053,4.58309 2.5077,13.1518 14.8757,21.92775 23.9401,16.98718 z m -8.3584,-6.91973 c 0.9625,-0.25152 2.5375,-0.25152 3.5,0 0.9625,0.25153 0.175,0.45733 -1.75,0.45733 -1.925,0 -2.7125,-0.2058 -1.75,-0.45733 z m -4.75,-4.25965 c -1.4147,-0.57184 -0.098,-0.93322 4.5,-1.23487 3.575,-0.23455 7.2875,-0.78728 8.25,-1.22829 1.0703,-0.49042 1.75,-0.39016 1.75,0.25815 0,2.28972 -10.3838,3.86878 -14.5,2.20501 z m 3.0973,-6.15311 c -2.9516,-2.3218 -2.5763,-4.52624 0.4491,-2.63688 1.551,0.96866 2.3858,0.95017 4.051,-0.0898 2.3661,-1.47765 3.4258,-0.97699 2.5826,1.22019 -1.1696,3.04789 -4.2816,3.7098 -7.0827,1.50646 z m 5.4027,-8.39791 c 0,-0.275 0.225,-0.5 0.5,-0.5 0.275,0 0.5,0.225 0.5,0.5 0,0.275 -0.225,0.5 -0.5,0.5 -0.275,0 -0.5,-0.225 -0.5,-0.5 z m -19,-8.5 c 0,-0.55 -0.9,-1 -2,-1 -1.1,0 -2,0.45 -2,1 0,0.55 0.9,1 2,1 1.1,0 2,-0.45 2,-1 z m 26,-2.5 c 0,-0.275 -0.225,-0.5 -0.5,-0.5 -0.275,0 -0.5,0.225 -0.5,0.5 0,0.275 0.225,0.5 0.5,0.5 0.275,0 0.5,-0.225 0.5,-0.5 z m 10,-3.5 c 0,-0.55 -0.45,-1 -1,-1 -0.55,0 -1,0.45 -1,1 0,0.55 0.45,1 1,1 0.55,0 1,-0.45 1,-1 z m -45,-0.5 c 0,-0.275 -0.225,-0.5 -0.5,-0.5 -0.275,0 -0.5,0.225 -0.5,0.5 0,0.275 0.225,0.5 0.5,0.5 0.275,0 0.5,-0.225 0.5,-0.5 z"
         id="path4427"
         inkscape:connector-curvature="0" />
    </g>
    <text
       xml:space="preserve"
       style="font-style:italic;font-variant:normal;font-weight:normal;font-stretch:normal;font-size:15.00146484px;line-height:125%;font-family:ETBembo;-inkscape-font-specification:'ETBembo Italic';letter-spacing:0px;word-spacing:0px;fill:#000000;fill-opacity:1;stroke:none;stroke-width:1px;stroke-linecap:butt;stroke-linejoin:miter;stroke-opacity:1"
       x="2818.8611"
       y="-101.45152"
       id="text4437"
       sodipodi:linespacing="125%"><tspan
         sodipodi:role="line"
         id="tspan4439"
         x="2818.8611"
         y="-101.45152">il podcast</tspan></text>
    <g
       id="g4561"
       transform="translate(0,-6.04986)">
      <path
         d="m 1914.4004,-55.125606 q 0,-0.320219 0,-0.640439 0,-2.881976 2.2415,-3.010064 6.2763,-0.512351 7.0449,-1.985361 0.5123,-0.768527 0.7044,-2.881977 l 0,-5.763952 0,-22.863678 q 0,-4.226899 -0.4483,-4.931382 l -1.9213,-0.704483 q -2.4977,-0.512351 -5.1235,-1.408966 -1.6011,-0.640439 -1.6011,-2.753892 0,-2.11345 1.2168,-2.88197 9.4145,-3.52242 15.5627,-5.50778 1.1528,-0.38426 2.0494,-0.38426 2.946,0 2.946,4.41903 l 0,37.017381 q 0,4.73925 0.1281,6.404392 0.1281,2.753888 0.7045,3.266239 0.6404,0.512352 3.9067,0.512352 0.2562,0 0.5123,-0.06404 2.7539,0 3.1382,2.689844 l 0,2.369625 q 0,2.369625 -2.6899,2.369625 -0.2561,0 -0.5764,0 -3.01,-0.192132 -9.2863,-0.192132 -6.2763,0 -15.8829,0.192132 -1.9854,0 -2.6258,-3.26624 z m 6.9167,-76.340344 q 0,-3.26624 2.2416,-5.44374 2.2415,-2.17749 5.5077,-2.17749 3.3944,0 5.5719,2.17749 2.1775,2.1775 2.1775,5.57182 0,3.13816 -2.3056,5.18756 -2.3056,2.04941 -5.5718,2.04941 -3.3944,0 -5.5078,-2.11345 -2.1135,-2.11345 -2.1135,-5.2516 z"
         style="font-style:normal;font-variant:normal;font-weight:bold;font-stretch:normal;font-size:medium;line-height:85.00000238%;font-family:ETBembo;-inkscape-font-specification:'ETBembo Bold';text-align:start;letter-spacing:0px;word-spacing:0px;text-anchor:start;fill:#000000;fill-opacity:1;stroke:none;stroke-width:1px;stroke-linecap:butt;stroke-linejoin:miter;stroke-opacity:1"
         id="path4450"
         inkscape:connector-curvature="0" />
      <path
         d="m 1950.0088,-53.012156 q -0.2562,-0.512352 -0.2562,-2.11345 0,-1.601098 0.1281,-2.113449 0.8966,-1.280878 2.2416,-1.280878 l 0.6404,0 q 3.7786,0 4.8673,-1.857274 1.1528,-1.857273 1.1528,-9.862763 l 0,-17.16377 q 0,-8.389753 -0.3842,-9.542543 -0.3843,-0.512352 -4.0989,-1.216835 l -2.6258,-0.512351 q -1.9853,-0.512351 -1.7291,-3.010061 0.3202,-2.49772 1.6011,-3.01007 5.3796,-1.72918 11.3357,-4.09881 3.0101,-1.0247 4.0348,-1.28088 1.0247,-0.19213 1.7932,-0.19213 1.0888,0 1.7292,0.44831 1.0247,0.76853 1.0888,3.13815 l 0,5.50778 q 0,0.89661 0.128,1.08874 0.1281,0.128093 0.7686,-0.32021 12.0402,-8.13358 18.7648,-8.13358 15.6268,0 15.6268,23.888379 0,3.778591 -0.5764,11.335773 -0.5124,7.557182 -0.5124,11.335773 0,2.113449 0.7685,2.689845 0.8326,0.512351 3.9708,0.512351 2.1134,-0.640439 3.5224,0.896615 0.5123,0.640439 0.5123,2.241537 0,0.32022 0,0.640439 -0.1281,2.113449 -1.4089,2.753889 -0.5124,0.256175 -1.9854,0.256175 -3.1382,0 -11.9762,-0.06404 -2.946,0 -5.3157,0 -4.6752,0 -6.9807,0.06404 -1.9854,0.128088 -2.5618,-0.448307 -0.5764,-0.576395 -0.7045,-2.305581 0,-4.034767 2.2416,-4.034767 l 0.7685,0 q 3.7786,-0.256176 4.9954,-1.344922 1.2168,-1.152791 1.6011,-4.483074 0.7685,-7.236963 0.7685,-21.90302 0,-12.552608 -7.9414,-12.552608 0,0 -0.064,0 -5.1235,0 -14.4098,6.660568 l 0,27.666972 q 0,4.226898 0.9606,5.123513 0.9607,0.832571 5.4438,0.832571 1.9853,0 2.3696,2.305581 0,2.625801 -0.3843,3.458372 -0.3843,0.896614 -2.6258,1.15279 -1.9213,-0.06404 -5.0595,-0.06404 -3.0741,0 -7.4291,0.06404 -2.946,0.06404 -5.3156,0.06404 -4.7392,0 -7.237,-0.192132 -1.8572,-0.128088 -2.2415,-1.024702 z"
         style="font-style:normal;font-variant:normal;font-weight:bold;font-stretch:normal;font-size:medium;line-height:85.00000238%;font-family:ETBembo;-inkscape-font-specification:'ETBembo Bold';text-align:start;letter-spacing:0px;word-spacing:0px;text-anchor:start;fill:#000000;fill-opacity:1;stroke:none;stroke-width:1px;stroke-linecap:butt;stroke-linejoin:miter;stroke-opacity:1"
         id="path4452"
         inkscape:connector-curvature="0" />
      <path
         d="m 2018.1515,-53.012156 q -0.2561,-0.512352 -0.2561,-2.11345 0,-1.601098 0.128,-2.113449 0.8967,-1.280878 2.2416,-1.280878 l 0.6404,0 q 3.7786,0 4.8674,-1.857274 1.1527,-1.857273 1.1527,-9.862763 l 0,-17.16377 q 0,-8.389753 -0.3842,-9.542543 -0.3843,-0.512352 -4.0988,-1.216835 l -2.6258,-0.512351 q -1.9854,-0.512351 -1.7292,-3.010061 0.3202,-2.49772 1.6011,-3.01007 5.3797,-1.72918 11.3358,-4.09881 3.01,-1.0247 4.0347,-1.28088 1.0247,-0.19213 1.7933,-0.19213 1.0887,0 1.7291,0.44831 1.0247,0.76853 1.0888,3.13815 l 0,5.50778 q 0,0.89661 0.1281,1.08874 0.1281,0.128093 0.7685,-0.32021 12.0403,-8.13358 18.7649,-8.13358 15.6267,0 15.6267,23.888379 0,3.778591 -0.5764,11.335773 -0.5124,7.557182 -0.5124,11.335773 0,2.113449 0.7686,2.689845 0.8325,0.512351 3.9707,0.512351 2.1134,-0.640439 3.5224,0.896615 0.5124,0.640439 0.5124,2.241537 0,0.32022 0,0.640439 -0.1281,2.113449 -1.409,2.753889 -0.5124,0.256175 -1.9854,0.256175 -3.1381,0 -11.9762,-0.06404 -2.946,0 -5.3156,0 -4.6752,0 -6.9808,0.06404 -1.9854,0.128088 -2.5618,-0.448307 -0.5764,-0.576395 -0.7045,-2.305581 0,-4.034767 2.2416,-4.034767 l 0.7685,0 q 3.7786,-0.256176 4.9954,-1.344922 1.2169,-1.152791 1.6011,-4.483074 0.7686,-7.236963 0.7686,-21.90302 0,-12.552608 -7.9415,-12.552608 0,0 -0.064,0 -5.1235,0 -14.4099,6.660568 l 0,27.666972 q 0,4.226898 0.9606,5.123513 0.9607,0.832571 5.4438,0.832571 1.9853,0 2.3696,2.305581 0,2.625801 -0.3843,3.458372 -0.3842,0.896614 -2.6258,1.15279 -1.9213,-0.06404 -5.0594,-0.06404 -3.0741,0 -7.4291,0.06404 -2.946,0.06404 -5.3157,0.06404 -4.7392,0 -7.2369,-0.192132 -1.8573,-0.128088 -2.2416,-1.024702 z"
         style="font-style:normal;font-variant:normal;font-weight:bold;font-stretch:normal;font-size:medium;line-height:85.00000238%;font-family:ETBembo;-inkscape-font-specification:'ETBembo Bold';text-align:start;letter-spacing:0px;word-spacing:0px;text-anchor:start;fill:#000000;fill-opacity:1;stroke:none;stroke-width:1px;stroke-linecap:butt;stroke-linejoin:miter;stroke-opacity:1"
         id="path4454"
         inkscape:connector-curvature="0" />
      <path
         d="m 2086.5504,-79.526338 q 0,-12.488564 8.71,-20.814272 8.71,-8.32571 21.5828,-8.32571 13.0009,0 21.839,8.4538 8.838,8.38975 8.838,20.81427 0,12.168344 -8.774,20.686185 -8.774,8.453797 -21.5187,8.453797 -13.0009,0 -21.839,-8.453797 -8.8381,-8.453797 -8.8381,-20.814273 z m 14.1537,-3.778591 q 0,11.015554 5.3797,18.380604 5.3797,7.301007 12.7448,7.301007 5.892,0 9.9908,-5.635865 4.1629,-5.635865 4.1629,-14.153706 0,-10.375114 -5.3157,-17.163769 -5.3156,-6.852702 -12.6807,-6.852702 -6.0201,0 -10.1829,5.123516 -4.0989,5.123513 -4.0989,13.000915 z"
         style="font-style:normal;font-variant:normal;font-weight:bold;font-stretch:normal;font-size:medium;line-height:85.00000238%;font-family:ETBembo;-inkscape-font-specification:'ETBembo Bold';text-align:start;letter-spacing:0px;word-spacing:0px;text-anchor:start;fill:#000000;fill-opacity:1;stroke:none;stroke-width:1px;stroke-linecap:butt;stroke-linejoin:miter;stroke-opacity:1"
         id="path4456"
         inkscape:connector-curvature="0" />
      <path
         d="m 2150.6584,-102.96641 q -0.1281,-0.51235 -0.1281,-0.89662 0,-1.28087 0.8326,-2.30558 0.3842,-1.0247 1.2809,-1.0247 0.3842,-0.064 2.3055,-0.064 2.882,0 9.0943,0.12808 4.419,0.0641 7.9414,0.0641 4.6752,0 7.6853,-0.12809 0.8966,0 1.473,1.08875 0.6404,1.0247 0.6404,2.24153 0,1.15279 -0.7044,2.1775 -0.6405,1.0247 -1.6652,1.0247 l -1.2168,0 q -3.3943,0 -4.1629,0.25618 -0.7685,0.25617 -0.7685,1.088742 0,1.15279 5.0595,13.321134 5.1235,12.104301 7.1088,16.459287 0.2562,0.640439 0.5124,0.768527 0.2562,0.128088 0.3843,-0.192132 0.128,-0.320219 0.4483,-0.960658 0.3842,-0.896615 4.8033,-11.463862 4.483,-10.63129 6.3403,-14.537969 0.3843,-1.601098 -0.064,-2.561756 -0.3843,-0.960659 -2.1775,-1.408967 -1.7292,-0.512346 -2.818,-0.640436 -1.0247,-0.12809 -1.9213,-0.12809 -1.7292,0 -2.1134,-1.15279 -0.7686,-1.85727 -0.1281,-3.97072 0.3842,-1.40897 1.8573,-1.40897 0.064,0 0.128,0 5.1876,0.12809 10.8875,0.12809 5.6999,0 11.9122,-0.12809 2.3696,0 2.3696,3.26624 -0.2562,2.88198 -1.9854,3.13815 -3.5224,0.38427 -5.2516,2.43367 -1.6651,2.049406 -5.0594,9.926808 l -15.7548,35.288198 q -1.1528,2.113449 -2.2416,2.177493 -0.4483,0.06404 -1.3449,0.06404 -0.3843,0 -1.0247,0 -1.7932,-0.06404 -2.3696,-0.32022 -1.0247,-0.384263 -2.0494,-2.497713 l -16.6514,-37.337603 q -0.6405,-1.47301 -1.4731,-3.26624 -0.7685,-1.857273 -1.0247,-2.369625 -0.2561,-0.512351 -0.5764,-0.960658 -0.2561,-0.512352 -0.5763,-0.896615 -0.3203,-0.384264 -0.5124,-0.640439 -0.1921,-0.256176 -0.6404,-0.448308 -0.4483,-0.192132 -0.7045,-0.320219 -0.1922,-0.192129 -0.7685,-0.256169 -0.5764,-0.0641 -0.7686,-0.12809 -0.1921,-0.064 -1.0247,-0.19213 -0.7685,-0.12809 -1.0247,-0.12809 -1.9853,-0.38426 -2.3696,-2.30558 z"
         style="font-style:normal;font-variant:normal;font-weight:bold;font-stretch:normal;font-size:medium;line-height:85.00000238%;font-family:ETBembo;-inkscape-font-specification:'ETBembo Bold';text-align:start;letter-spacing:0px;word-spacing:0px;text-anchor:start;fill:#000000;fill-opacity:1;stroke:none;stroke-width:1px;stroke-linecap:butt;stroke-linejoin:miter;stroke-opacity:1"
         id="path4458"
         inkscape:connector-curvature="0" />
      <path
         d="m 2219.8899,-63.259183 q 0,-10.247027 14.538,-14.025618 4.0347,-1.024703 11.72,-4.483074 0.6404,-0.640439 0.6404,-1.152791 l -0.1281,-8.005489 q -0.128,-9.990855 -7.1088,-9.990855 -1.7292,0 -3.8427,1.537058 -2.0494,1.47301 -2.0494,2.817932 0,1.985362 0.5124,3.26624 -1.0247,1.15279 -4.291,2.753888 -3.2662,1.601098 -4.483,1.985362 -1.2169,0.384263 -2.1135,0.384263 -2.6258,0 -2.6258,-3.522415 0,-4.995426 8.5819,-11.720038 7.1089,-5.37969 12.8088,-5.37969 4.355,0 8.6459,2.1775 4.355,2.17749 6.7246,5.57182 1.7292,2.369621 2.1135,4.354982 0.3842,1.921318 0.3842,8.00549 l 0,22.799634 q 0,2.241537 0.1922,3.330284 0.1921,1.024703 0.4483,1.280878 0.2561,0.256176 0.7685,0.256176 2.1134,0 4.4831,-1.985361 0.8966,-0.64044 2.1134,-0.64044 1.8573,0.256176 2.2416,2.049406 0.128,0.640439 0.128,1.216834 0,1.024703 -0.4483,1.857274 -8.9021,7.877401 -14.666,7.877401 -6.0201,-0.06404 -7.6212,-6.340347 l 0,0.128088 q -4.6112,3.522415 -7.3651,4.867337 -2.6898,1.344922 -6.5325,1.344922 -5.892,0 -9.8627,-3.522415 -3.9067,-3.586459 -3.9067,-9.094236 z m 12.6166,-1.601098 q 0,2.369625 1.5371,3.970723 1.6011,1.537054 4.0988,1.537054 1.6011,0 4.6752,-1.921318 3.0741,-1.985361 3.8426,-3.586459 l 0,-8.645929 q 0,-0.384263 -0.2561,-0.768527 -0.1922,-0.256175 -0.3843,-0.256175 l -0.1281,0 q -1.8573,0.896614 -7.365,3.266239 -6.0202,2.241537 -6.0202,6.404392 z"
         style="font-style:normal;font-variant:normal;font-weight:bold;font-stretch:normal;font-size:medium;line-height:85.00000238%;font-family:ETBembo;-inkscape-font-specification:'ETBembo Bold';text-align:start;letter-spacing:0px;word-spacing:0px;text-anchor:start;fill:#000000;fill-opacity:1;stroke:none;stroke-width:1px;stroke-linecap:butt;stroke-linejoin:miter;stroke-opacity:1"
         id="path4460"
         inkscape:connector-curvature="0" />
      <path
         d="m 2273.6227,-54.036859 q -0.1281,-0.640439 -0.1921,-1.152791 0,-1.216834 0.7685,-2.049405 l 0.6404,-0.640439 29.5243,-39.515097 q 0.7685,-1.024702 0,-1.024702 -2.7539,0 -8.0695,0.192131 -5.3157,0.192132 -8.1977,0.192132 -2.1134,0 -3.2022,1.729186 -1.0247,1.665142 -2.8179,9.030192 -0.3843,0.640439 -1.3449,1.088747 -0.1281,0 -0.2562,0 -1.0247,0 -1.7292,-0.06404 -0.6404,-0.06404 -1.6011,-0.256176 -0.8966,-0.256176 -1.2809,-0.768527 -0.3842,-0.512351 -0.2561,-1.280878 0,-0.384264 0.1281,-0.704483 1.9853,-12.488571 3.5864,-18.828911 0.2562,-1.47301 0.8966,-1.6011 0.1281,-0.12809 0.3843,-0.12809 0.9607,-0.51235 2.3696,-0.51235 0.4483,0 0.8966,0.064 1.9854,0.19213 1.9854,1.53706 0,1.28087 0.6404,1.60109 0.6405,0.32022 3.3944,0.32022 16.0109,-0.25617 23.6962,-0.32022 2.5618,0 4.1629,0.0641 0.2561,0 1.2808,-0.0641 1.0888,-0.064 1.4731,0 0.3842,0.0641 1.0887,0.32022 0.7045,0.25618 1.2809,0.89662 0.3202,1.08874 0.3202,2.0494 0,1.40897 -0.7685,2.30558 -8.774,11.271738 -29.076,39.899369 -0.3842,0.640439 -0.1921,0.768527 0.1921,0.128088 1.0888,0.128088 3.3302,0.06404 7.6852,0.06404 4.4191,0 9.8628,-0.06404 2.4977,-0.128088 3.2022,-1.088747 0.7685,-1.024703 3.2662,-6.788655 0.2562,-0.384264 0.3843,-0.768527 0.1281,-0.384264 0.2562,-0.448308 0.128,-0.06404 0.7685,-0.256175 0.8326,-0.128088 1.6011,-0.128088 1.7292,0 2.7539,0.832571 0.5764,0.576395 0.5764,1.216834 0,0.384264 -0.1922,0.704483 l -5.1235,13.641355 q -0.6404,1.15279 -2.7539,1.857273 l -41.5645,0 q -0.8325,0 -1.3449,-2.049405 z"
         style="font-style:normal;font-variant:normal;font-weight:bold;font-stretch:normal;font-size:medium;line-height:85.00000238%;font-family:ETBembo;-inkscape-font-specification:'ETBembo Bold';text-align:start;letter-spacing:0px;word-spacing:0px;text-anchor:start;fill:#000000;fill-opacity:1;stroke:none;stroke-width:1px;stroke-linecap:butt;stroke-linejoin:miter;stroke-opacity:1"
         id="path4462"
         inkscape:connector-curvature="0" />
      <path
         d="m 2328.3803,-55.125606 q 0,-0.320219 0,-0.640439 0,-2.881976 2.2415,-3.010064 6.2763,-0.512351 7.0448,-1.985361 0.5124,-0.768527 0.7045,-2.881977 l 0,-5.763952 0,-22.863678 q 0,-4.226899 -0.4483,-4.931382 l -1.9213,-0.704483 q -2.4977,-0.512351 -5.1235,-1.408966 -1.6011,-0.640439 -1.6011,-2.753892 0,-2.11345 1.2168,-2.88197 9.4145,-3.52242 15.5627,-5.50778 1.1528,-0.38426 2.0494,-0.38426 2.946,0 2.946,4.41903 l 0,37.017381 q 0,4.73925 0.1281,6.404392 0.1281,2.753888 0.7045,3.266239 0.6404,0.512352 3.9067,0.512352 0.2561,0 0.5123,-0.06404 2.7539,0 3.1382,2.689844 l 0,2.369625 q 0,2.369625 -2.6899,2.369625 -0.2561,0 -0.5764,0 -3.01,-0.192132 -9.2863,-0.192132 -6.2763,0 -15.8829,0.192132 -1.9854,0 -2.6258,-3.26624 z m 6.9167,-76.340344 q 0,-3.26624 2.2416,-5.44374 2.2415,-2.17749 5.5077,-2.17749 3.3944,0 5.5719,2.17749 2.1774,2.1775 2.1774,5.57182 0,3.13816 -2.3055,5.18756 -2.3056,2.04941 -5.5719,2.04941 -3.3943,0 -5.5077,-2.11345 -2.1135,-2.11345 -2.1135,-5.2516 z"
         style="font-style:normal;font-variant:normal;font-weight:bold;font-stretch:normal;font-size:medium;line-height:85.00000238%;font-family:ETBembo;-inkscape-font-specification:'ETBembo Bold';text-align:start;letter-spacing:0px;word-spacing:0px;text-anchor:start;fill:#000000;fill-opacity:1;stroke:none;stroke-width:1px;stroke-linecap:butt;stroke-linejoin:miter;stroke-opacity:1"
         id="path4464"
         inkscape:connector-curvature="0" />
      <path
         d="m 2364.2448,-79.526338 q 0,-12.488564 8.71,-20.814272 8.71,-8.32571 21.5828,-8.32571 13.0009,0 21.839,8.4538 8.8381,8.38975 8.8381,20.81427 0,12.168344 -8.7741,20.686185 -8.774,8.453797 -21.5187,8.453797 -13.0009,0 -21.839,-8.453797 -8.8381,-8.453797 -8.8381,-20.814273 z m 14.1538,-3.778591 q 0,11.015554 5.3796,18.380604 5.3797,7.301007 12.7448,7.301007 5.892,0 9.9908,-5.635865 4.1629,-5.635865 4.1629,-14.153706 0,-10.375114 -5.3157,-17.163769 -5.3156,-6.852702 -12.6807,-6.852702 -6.0201,0 -10.1829,5.123516 -4.0988,5.123513 -4.0988,13.000915 z"
         style="font-style:normal;font-variant:normal;font-weight:bold;font-stretch:normal;font-size:medium;line-height:85.00000238%;font-family:ETBembo;-inkscape-font-specification:'ETBembo Bold';text-align:start;letter-spacing:0px;word-spacing:0px;text-anchor:start;fill:#000000;fill-opacity:1;stroke:none;stroke-width:1px;stroke-linecap:butt;stroke-linejoin:miter;stroke-opacity:1"
         id="path4466"
         inkscape:connector-curvature="0" />
      <path
         d="m 2429.8258,-53.012156 q -0.2562,-0.512352 -0.2562,-2.11345 0,-1.601098 0.1281,-2.113449 0.8966,-1.280878 2.2416,-1.280878 l 0.6404,0 q 3.7786,0 4.8673,-1.857274 1.1528,-1.857273 1.1528,-9.862763 l 0,-17.16377 q 0,-8.389753 -0.3842,-9.542543 -0.3843,-0.512352 -4.0989,-1.216835 l -2.6258,-0.512351 q -1.9853,-0.512351 -1.7291,-3.010061 0.3202,-2.49772 1.6011,-3.01007 5.3796,-1.72918 11.3357,-4.09881 3.0101,-1.0247 4.0348,-1.28088 1.0247,-0.19213 1.7932,-0.19213 1.0888,0 1.7292,0.44831 1.0247,0.76853 1.0888,3.13815 l 0,5.50778 q 0,0.89661 0.128,1.08874 0.1281,0.128093 0.7686,-0.32021 12.0402,-8.13358 18.7648,-8.13358 15.6268,0 15.6268,23.888379 0,3.778591 -0.5764,11.335773 -0.5124,7.557182 -0.5124,11.335773 0,2.113449 0.7685,2.689845 0.8326,0.512351 3.9708,0.512351 2.1134,-0.640439 3.5224,0.896615 0.5123,0.640439 0.5123,2.241537 0,0.32022 0,0.640439 -0.1281,2.113449 -1.4089,2.753889 -0.5124,0.256175 -1.9854,0.256175 -3.1382,0 -11.9762,-0.06404 -2.946,0 -5.3157,0 -4.6752,0 -6.9807,0.06404 -1.9854,0.128088 -2.5618,-0.448307 -0.5764,-0.576395 -0.7045,-2.305581 0,-4.034767 2.2416,-4.034767 l 0.7685,0 q 3.7786,-0.256176 4.9954,-1.344922 1.2168,-1.152791 1.6011,-4.483074 0.7685,-7.236963 0.7685,-21.90302 0,-12.552608 -7.9414,-12.552608 0,0 -0.064,0 -5.1235,0 -14.4098,6.660568 l 0,27.666972 q 0,4.226898 0.9606,5.123513 0.9607,0.832571 5.4437,0.832571 1.9854,0 2.3697,2.305581 0,2.625801 -0.3843,3.458372 -0.3843,0.896614 -2.6258,1.15279 -1.9213,-0.06404 -5.0595,-0.06404 -3.0741,0 -7.4291,0.06404 -2.946,0.06404 -5.3156,0.06404 -4.7392,0 -7.237,-0.192132 -1.8572,-0.128088 -2.2415,-1.024702 z"
         style="font-style:normal;font-variant:normal;font-weight:bold;font-stretch:normal;font-size:medium;line-height:85.00000238%;font-family:ETBembo;-inkscape-font-specification:'ETBembo Bold';text-align:start;letter-spacing:0px;word-spacing:0px;text-anchor:start;fill:#000000;fill-opacity:1;stroke:none;stroke-width:1px;stroke-linecap:butt;stroke-linejoin:miter;stroke-opacity:1"
         id="path4468"
         inkscape:connector-curvature="0" />
      <path
         d="m 2498.3528,-78.757811 q 0,-12.744739 7.8774,-21.262579 7.8774,-8.51784 19.7896,-8.51784 14.0256,0 19.5334,11.848122 2.1134,4.226899 3.5865,6.020128 0.4483,0.896615 0.4483,1.79323 0,0.768527 -0.3203,1.537054 -0.6404,1.665142 -2.8819,1.79323 -4.8033,0.192132 -13.1931,0.192132 -8.3897,0 -20.3019,-0.192132 -1.8573,0 -1.7932,3.650503 0,9.15828 4.9313,15.114364 4.9955,5.892041 12.4886,5.892041 8.2617,0 14.7942,-7.621226 1.2808,-1.47301 3.3302,-1.024703 1.2809,0.256176 2.0494,1.857274 0.8326,1.537054 0,2.817932 -13.0009,14.537969 -25.2973,14.602013 -10.7594,0 -17.9323,-8.325709 -7.1089,-8.325709 -7.1089,-20.173834 z m 14.2818,-13.89753 q 0.2562,0.384264 1.7292,0.384264 l 17.6761,0 q 0.7045,0 1.2169,-0.256176 0.3842,-0.192132 0.3842,-0.512351 0,-8.902106 -10.5032,-8.902106 -6.7886,0 -10.5032,9.286369 z"
         style="font-style:normal;font-variant:normal;font-weight:bold;font-stretch:normal;font-size:medium;line-height:85.00000238%;font-family:ETBembo;-inkscape-font-specification:'ETBembo Bold';text-align:start;letter-spacing:0px;word-spacing:0px;text-anchor:start;fill:#000000;fill-opacity:1;stroke:none;stroke-width:1px;stroke-linecap:butt;stroke-linejoin:miter;stroke-opacity:1"
         id="path4470"
         inkscape:connector-curvature="0" />
      <path
         d="m 1914.4004,56.362048 q 0,-0.32022 0,-0.640439 0,-2.881977 2.2415,-3.010065 6.2763,-0.512351 7.0449,-1.985361 0.5123,-0.768527 0.7044,-2.881976 l 0,-5.763953 0,-22.863678 q 0,-4.226899 -0.4483,-4.931382 l -1.9213,-0.704483 q -2.4977,-0.512351 -5.1235,-1.408966 -1.6011,-0.640439 -1.6011,-2.7538883 0,-2.1134492 1.2168,-2.8819762 9.4145,-3.5224154 15.5627,-5.5077769 1.1528,-0.38426347 2.0494,-0.38426347 2.946,0 2.946,4.41903027 l 0,37.0173836 q 0,4.73925 0.1281,6.404392 0.1281,2.753888 0.7045,3.26624 0.6404,0.512351 3.9067,0.512351 0.2562,0 0.5123,-0.06404 2.7539,0 3.1382,2.689845 l 0,2.369625 q 0,2.369624 -2.6899,2.369624 -0.2561,0 -0.5764,0 -3.01,-0.192131 -9.2863,-0.192131 -6.2763,0 -15.8829,0.192131 -1.9854,0 -2.6258,-3.266239 z m 6.9167,-76.340349 q 0,-3.26624 2.2416,-5.443733 2.2415,-2.177493 5.5077,-2.177493 3.3944,0 5.5719,2.177493 2.1775,2.177493 2.1775,5.571821 0,3.138152 -2.3056,5.187557 -2.3056,2.049405 -5.5718,2.049405 -3.3944,0 -5.5078,-2.113449 -2.1135,-2.113449 -2.1135,-5.251601 z"
         style="font-style:normal;font-variant:normal;font-weight:bold;font-stretch:normal;font-size:medium;line-height:85.00000238%;font-family:ETBembo;-inkscape-font-specification:'ETBembo Bold';text-align:start;letter-spacing:0px;word-spacing:0px;text-anchor:start;fill:#000000;fill-opacity:1;stroke:none;stroke-width:1px;stroke-linecap:butt;stroke-linejoin:miter;stroke-opacity:1"
         id="path4472"
         inkscape:connector-curvature="0" />
      <path
         d="m 1949.2403,55.977784 q 0.1281,-1.601098 0.6404,-2.369625 0.3843,-0.384263 1.5371,-0.640439 1.2808,-0.256176 2.1134,-0.256176 3.5224,-0.128087 4.419,-1.857273 0.9607,-1.729186 0.9607,-9.4785 l 0,-17.804209 q 0,-1.985361 0,-3.586459 0,-1.665142 0,-2.561757 0,-0.960658 -0.064,-1.537054 -0.064,-0.576395 -0.064,-0.832571 l 0,-0.256175 q -0.5123,-0.768527 -4.1628,-1.344923 l -3.0741,-0.384263 q -1.9854,-0.256176 -1.9854,-2.305581 0,-0.9606588 0.4483,-2.305581 0.2562,-0.8966149 1.1528,-1.2808784 4.9954,-2.3696249 17.2278,-5.5077768 0.5764,-0.1280878 1.0247,-0.1280878 2.6258,0 2.6258,3.6505032 l 0,5.1235138 q 0,0.896614 0.7685,0.384263 11.5279,-7.7493139 19.7896,-7.7493139 9.9909,0 13.3852,9.0942359 0,0.128088 0.5764,-0.128088 4.2269,-3.0100636 6.4684,-4.4190298 2.3056,-1.4730101 6.3404,-3.0100641 4.0988,-1.537054 7.7493,-1.537054 9.6066,0 13.3852,8.2616649 1.9853,4.73925 1.9853,17.996341 0,3.394328 -0.2562,9.990851 -0.2561,6.53248 -0.2561,9.798719 0,2.369625 1.0247,2.94602 1.0247,0.512352 6.0201,0.512352 2.4977,0 3.2662,0.512351 1.0247,0.640439 1.0247,2.881976 0,0.576396 -0.064,1.280879 0,2.497712 -2.4977,2.497712 -3.5865,-0.128087 -10.7594,-0.128087 -7.1729,0 -17.8682,0.128087 -1.7292,0 -2.3697,-1.024702 -0.3842,-0.512352 -0.5123,-2.113449 -0.1281,-1.601098 0.3842,-2.497713 0.1281,-0.256176 0.3843,-0.512352 0.3202,-0.256175 0.4483,-0.320219 0.1281,-0.06404 0.4483,-0.128088 0.3202,-0.06404 0.4483,-0.06404 0.1281,0 0.5764,0 0.4483,0 0.7045,0 3.6505,0 4.7393,-0.896615 1.0887,-0.960658 1.3449,-4.354986 0.3842,-5.123513 0.3842,-17.483989 0,-11.527905 -1.6651,-14.922233 -1.6011,-3.394328 -5.9561,-3.394328 -4.0348,0 -14.2818,6.660568 l 0,28.179323 q 0,4.034767 0.9607,5.123514 1.0247,1.088746 4.6752,1.088746 2.7539,0 3.0101,3.138152 0,3.522415 -2.4978,3.522415 -10.9515,-0.192131 -19.2131,-0.192131 -4.1629,0 -7.6853,0.06404 -1.6011,0 -2.3056,-1.601098 -0.7045,-1.665142 0,-3.330284 0.7685,-1.729186 2.6899,-1.729186 l 0.9606,0 q 4.355,0 5.3797,-1.665142 1.0247,-1.665141 1.0247,-9.798719 l 0,-20.301921 q 0,-4.483075 -1.9854,-6.788656 -1.9213,-2.369625 -5.2516,-2.369625 -4.9954,0 -14.9222,6.660568 l 0,28.179323 q 0,4.226899 0.9607,5.251601 1.0247,0.960659 5.1875,0.960659 0.1281,0 2.1135,0.256176 0.8966,0.128088 0.8966,4.162854 -0.3843,2.241537 -2.0494,2.241537 -6.2763,-0.256175 -13.0009,-0.256175 -6.7246,0 -14.0256,0.256175 -1.9854,0 -2.4978,-1.15279 -0.3842,-0.704483 -0.3842,-1.857274 0,-0.320219 0,-0.640439 z"
         style="font-style:normal;font-variant:normal;font-weight:bold;font-stretch:normal;font-size:medium;line-height:85.00000238%;font-family:ETBembo;-inkscape-font-specification:'ETBembo Bold';text-align:start;letter-spacing:0px;word-spacing:0px;text-anchor:start;fill:#000000;fill-opacity:1;stroke:none;stroke-width:1px;stroke-linecap:butt;stroke-linejoin:miter;stroke-opacity:1"
         id="path4474"
         inkscape:connector-curvature="0" />
      <path
         d="m 2055.7453,89.664884 q 0.6404,-1.024702 2.6258,-1.024702 4.4831,0 5.6359,-1.985362 1.2168,-1.985361 1.2168,-10.887466 l 0,-52.836231 0,-3.010064 q 0,-1.729186 -0.3202,-2.177493 -0.3202,-0.448308 -1.9213,-0.896615 -0.7686,-0.256176 -2.3056,-0.768527 -1.473,-0.512351 -2.1775,-0.640439 -1.7292,-0.384264 -1.9854,-2.433669 -0.1921,-2.049405 0.8326,-2.94602 0.1281,-0.2561758 0.5124,-0.6404393 l 14.602,-8.77401657 q 1.1528,-0.89661483 2.8179,-0.89661483 0.3843,0 0.8326,0.0640439 2.1134,0.25617566 2.1134,3.0100641 l 0,6.8526991 q 0,1.6651416 0.7686,1.1527906 10.4391,-7.3010066 16.9075,-7.3010066 0.064,0 0.1281,0 8.7741,0 15.1784,8.1335776 6.4685,8.133577 6.4685,18.572736 0,12.616651 -8.9662,22.159195 -8.9661,9.4785 -20.9423,9.4785 -3.5224,0 -8.5179,-1.473011 -0.3842,-0.128087 -0.7045,0.192132 -0.3202,0.384264 -0.3202,1.152791 l 0,14.025617 q 0,6.404392 0.5124,8.838061 0.5123,2.433669 1.6651,3.010064 1.2169,0.640439 4.4831,0.640439 l 1.8573,0 q 2.8819,0 3.5224,1.921318 0.2562,0.768527 0.2562,2.177493 0,1.408966 -0.3843,2.177493 -0.7685,1.280878 -3.0101,1.280878 -3.01,-0.128087 -28.7557,-0.128087 -1.8573,0 -2.6258,-1.152791 -0.7685,-1.088746 -0.7685,-2.305581 0,-1.216834 0.7685,-2.561757 z m 22.4794,-42.204941 q 6.5325,6.148216 13.065,6.148216 5.5078,0 9.2864,-5.379689 3.8426,-5.379689 3.8426,-13.641354 0,-9.286368 -4.291,-14.986277 -4.2269,-5.763952 -10.5032,-5.763952 -4.483,0 -11.0155,5.123513 -0.3843,0.384264 -0.3843,1.344923 l 0,27.15462 z"
         style="font-style:normal;font-variant:normal;font-weight:bold;font-stretch:normal;font-size:medium;line-height:85.00000238%;font-family:ETBembo;-inkscape-font-specification:'ETBembo Bold';text-align:start;letter-spacing:0px;word-spacing:0px;text-anchor:start;fill:#000000;fill-opacity:1;stroke:none;stroke-width:1px;stroke-linecap:butt;stroke-linejoin:miter;stroke-opacity:1"
         id="path4476"
         inkscape:connector-curvature="0" />
      <path
         d="m 2123.6959,56.23396 q 0,-1.280878 0.1281,-1.857274 0.1281,-0.640439 0.7685,-1.088746 0.7045,-0.448308 2.1135,-0.448308 3.6505,0 4.7392,-1.793229 1.1528,-1.79323 1.1528,-9.670632 l 0,-22.543459 q 0,-1.857273 -0.3842,-2.113449 -0.7686,-0.384263 -3.0101,-1.15279 -2.2415,-0.768527 -3.1382,-1.152791 -1.6011,-0.768527 -1.8572,-1.344922 -0.1281,-0.256176 -0.1281,-0.640439 l 0,-1.857274 q 0,-1.9853612 1.8572,-2.6258004 2.1135,-1.0247026 3.9708,-1.7291857 1.9213,-0.768527 5.1875,-1.7932297 3.2663,-1.0247026 5.8921,-2.1134492 0.8966,-0.3202196 1.6011,-0.3202196 0.8966,0 1.537,0.5123513 1.1528,0.8966149 1.0888,2.4336689 0.1281,1.8572735 0.1281,7.4931384 0.128,-0.128088 1.0247,-2.4977129 0.9606,-2.369625 1.7291,-3.7145472 0.7686,-1.4089662 1.7292,-1.9213175 1.8573,-0.8966148 3.7146,-0.9606588 1.9213,-0.064044 3.2022,0.3202196 1.3449,0.3842635 3.3943,1.0887466 2.1134,0.7044831 3.4584,0.9606588 l 1.1528,0.4483074 q 2.1775,0.7044831 2.1775,2.2415371 0,0.4483074 -0.1922,0.8966148 -1.2168,3.5224151 -4.2269,9.0301921 -2.882,-0.256176 -6.0201,-1.857273 -2.6258,-1.280879 -3.9067,-1.280879 -3.1381,0 -6.9808,6.916743 l 0,18.380604 q 0,1.152791 0.064,2.881977 0.064,1.729185 0.064,3.394327 0.2562,4.354987 1.0247,5.187557 0.8326,0.768527 4.9954,0.768527 l 2.7539,0 q 2.2416,0 2.5618,2.753889 0.3202,2.753888 -0.9607,3.778591 -0.5123,0.384263 -1.7292,0.384263 -3.01,0 -8.6459,-0.128087 -5.6358,-0.128088 -10.3111,-0.128088 -4.6111,0 -8.838,0.256175 -0.1921,0 -0.3843,0 -1.537,0 -1.9853,-0.896614 -0.5124,-1.024703 -0.5124,-2.497713 z"
         style="font-style:normal;font-variant:normal;font-weight:bold;font-stretch:normal;font-size:medium;line-height:85.00000238%;font-family:ETBembo;-inkscape-font-specification:'ETBembo Bold';text-align:start;letter-spacing:0px;word-spacing:0px;text-anchor:start;fill:#000000;fill-opacity:1;stroke:none;stroke-width:1px;stroke-linecap:butt;stroke-linejoin:miter;stroke-opacity:1"
         id="path4478"
         inkscape:connector-curvature="0" />
      <path
         d="m 2171.2165,32.729842 q 0,-12.744739 7.8774,-21.26258 7.8774,-8.5178409 19.7896,-8.5178409 14.0256,0 19.5334,11.8481249 2.1134,4.226898 3.5864,6.020128 0.4483,0.896615 0.4483,1.79323 0,0.768527 -0.3202,1.537054 -0.6404,1.665141 -2.882,1.793229 -4.8033,0.192132 -13.193,0.192132 -8.3898,0 -20.3019,-0.192132 -1.8573,0 -1.7933,3.650504 0,9.15828 4.9314,15.114364 4.9955,5.89204 12.4886,5.89204 8.2617,0 14.7941,-7.621226 1.2809,-1.47301 3.3303,-1.024703 1.2809,0.256176 2.0494,1.857274 0.8326,1.537054 0,2.817932 -13.0009,14.537969 -25.2973,14.602013 -10.7594,0 -17.9323,-8.325709 -7.1089,-8.325709 -7.1089,-20.173834 z m 14.2818,-13.89753 q 0.2562,0.384264 1.7292,0.384264 l 17.6761,0 q 0.7045,0 1.2168,-0.256176 0.3843,-0.192131 0.3843,-0.512351 0,-8.9021044 -10.5032,-8.9021044 -6.7887,0 -10.5032,9.2863674 z"
         style="font-style:normal;font-variant:normal;font-weight:bold;font-stretch:normal;font-size:medium;line-height:85.00000238%;font-family:ETBembo;-inkscape-font-specification:'ETBembo Bold';text-align:start;letter-spacing:0px;word-spacing:0px;text-anchor:start;fill:#000000;fill-opacity:1;stroke:none;stroke-width:1px;stroke-linecap:butt;stroke-linejoin:miter;stroke-opacity:1"
         id="path4480"
         inkscape:connector-curvature="0" />
      <path
         d="m 2227.8313,33.818589 q 0,-13.000915 9.4145,-22.095151 9.4785,-9.1582804 22.7355,-9.1582804 6.5325,0 11.528,2.4336689 4.9954,2.4336688 4.9954,6.9167425 0,2.497713 -1.7292,4.290943 -1.6651,1.729186 -4.1629,1.729186 -3.9066,0 -8.9021,-4.867338 -3.1381,-3.010064 -6.3403,-3.010064 -5.6359,0 -10.0549,6.084172 -4.355,6.084172 -4.355,14.794145 0,9.15828 4.4831,14.666057 4.5471,5.507777 11.5279,5.507777 8.6459,0 13.7694,-7.365051 0.8326,-2.305581 2.818,-2.305581 0.5123,0 1.0887,0.128088 1.6011,0.768527 2.1135,2.433669 0.128,0.576395 0.128,1.088746 0,1.152791 -0.7685,1.985362 -8.9021,13.769442 -23.6322,13.769442 -10.7594,0 -17.7402,-7.749314 -6.9167,-7.749314 -6.9167,-19.277219 z"
         style="font-style:normal;font-variant:normal;font-weight:bold;font-stretch:normal;font-size:medium;line-height:85.00000238%;font-family:ETBembo;-inkscape-font-specification:'ETBembo Bold';text-align:start;letter-spacing:0px;word-spacing:0px;text-anchor:start;fill:#000000;fill-opacity:1;stroke:none;stroke-width:1px;stroke-linecap:butt;stroke-linejoin:miter;stroke-opacity:1"
         id="path4482"
         inkscape:connector-curvature="0" />
      <path
         d="m 2284.7023,48.22847 q 0,-10.247026 14.538,-14.025617 4.0348,-1.024703 11.72,-4.483075 0.6405,-0.640439 0.6405,-1.15279 l -0.1281,-8.00549 q -0.1281,-9.990851 -7.1089,-9.990851 -1.7292,0 -3.8426,1.537054 -2.0494,1.47301 -2.0494,2.817933 0,1.985361 0.5123,3.266239 -1.0247,1.152791 -4.2909,2.753889 -3.2663,1.601098 -4.4831,1.985361 -1.2168,0.384264 -2.1134,0.384264 -2.6258,0 -2.6258,-3.522416 0,-4.995425 8.5818,-11.7200365 7.1089,-5.379689 12.8088,-5.379689 4.355,0 8.6459,2.1774931 4.355,2.1774932 6.7247,5.5718204 1.7291,2.369625 2.1134,4.354987 0.3843,1.921317 0.3843,8.005489 l 0,22.799635 q 0,2.241537 0.1921,3.330283 0.1921,1.024703 0.4483,1.280879 0.2562,0.256175 0.7685,0.256175 2.1135,0 4.4831,-1.985361 0.8966,-0.640439 2.1135,-0.640439 1.8572,0.256175 2.2415,2.049405 0.1281,0.640439 0.1281,1.216835 0,1.024702 -0.4483,1.857273 -8.9021,7.877402 -14.6661,7.877402 -6.0201,-0.06404 -7.6212,-6.340348 l 0,0.128088 q -4.6112,3.522415 -7.3651,4.867338 -2.6898,1.344922 -6.5324,1.344922 -5.8921,0 -9.8628,-3.522416 -3.9067,-3.586459 -3.9067,-9.094236 z m 12.6167,-1.601098 q 0,2.369625 1.537,3.970723 1.6011,1.537054 4.0988,1.537054 1.6011,0 4.6752,-1.921317 3.0742,-1.985362 3.8427,-3.58646 l 0,-8.645928 q 0,-0.384264 -0.2562,-0.768527 -0.1921,-0.256176 -0.3843,-0.256176 l -0.128,0 q -1.8573,0.896615 -7.3651,3.26624 -6.0201,2.241537 -6.0201,6.404391 z"
         style="font-style:normal;font-variant:normal;font-weight:bold;font-stretch:normal;font-size:medium;line-height:85.00000238%;font-family:ETBembo;-inkscape-font-specification:'ETBembo Bold';text-align:start;letter-spacing:0px;word-spacing:0px;text-anchor:start;fill:#000000;fill-opacity:1;stroke:none;stroke-width:1px;stroke-linecap:butt;stroke-linejoin:miter;stroke-opacity:1"
         id="path4484"
         inkscape:connector-curvature="0" />
      <path
         d="m 2338.4352,57.450794 q -0.1281,-0.640439 -0.1922,-1.15279 0,-1.216835 0.7685,-2.049406 l 0.6405,-0.640439 29.5242,-39.515096 q 0.7686,-1.024703 0,-1.024703 -2.7539,0 -8.0695,0.192132 -5.3156,0.192131 -8.1976,0.192131 -2.1135,0 -3.2022,1.729186 -1.0247,1.665142 -2.818,9.030193 -0.3842,0.640439 -1.3449,1.088746 -0.1281,0 -0.2562,0 -1.0247,0 -1.7291,-0.06404 -0.6405,-0.06404 -1.6011,-0.256175 -0.8966,-0.256176 -1.2809,-0.768527 -0.3843,-0.512352 -0.2562,-1.280879 0,-0.384263 0.1281,-0.704483 1.9854,-12.4885637 3.5865,-18.8289114 0.2561,-1.4730101 0.8966,-1.601098 0.1281,-0.1280878 0.3842,-0.1280878 0.9607,-0.5123513 2.3697,-0.5123513 0.4483,0 0.8966,0.064044 1.9853,0.1921317 1.9853,1.537054 0,1.2808783 0.6405,1.6010979 0.6404,0.3202196 3.3943,0.3202196 16.011,-0.2561757 23.6963,-0.3202196 2.5617,0 4.1628,0.064044 0.2562,0 1.2809,-0.064044 1.0887,-0.064044 1.473,0 0.3843,0.064044 1.0887,0.3202196 0.7045,0.2561757 1.2809,0.8966148 0.3202,1.0887466 0.3202,2.0494054 0,1.4089661 -0.7685,2.305581 -8.774,11.2717288 -29.0759,39.8993598 -0.3843,0.640439 -0.1922,0.768527 0.1922,0.128088 1.0888,0.128088 3.3303,0.06404 7.6853,0.06404 4.419,0 9.8627,-0.06404 2.4977,-0.128088 3.2022,-1.088747 0.7685,-1.024702 3.2663,-6.788655 0.2561,-0.384263 0.3842,-0.768527 0.1281,-0.384263 0.2562,-0.448307 0.1281,-0.06404 0.7685,-0.256176 0.8326,-0.128088 1.6011,-0.128088 1.7292,0 2.7539,0.832571 0.5764,0.576396 0.5764,1.216835 0,0.384263 -0.1921,0.704483 l -5.1235,13.641354 q -0.6405,1.152791 -2.7539,1.857274 l -41.5645,0 q -0.8326,0 -1.3449,-2.049406 z"
         style="font-style:normal;font-variant:normal;font-weight:bold;font-stretch:normal;font-size:medium;line-height:85.00000238%;font-family:ETBembo;-inkscape-font-specification:'ETBembo Bold';text-align:start;letter-spacing:0px;word-spacing:0px;text-anchor:start;fill:#000000;fill-opacity:1;stroke:none;stroke-width:1px;stroke-linecap:butt;stroke-linejoin:miter;stroke-opacity:1"
         id="path4486"
         inkscape:connector-curvature="0" />
      <path
         d="m 2393.1927,56.362048 q 0,-0.32022 0,-0.640439 0,-2.881977 2.2416,-3.010065 6.2763,-0.512351 7.0448,-1.985361 0.5123,-0.768527 0.7045,-2.881976 l 0,-5.763953 0,-22.863678 q 0,-4.226899 -0.4483,-4.931382 l -1.9214,-0.704483 q -2.4977,-0.512351 -5.1235,-1.408966 -1.6011,-0.640439 -1.6011,-2.7538883 0,-2.1134492 1.2169,-2.8819762 9.4144,-3.5224154 15.5626,-5.5077769 1.1528,-0.38426347 2.0494,-0.38426347 2.9461,0 2.9461,4.41903027 l 0,37.0173836 q 0,4.73925 0.128,6.404392 0.1281,2.753888 0.7045,3.26624 0.6405,0.512351 3.9067,0.512351 0.2562,0 0.5124,-0.06404 2.7539,0 3.1381,2.689845 l 0,2.369625 q 0,2.369624 -2.6898,2.369624 -0.2562,0 -0.5764,0 -3.0101,-0.192131 -9.2864,-0.192131 -6.2763,0 -15.8829,0.192131 -1.9853,0 -2.6258,-3.266239 z m 6.9168,-76.340349 q 0,-3.26624 2.2415,-5.443733 2.2415,-2.177493 5.5078,-2.177493 3.3943,0 5.5718,2.177493 2.1775,2.177493 2.1775,5.571821 0,3.138152 -2.3056,5.187557 -2.3056,2.049405 -5.5718,2.049405 -3.3943,0 -5.5078,-2.113449 -2.1134,-2.113449 -2.1134,-5.251601 z"
         style="font-style:normal;font-variant:normal;font-weight:bold;font-stretch:normal;font-size:medium;line-height:85.00000238%;font-family:ETBembo;-inkscape-font-specification:'ETBembo Bold';text-align:start;letter-spacing:0px;word-spacing:0px;text-anchor:start;fill:#000000;fill-opacity:1;stroke:none;stroke-width:1px;stroke-linecap:butt;stroke-linejoin:miter;stroke-opacity:1"
         id="path4488"
         inkscape:connector-curvature="0" />
      <path
         d="m 2429.0573,31.961315 q 0,-12.488563 8.71,-20.814273 8.71,-8.3257087 21.5828,-8.3257087 13.0009,0 21.839,8.4537967 8.838,8.389753 8.838,20.814273 0,12.168344 -8.774,20.686185 -8.774,8.453797 -21.5187,8.453797 -13.001,0 -21.839,-8.453797 -8.8381,-8.453797 -8.8381,-20.814273 z m 14.1537,-3.778591 q 0,11.015554 5.3797,18.380604 5.3797,7.301007 12.7448,7.301007 5.892,0 9.9908,-5.635865 4.1629,-5.635864 4.1629,-14.153705 0,-10.375115 -5.3157,-17.16377 -5.3156,-6.852699 -12.6807,-6.852699 -6.0201,0 -10.183,5.123513 -4.0988,5.123514 -4.0988,13.000915 z"
         style="font-style:normal;font-variant:normal;font-weight:bold;font-stretch:normal;font-size:medium;line-height:85.00000238%;font-family:ETBembo;-inkscape-font-specification:'ETBembo Bold';text-align:start;letter-spacing:0px;word-spacing:0px;text-anchor:start;fill:#000000;fill-opacity:1;stroke:none;stroke-width:1px;stroke-linecap:butt;stroke-linejoin:miter;stroke-opacity:1"
         id="path4490"
         inkscape:connector-curvature="0" />
      <path
         d="m 2494.6382,58.475497 q -0.2561,-0.512351 -0.2561,-2.113449 0,-1.601098 0.1281,-2.11345 0.8966,-1.280878 2.2415,-1.280878 l 0.6404,0 q 3.7786,0 4.8674,-1.857273 1.1528,-1.857274 1.1528,-9.862764 l 0,-17.163769 q 0,-8.389753 -0.3843,-9.542544 -0.3843,-0.512351 -4.0988,-1.216834 l -2.6258,-0.512352 q -1.9854,-0.512351 -1.7292,-3.0100638 0.3202,-2.4977127 1.6011,-3.0100641 5.3797,-1.7291857 11.3358,-4.0988106 3.01,-1.0247027 4.0347,-1.2808784 1.0247,-0.1921317 1.7933,-0.1921317 1.0887,0 1.7292,0.4483074 1.0247,0.768527 1.0887,3.1381519 l 0,5.5077773 q 0,0.896614 0.1281,1.088746 0.1281,0.128088 0.7685,-0.320219 12.0403,-8.1335779 18.7649,-8.1335779 15.6267,0 15.6267,23.8883809 0,3.778591 -0.5764,11.335773 -0.5124,7.557183 -0.5124,11.335774 0,2.113449 0.7686,2.689844 0.8325,0.512351 3.9707,0.512351 2.1134,-0.640439 3.5224,0.896615 0.5124,0.640439 0.5124,2.241537 0,0.32022 0,0.64044 -0.1281,2.113449 -1.409,2.753888 -0.5124,0.256176 -1.9854,0.256176 -3.1381,0 -11.9762,-0.06404 -2.946,0 -5.3156,0 -4.6752,0 -6.9808,0.06404 -1.9854,0.128087 -2.5618,-0.448308 -0.5764,-0.576395 -0.7044,-2.305581 0,-4.034767 2.2415,-4.034767 l 0.7685,0 q 3.7786,-0.256175 4.9954,-1.344922 1.2169,-1.15279 1.6011,-4.483074 0.7686,-7.236963 0.7686,-21.903019 0,-12.552608 -7.9415,-12.552608 0,0 -0.064,0 -5.1235,0 -14.4099,6.660567 l 0,27.666972 q 0,4.226899 0.9607,5.123514 0.9606,0.83257 5.4437,0.83257 1.9853,0 2.3696,2.305581 0,2.625801 -0.3843,3.458372 -0.3842,0.896615 -2.6258,1.15279 -1.9213,-0.06404 -5.0594,-0.06404 -3.0741,0 -7.4291,0.06404 -2.946,0.06404 -5.3157,0.06404 -4.7392,0 -7.2369,-0.192131 -1.8573,-0.128088 -2.2416,-1.024703 z"
         style="font-style:normal;font-variant:normal;font-weight:bold;font-stretch:normal;font-size:medium;line-height:85.00000238%;font-family:ETBembo;-inkscape-font-specification:'ETBembo Bold';text-align:start;letter-spacing:0px;word-spacing:0px;text-anchor:start;fill:#000000;fill-opacity:1;stroke:none;stroke-width:1px;stroke-linecap:butt;stroke-linejoin:miter;stroke-opacity:1"
         id="path4492"
         inkscape:connector-curvature="0" />
      <path
         d="m 2562.7646,32.729842 q 0,-12.744739 7.8774,-21.26258 7.8774,-8.5178409 19.7895,-8.5178409 14.0257,0 19.5334,11.8481249 2.1135,4.226898 3.5865,6.020128 0.4483,0.896615 0.4483,1.79323 0,0.768527 -0.3202,1.537054 -0.6405,1.665141 -2.882,1.793229 -4.8033,0.192132 -13.193,0.192132 -8.3898,0 -20.302,-0.192132 -1.8572,0 -1.7932,3.650504 0,9.15828 4.9314,15.114364 4.9954,5.89204 12.4886,5.89204 8.2616,0 14.7941,-7.621226 1.2809,-1.47301 3.3303,-1.024703 1.2809,0.256176 2.0494,1.857274 0.8326,1.537054 0,2.817932 -13.0009,14.537969 -25.2974,14.602013 -10.7593,0 -17.9323,-8.325709 -7.1088,-8.325709 -7.1088,-20.173834 z m 14.2818,-13.89753 q 0.2561,0.384264 1.7291,0.384264 l 17.6762,0 q 0.7044,0 1.2168,-0.256176 0.3843,-0.192131 0.3843,-0.512351 0,-8.9021044 -10.5032,-8.9021044 -6.7887,0 -10.5032,9.2863674 z"
         style="font-style:normal;font-variant:normal;font-weight:bold;font-stretch:normal;font-size:medium;line-height:85.00000238%;font-family:ETBembo;-inkscape-font-specification:'ETBembo Bold';text-align:start;letter-spacing:0px;word-spacing:0px;text-anchor:start;fill:#000000;fill-opacity:1;stroke:none;stroke-width:1px;stroke-linecap:butt;stroke-linejoin:miter;stroke-opacity:1"
         id="path4494"
         inkscape:connector-curvature="0" />
      <text
         sodipodi:linespacing="125%"
         id="text4519"
         y="-59.779594"
         x="2564.5613"
         style="font-style:normal;font-variant:normal;font-weight:600;font-stretch:normal;font-size:65.49145508px;line-height:125%;font-family:ETBembo;-inkscape-font-specification:'ETBembo Semi-Bold';letter-spacing:0px;word-spacing:0px;fill:#000000;fill-opacity:1;stroke:none;stroke-width:1px;stroke-linecap:butt;stroke-linejoin:miter;stroke-opacity:1"
         xml:space="preserve"><tspan
           y="-59.779594"
           x="2564.5613"
           id="tspan4521"
           sodipodi:role="line">&amp;</tspan></text>
    </g>
    <text
       xml:space="preserve"
       style="font-style:italic;font-variant:normal;font-weight:normal;font-stretch:normal;font-size:25.08250427px;line-height:125%;font-family:ETBembo;-inkscape-font-specification:'ETBembo Italic';letter-spacing:0px;word-spacing:0px;fill:#111111;fill-opacity:1;stroke:none;stroke-width:1px;stroke-linecap:butt;stroke-linejoin:miter;stroke-opacity:1"
       x="2467.5095"
       y="96.758827"
       id="text5840"
       sodipodi:linespacing="125%"><tspan
         sodipodi:role="line"
         id="tspan5842"
         x="2467.5095"
         y="96.758827">https://osd.tools</tspan></text>
  </g>
  <g
     transform="translate(-1902.1588,-124.6751)"
     style="display:inline"
     inkscape:label="logo"
     id="layer11"
     inkscape:groupmode="layer">
    <text
       sodipodi:linespacing="125%"
       id="text4157"
       y="910.95593"
       x="-368.75"
       style="font-style:normal;font-variant:normal;font-weight:normal;font-stretch:normal;font-size:180px;line-height:125%;font-family:Griffo;-inkscape-font-specification:Griffo;text-align:start;letter-spacing:0px;word-spacing:0px;writing-mode:lr-tb;text-anchor:start;fill:#000000;fill-opacity:1;stroke:none;stroke-width:1px;stroke-linecap:butt;stroke-linejoin:miter;stroke-opacity:1"
       xml:space="preserve"><tspan
         style="font-style:normal;font-variant:normal;font-weight:bold;font-stretch:normal;font-family:'Open Sans';-inkscape-font-specification:'Open Sans Bold'"
         y="910.95593"
         x="-368.75"
         id="tspan4159"
         sodipodi:role="line" /></text>
  </g>
</svg>
