<?xml version="1.0" encoding="UTF-8" standalone="no"?>
<!-- Created with Inkscape (http://www.inkscape.org/) -->

<svg
   xmlns:osb="http://www.openswatchbook.org/uri/2009/osb"
   xmlns:dc="http://purl.org/dc/elements/1.1/"
   xmlns:cc="http://creativecommons.org/ns#"
   xmlns:rdf="http://www.w3.org/1999/02/22-rdf-syntax-ns#"
   xmlns:svg="http://www.w3.org/2000/svg"
   xmlns="http://www.w3.org/2000/svg"
   xmlns:xlink="http://www.w3.org/1999/xlink"
   xmlns:sodipodi="http://sodipodi.sourceforge.net/DTD/sodipodi-0.dtd"
   xmlns:inkscape="http://www.inkscape.org/namespaces/inkscape"
   inkscape:export-ydpi="320"
   inkscape:export-xdpi="320"
   inkscape:export-filename="/Users/lucacorsato/Documents/osd/website/opensensorsdata.github.io/assets/img/logos/logo_podcast/osd-logo_podcast_quadrato_consulenza_filosofica.png"
   sodipodi:docname="osd-logo_podcast_quadrato_consulenza_filosofica.svg"
   inkscape:version="0.91 r13725"
   version="1.1"
   id="svg2"
   height="720"
   width="720">
  <sodipodi:namedview
     fit-margin-bottom="0"
     fit-margin-right="0"
     fit-margin-left="0"
     fit-margin-top="0"
     inkscape:window-maximized="0"
     inkscape:window-y="0"
     inkscape:window-x="73"
     inkscape:window-height="851"
     inkscape:window-width="1440"
     showgrid="false"
     inkscape:current-layer="layer5"
     inkscape:document-units="px"
     inkscape:cy="250.97993"
     inkscape:cx="260.27186"
     inkscape:zoom="0.59754208"
     inkscape:pageshadow="2"
     inkscape:pageopacity="0.0"
     borderopacity="1.0"
     bordercolor="#666666"
     pagecolor="#ffffff"
     id="base" />
  <defs
     id="defs4">
    <linearGradient
       osb:paint="solid"
       id="linearGradient4444">
      <stop
         id="stop4446"
         offset="0"
         style="stop-color:#002fa7;stop-opacity:1;" />
    </linearGradient>
    <linearGradient
       gradientUnits="userSpaceOnUse"
       y2="393.59521"
       x2="3401.6096"
       y1="393.59521"
       x1="1481.6096"
       id="linearGradient4448"
       xlink:href="#linearGradient4444"
       inkscape:collect="always" />
    <linearGradient
       gradientTransform="translate(-1761.6116,2283.4524)"
       y2="393.59521"
       x2="3401.6096"
       y1="393.59521"
       x1="1481.6096"
       gradientUnits="userSpaceOnUse"
       id="linearGradient4452"
       xlink:href="#linearGradient4444"
       inkscape:collect="always" />
    <clipPath
       clipPathUnits="userSpaceOnUse"
       id="clipPath8097">
      <rect
         style="display:inline;opacity:1;fill:#757575;fill-opacity:1;fill-rule:nonzero;stroke:none;stroke-width:3.5;stroke-linecap:round;stroke-linejoin:round;stroke-miterlimit:4;stroke-dasharray:none;stroke-dashoffset:263;stroke-opacity:1"
         id="rect8099"
         width="600"
         height="436.36365"
         x="1762.1588"
         y="-1034.2781"
         ry="40.909092"
         rx="40.909092"
         clip-path="none"
         mask="none" />
    </clipPath>
    <inkscape:path-effect
       effect="spiro"
       id="path-effect4886"
       is_visible="true" />
    <inkscape:path-effect
       is_visible="true"
       id="path-effect4882"
       effect="spiro" />
    <inkscape:path-effect
       is_visible="true"
       id="path-effect4878"
       effect="spiro" />
    <linearGradient
       inkscape:collect="always"
       xlink:href="#linearGradient4444"
       id="linearGradient4360"
       x1="1481.6096"
       y1="393.59521"
       x2="3401.6096"
       y2="393.59521"
       gradientUnits="userSpaceOnUse" />
    <linearGradient
       inkscape:collect="always"
       xlink:href="#linearGradient4444"
       id="linearGradient4362"
       gradientUnits="userSpaceOnUse"
       x1="1481.6096"
       y1="393.59521"
       x2="3401.6096"
       y2="393.59521"
       gradientTransform="translate(-1761.6116,2283.4524)" />
    <clipPath
       id="clipPath8097-1"
       clipPathUnits="userSpaceOnUse">
      <rect
         mask="none"
         clip-path="none"
         rx="40.909092"
         ry="40.909092"
         y="-1034.2781"
         x="1762.1588"
         height="436.36365"
         width="600"
         id="rect8099-33"
         style="display:inline;opacity:1;fill:#757575;fill-opacity:1;fill-rule:nonzero;stroke:none;stroke-width:3.5;stroke-linecap:round;stroke-linejoin:round;stroke-miterlimit:4;stroke-dasharray:none;stroke-dashoffset:263;stroke-opacity:1" />
    </clipPath>
    <linearGradient
       gradientUnits="userSpaceOnUse"
       y2="393.59521"
       x2="3401.6096"
       y1="393.59521"
       x1="1481.6096"
       id="linearGradient4513"
       xlink:href="#linearGradient4444"
       inkscape:collect="always" />
    <linearGradient
       gradientTransform="translate(-1761.6116,2283.4524)"
       y2="393.59521"
       x2="3401.6096"
       y1="393.59521"
       x1="1481.6096"
       gradientUnits="userSpaceOnUse"
       id="linearGradient4515"
       xlink:href="#linearGradient4444"
       inkscape:collect="always" />
    <clipPath
       clipPathUnits="userSpaceOnUse"
       id="clipPath8097-5">
      <rect
         style="display:inline;opacity:1;fill:#757575;fill-opacity:1;fill-rule:nonzero;stroke:none;stroke-width:3.5;stroke-linecap:round;stroke-linejoin:round;stroke-miterlimit:4;stroke-dasharray:none;stroke-dashoffset:263;stroke-opacity:1"
         id="rect8099-3"
         width="600"
         height="436.36365"
         x="1762.1588"
         y="-1034.2781"
         ry="40.909092"
         rx="40.909092"
         clip-path="none"
         mask="none" />
    </clipPath>
  </defs>
  <metadata
     id="metadata7">
    <rdf:RDF>
      <cc:Work
         rdf:about="">
        <dc:format>image/svg+xml</dc:format>
        <dc:type
           rdf:resource="http://purl.org/dc/dcmitype/StillImage" />
        <dc:title></dc:title>
      </cc:Work>
    </rdf:RDF>
  </metadata>
  <g
     inkscape:groupmode="layer"
     id="layer5"
     inkscape:label="sfondo"
     transform="translate(-1902.1588,610.1869)"
     style="display:inline">
    <rect
       style="opacity:1;fill:#ffffff;fill-opacity:1;stroke:#000000;stroke-width:1.87538755;stroke-linecap:round;stroke-linejoin:round;stroke-miterlimit:4;stroke-dasharray:none;stroke-opacity:1"
       id="rect4176"
       width="718.12457"
       height="718.12463"
       x="1903.0966"
       y="-609.24921"
       rx="0"
       ry="0" />
    <g
       id="g6521"
       transform="matrix(-3.148102,0,0,3.148102,10380.126,464.30946)">
      <path
         style="fill:#8c8c8c"
         d="m 2489.4385,-119.76988 -8.25,-3.90032 -0.011,-47.76354 c -0.01,-26.26994 -0.2899,-49.45103 -0.6308,-51.51353 -0.5803,-3.51049 -0.846,-3.75 -4.1603,-3.75 -1.9472,0 -4.3549,0.73711 -5.3504,1.63801 -1.4756,1.33538 -2.0906,1.40513 -3.3287,0.37756 -2.0135,-1.67106 -1.9416,-5.91611 0.1137,-6.70478 0.8978,-0.34454 2.4667,-0.10541 3.4864,0.53139 1.0197,0.6368 3.4351,1.15782 5.3675,1.15782 l 3.5136,0 0,-24.85345 0,-24.85345 6.9426,-1.14655 c 3.8185,-0.6306 8.3185,-1.14655 10,-1.14655 1.6816,0 3.0574,-0.22321 3.0574,-0.49602 0,-1.6928 -4.4915,-13.13698 -5.3981,-13.75398 -0.7603,-0.5175 -0.6369,-1.05526 0.3981,-1.73469 2.2468,-1.47491 4.2963,-1.22992 3.6566,0.43709 -0.3065,0.79882 0.472,4.51132 1.7301,8.25 l 2.2873,6.7976 4.163,0.3075 c 2.2897,0.16912 4.1531,-0.0559 4.1411,-0.5 -0.086,-3.18221 -6.0946,-23.76146 -7.123,-24.39702 -0.9128,-0.56416 -0.4781,-1.1033 1.4939,-1.85306 3.7629,-1.43066 3.9659,-1.36953 3.3444,1.00718 -0.7095,2.71311 5.1841,26.9354 6.5537,26.9354 1.3604,0 0.088,-34.35326 -1.2902,-34.83333 -0.5263,-0.18334 -0.9569,-1.19584 -0.9569,-2.25 0,-1.45442 0.7093,-1.91667 2.941,-1.91667 3.446,0 4.7253,1.49226 3.0302,3.53474 -0.896,1.07954 -1.0158,5.76774 -0.4716,18.4562 l 0.7295,17.00906 2.6354,0.0136 c 1.4495,0.007 3.5901,0.26984 4.7567,0.58296 1.8934,0.50815 2.627,-0.62875 6.8296,-10.58523 2.5895,-6.135 4.4671,-11.78292 4.1724,-12.55093 -0.7021,-1.82966 0.8895,-2.7499 3.3857,-1.95761 2.3077,0.73241 2.5682,2.30045 0.6458,3.88691 -1.5286,1.26144 -9.0384,18.55987 -8.3544,19.24385 0.6195,0.61955 8.6997,-9.15349 8.6997,-10.52238 0,-1.71226 3.7078,-1.31509 4.393,0.47057 0.8499,2.21467 0.7854,2.41821 -0.7656,2.41821 -0.755,0 -3.3113,2.10311 -5.6806,4.67357 -3.9181,4.25062 -4.1333,4.742 -2.3774,5.42971 1.0618,0.41588 4.7063,0.78778 8.0988,0.82643 10.1049,0.11515 9.3318,-1.92913 9.3318,24.67728 0,13.51885 0.3871,23.39301 0.9171,23.39301 1.9982,0 10.4846,-4.16711 11.604,-5.69797 1.8401,-2.51653 4.6805,-0.90172 4.2959,2.44228 -0.2391,2.07858 -0.8084,2.70065 -2.317,2.53171 -1.1,-0.1232 -4.7756,0.73449 -8.168,1.90597 -5.6313,1.94464 -6.2232,2.4247 -6.8035,5.5177 -0.7593,4.04744 0.1015,7.30031 1.9319,7.30031 1.4888,0 2.5396,2.15093 2.5396,5.19842 0,1.54251 -0.4839,1.9083 -2,1.51183 -1.9595,-0.51243 -2,-0.0307 -2,23.80181 l 0,24.32482 3.4319,2.12104 c 3.2319,1.99744 9.5681,10.19887 9.5681,12.38478 0,0.5499 0.7696,1.85022 1.7102,2.88961 1.4754,1.63027 1.5097,2.01663 0.25,2.81343 -1.9975,1.26348 -4.6986,1.18652 -5.5293,-0.15754 -0.3779,-0.6115 -0.1392,-1.45045 0.5305,-1.86435 1.6517,-1.02081 -1.7036,-7.55682 -6.0717,-11.82746 -2.3839,-2.33064 -3.4861,-2.85863 -4.0649,-1.94709 -0.4368,0.68789 -0.8011,5.88796 -0.8095,11.55573 l -0.015,10.30503 5.584,2.46951 c 3.0712,1.35824 6.3337,2.34597 7.25,2.19497 1.1732,-0.19333 1.5673,0.31702 1.3324,1.72546 -0.5195,3.11487 -1.99,4.10678 -3.4126,2.30196 -0.6896,-0.8748 -3.3913,-2.51281 -6.0038,-3.64002 -4.6679,-2.01407 -4.75,-2.0159 -4.75,-0.10571 0,1.06907 -0.2176,1.94377 -0.4835,1.94377 -0.2659,0 -12.7169,2.925 -27.6689,6.5 -14.952,3.575 -27.447,6.46123 -27.7666,6.41385 -0.3195,-0.0474 -4.2935,-1.84129 -8.831,-3.98646 z"
         id="path6525"
         inkscape:connector-curvature="0" />
      <path
         style="fill:#363636"
         d="m 2489.4385,-119.76988 -8.25,-3.90032 -0.011,-47.76354 c -0.01,-26.26994 -0.2899,-49.45103 -0.6308,-51.51353 -0.5803,-3.51049 -0.846,-3.75 -4.1603,-3.75 -1.9472,0 -4.3549,0.73711 -5.3504,1.63801 -1.4756,1.33538 -2.0906,1.40513 -3.3287,0.37756 -2.0135,-1.67106 -1.9416,-5.91611 0.1137,-6.70478 0.8978,-0.34454 2.4667,-0.10541 3.4864,0.53139 1.0197,0.6368 3.4351,1.15782 5.3675,1.15782 l 3.5136,0 0,-24.87775 0,-24.87775 8.0384,-1.25048 c 4.4212,-0.68776 8.2323,-1.05667 8.4692,-0.8198 0.477,0.47705 1.4071,63.91649 1.8259,124.54463 0.149,21.57036 0.4933,39.44129 0.7652,39.71317 0.2719,0.27187 2.9484,-0.15877 5.9478,-0.95698 2.9994,-0.79822 6.1285,-1.41602 6.9535,-1.3729 0.825,0.0431 -1.65,0.9275 -5.5,1.96529 -3.85,1.03779 -7.45,1.85841 -8,1.82359 -0.55,-0.0348 -4.7125,-1.81846 -9.25,-3.96363 z m 25.5625,-0.6105 c 0.7219,-0.28887 1.5844,-0.25335 1.9167,0.0789 0.3323,0.33229 -0.2584,0.56864 -1.3125,0.52522 -1.165,-0.048 -1.4019,-0.28494 -0.6042,-0.60416 z m 3.9375,-0.97917 c 0.6875,-0.27741 1.8125,-0.27741 2.5,0 0.6875,0.27741 0.125,0.50439 -1.25,0.50439 -1.375,0 -1.9375,-0.22698 -1.25,-0.50439 z m 5.0625,-1.02083 c 0.7219,-0.28887 1.5844,-0.25335 1.9167,0.0789 0.3323,0.33229 -0.2584,0.56864 -1.3125,0.52522 -1.165,-0.048 -1.4019,-0.28494 -0.6042,-0.60416 z m 4,-1 c 0.7219,-0.28887 1.5844,-0.25335 1.9167,0.0789 0.3323,0.33229 -0.2584,0.56864 -1.3125,0.52522 -1.165,-0.048 -1.4019,-0.28494 -0.6042,-0.60416 z m 4,-1 c 0.7219,-0.28887 1.5844,-0.25335 1.9167,0.0789 0.3323,0.33229 -0.2584,0.56864 -1.3125,0.52522 -1.165,-0.048 -1.4019,-0.28494 -0.6042,-0.60416 z m 4,-1 c 0.7219,-0.28887 1.5844,-0.25335 1.9167,0.0789 0.3323,0.33229 -0.2584,0.56864 -1.3125,0.52522 -1.165,-0.048 -1.4019,-0.28494 -0.6042,-0.60416 z m 5,-1 c 0.7219,-0.28887 1.5844,-0.25335 1.9167,0.0789 0.3323,0.33229 -0.2584,0.56864 -1.3125,0.52522 -1.165,-0.048 -1.4019,-0.28494 -0.6042,-0.60416 z m 24.1875,-0.35243 c 0,-1.03561 -8.4293,-5.17214 -10.707,-5.25427 -1.2805,-0.0462 -2.674,-2.66252 -1.8545,-3.48199 0.267,-0.26704 3.3883,0.74819 6.9363,2.25607 3.5479,1.50788 6.9089,2.45844 7.4689,2.11236 1.5141,-0.93577 2.0359,0.60055 1.0711,3.15337 -0.8587,2.27205 -2.9148,3.12873 -2.9148,1.21446 z m -20.1875,-0.64757 c 0.7219,-0.28887 1.5844,-0.25335 1.9167,0.0789 0.3323,0.33229 -0.2584,0.56864 -1.3125,0.52522 -1.165,-0.048 -1.4019,-0.28494 -0.6042,-0.60416 z m 4,-1 c 0.7219,-0.28887 1.5844,-0.25335 1.9167,0.0789 0.3323,0.33229 -0.2584,0.56864 -1.3125,0.52522 -1.165,-0.048 -1.4019,-0.28494 -0.6042,-0.60416 z m 15.8542,-12.98356 c -1.1056,-1.10556 -0.7587,-2.08406 0.9747,-2.74923 1.3378,-0.51336 1.4195,-0.36243 0.4417,0.81581 -0.9801,1.18093 -0.7771,1.52646 1.1085,1.88671 2.0767,0.39675 2.0993,0.45469 0.2251,0.5772 -1.1459,0.0749 -2.3834,-0.16382 -2.75,-0.53049 z m 4.4824,-1.99998 c -0.743,-0.80571 -1.1446,-1.67119 -0.8925,-1.9233 0.2521,-0.25211 1.0367,0.23837 1.7434,1.08995 1.6692,2.01122 0.9157,2.74912 -0.8509,0.83335 z m -5.1037,-5.22387 c -1.7836,-4.30587 -8.1926,-10.4802 -9.2118,-8.87451 -0.5809,0.91518 -0.8072,0.78106 -0.8183,-0.48497 -0.02,-2.2456 0.5408,-2.20224 4.0765,0.31535 2.9036,2.06753 8.581,10.59515 7.6643,11.51189 -0.2678,0.26779 -1.0376,-0.8427 -1.7107,-2.46776 z m -0.173,-4.85948 c -1.2438,-1.58606 -1.2085,-1.62143 0.3776,-0.37756 0.9625,0.75485 1.75,1.54235 1.75,1.75 0,0.82304 -0.8212,0.29331 -2.1276,-1.37244 z m -3,-4 c -1.2438,-1.58606 -1.2085,-1.62143 0.3776,-0.37756 0.9625,0.75485 1.75,1.54235 1.75,1.75 0,0.82304 -0.8212,0.29331 -2.1276,-1.37244 z m -57.1293,-4.25 c -1.0343,-3.61231 -0.9036,-7.2172 0.2362,-6.51277 2.3166,1.43169 6.9533,-3.23144 8.4393,-8.48723 l 0.7068,-2.5 -2.0554,2.5 c -1.7435,2.12077 -2.2058,2.27246 -3.0473,1 -1.1918,-1.80204 -1.3476,-6 -0.2227,-6 0.44,0 1.3209,0.52093 1.9576,1.15762 1.5066,1.50661 4.2424,-0.6086 4.2424,-3.28006 0,-1.94408 1.4699,-2.54432 2.4293,-0.99203 0.7631,1.23481 -3.9527,13.90126 -6.1343,16.47617 -0.9872,1.16529 -2.5517,2.68958 -3.4766,3.3873 -0.9249,0.69773 -1.8341,2.27713 -2.0205,3.5098 -0.3308,2.18773 -0.356,2.18155 -1.0548,-0.2588 z m 50.9236,0.33333 c -0.3667,-0.36666 -0.6667,-8.45254 -0.6667,-17.96861 0,-14.47585 -0.2303,-17.21359 -1.4097,-16.76101 -0.8824,0.3386 -1.6576,-0.3277 -2.0727,-1.78139 -0.3647,-1.27728 -2.6968,-4.14765 -5.1823,-6.37861 l -4.5192,-4.05628 6.3391,-2.4843 c 5.3984,-2.11562 6.4334,-2.92351 6.9737,-5.44372 0.349,-1.62768 0.6877,-2.39691 0.7528,-1.70941 0.065,0.6875 0.7452,1.25 1.5113,1.25 1.5497,0 2.607,2.10827 2.607,5.19842 0,1.55356 -0.4809,1.90909 -2.0331,1.50317 -2.0095,-0.52549 -2.0298,-0.24194 -1.75,24.38411 0.1557,13.70369 0.2456,24.91545 0.1998,24.91505 -0.046,-4.1e-4 -0.3834,-0.30075 -0.75,-0.66742 z m -1.3429,-42.12507 c 0.2851,0.71046 0.5538,-0.81845 0.5973,-3.39756 l 0.079,-4.6893 -4.5,1.5333 c -2.475,0.84332 -4.5,1.90347 -4.5,2.3559 0,1.67165 5.4651,4.84832 6.6496,3.86522 0.7643,-0.63428 1.3315,-0.52165 1.6742,0.33244 z m -6.3238,32.23272 c 0,-0.85746 0.45,-1.2809 1,-0.94098 0.55,0.33992 1,1.04148 1,1.55902 0,0.51754 -0.45,0.94098 -1,0.94098 -0.55,0 -1,-0.70156 -1,-1.55902 z m 1.5,-6.44098 c -0.3399,-0.55 -1.4915,-1 -2.559,-1 -1.0676,0 -1.941,-0.43886 -1.941,-0.97525 0,-0.63182 0.9099,-0.6293 2.5839,0.007 1.4212,0.54033 2.9962,0.72763 3.5,0.41624 0.5039,-0.31125 0.9161,0.13553 0.9161,0.99299 0,1.74636 -1.5517,2.09334 -2.5,0.55902 z m 5.8535,-62 c 0.072,-14.63837 0.1164,-15.06147 0.3937,-3.75 0.1719,7.0125 0.7118,12.75 1.1998,12.75 1.9745,0 10.4635,-4.17917 11.5741,-5.69797 1.8401,-2.51653 4.6805,-0.90172 4.2959,2.44228 -0.2391,2.07858 -0.8084,2.70065 -2.317,2.53171 -1.1,-0.1232 -4.7911,0.73998 -8.2025,1.91815 -4.5452,1.56978 -6.3124,2.6984 -6.6138,4.22399 -0.2262,1.14501 -0.3748,-5.34316 -0.3302,-14.41816 z m -31.5547,11.95697 c -3.989,-2.10666 -9.2493,-8.91944 -10.3871,-13.4526 -1.03,-4.10405 0.8523,-2.47028 4.4034,3.82206 1.6533,2.9295 4.1597,6.08227 5.5697,7.00616 5.9972,3.92951 15.8674,1.26563 20.3373,-5.48888 1.399,-2.11404 2.9454,-3.84371 3.4365,-3.84371 1.6265,0 -1.9968,5.65074 -5.7186,8.91854 -6.3231,5.55179 -11.269,6.40365 -17.6412,3.03843 z m -3.3876,-26.45473 c -0.9097,-3.62445 0.1942,-5.69728 2.8343,-5.32238 2.5997,0.36916 3.5991,4.09755 1.7088,6.37518 -1.8245,2.19846 -3.8446,1.73035 -4.5431,-1.0528 z m 19.9784,-0.0303 c -1.5378,-2.34699 -1.551,-2.73906 -0.1399,-4.15019 2.0734,-2.07341 3.7503,-0.87586 3.7503,2.6783 0,3.94632 -1.5697,4.58628 -3.6104,1.47189 z m 8.8604,-24.16122 c 0.9625,-0.25152 2.5375,-0.25152 3.5,0 0.9625,0.25153 0.175,0.45733 -1.75,0.45733 -1.925,0 -2.7125,-0.2058 -1.75,-0.45733 z m -15.75,-1.25582 c -1.1,-0.44252 -2.414,-0.56207 -2.9199,-0.26567 -0.506,0.2964 -0.6561,-0.0974 -0.3335,-0.87514 0.3226,-0.77772 2.4568,-5.84175 4.7426,-11.2534 2.2859,-5.41165 3.9181,-10.45974 3.6272,-11.21798 -0.696,-1.8137 0.9052,-2.72926 3.3925,-1.93982 3.4216,1.08596 2.2598,4.21497 -1.3332,3.5908 -0.4534,-0.0788 -0.5226,0.34512 -0.1537,0.94194 0.9391,1.51954 -1.5266,7.07963 -2.7926,6.2972 -0.6206,-0.38357 -0.7361,-0.15266 -0.2871,0.57389 0.4133,0.66862 -0.2235,3.48185 -1.415,6.25161 -1.1916,2.76975 -1.9671,5.23524 -1.7235,5.47885 0.6171,0.61712 8.6962,-9.16182 8.6962,-10.52591 0,-1.71226 3.7078,-1.31509 4.393,0.47057 0.8499,2.21467 0.7854,2.41821 -0.7656,2.41821 -0.755,0 -3.3113,2.10311 -5.6806,4.67357 -3.9181,4.25062 -4.1333,4.742 -2.3774,5.42971 1.6716,0.65472 1.5952,0.75615 -0.5694,0.75615 -1.375,0 -3.4,-0.36206 -4.5,-0.80458 z m 0.4694,-5.55485 c 0,-0.55 -0.4362,-0.325 -0.9694,0.5 -0.5332,0.825 -0.9694,1.95 -0.9694,2.5 0,0.55 0.4362,0.325 0.9694,-0.5 0.5332,-0.825 0.9694,-1.95 0.9694,-2.5 z m -15.0683,4.83977 c -1.3514,-0.36193 -1.7064,-3.0922 -2.2931,-17.634 -0.3818,-9.46317 -1.1248,-17.35577 -1.6511,-17.5391 -0.5263,-0.18334 -0.9569,-1.19584 -0.9569,-2.25 0,-1.45442 0.7093,-1.91667 2.941,-1.91667 3.2778,0 4.729,1.4596 3.275,3.29381 -1.2512,1.57831 -2.2633,18.70619 -1.1053,18.70619 0.4891,0 0.8893,3.79784 0.8893,8.43964 l 0,8.43963 3.75,0.39226 3.75,0.39226 -3.5,0.0521 c -1.925,0.0287 -4.2195,-0.1406 -5.0989,-0.37612 z m -0.2118,-13.08977 c -0.2515,-0.9625 -0.4573,-0.175 -0.4573,1.75 0,1.925 0.2058,2.7125 0.4573,1.75 0.2516,-0.9625 0.2516,-2.5375 0,-3.5 z m -9.9393,12.0266 c 1.7875,-0.22182 3.2401,-0.71231 3.2281,-1.08996 -0.1001,-3.14079 -6.1196,-23.65605 -7.123,-24.27616 -0.9128,-0.56416 -0.4781,-1.1033 1.4939,-1.85306 3.765,-1.43147 3.966,-1.37015 3.3412,1.0191 -0.2986,1.14209 0.7739,7.46934 2.3834,14.06056 1.6095,6.59121 2.9264,12.18177 2.9264,12.42347 0,0.2417 -2.1375,0.36743 -4.75,0.27941 -3.651,-0.12301 -3.998,-0.25335 -1.5,-0.56336 z m -9.7484,-7.0266 c -1.2476,-3.7125 -2.7709,-7.0875 -3.385,-7.5 -0.78,-0.52392 -0.6644,-1.04683 0.3834,-1.73469 2.2533,-1.47918 4.2963,-1.22991 3.6533,0.44575 -0.3083,0.80358 0.5167,4.62858 1.8335,8.5 1.7804,5.23474 2.0594,7.03894 1.0886,7.03894 -0.721,0 -2.3211,-3.02208 -3.5738,-6.75 z"
         id="path6523"
         inkscape:connector-curvature="0" />
    </g>
    <text
       xml:space="preserve"
       style="font-style:normal;font-variant:normal;font-weight:normal;font-stretch:normal;font-size:180px;line-height:125%;font-family:Griffo;-inkscape-font-specification:Griffo;text-align:start;letter-spacing:0px;word-spacing:0px;writing-mode:lr-tb;text-anchor:start;fill:#000000;fill-opacity:1;stroke:none;stroke-width:1px;stroke-linecap:butt;stroke-linejoin:miter;stroke-opacity:1"
       x="-255.30142"
       y="1233.9358"
       id="text4157-4"
       sodipodi:linespacing="125%"><tspan
         sodipodi:role="line"
         id="tspan4159-7"
         x="-255.30142"
         y="1233.9358"
         style="font-style:normal;font-variant:normal;font-weight:bold;font-stretch:normal;font-family:'Open Sans';-inkscape-font-specification:'Open Sans Bold'" /></text>
    <rect
       style="opacity:1;fill:none;fill-opacity:1;fill-rule:nonzero;stroke:none;stroke-width:3.5;stroke-linecap:round;stroke-linejoin:round;stroke-miterlimit:4;stroke-dasharray:none;stroke-dashoffset:263;stroke-opacity:1"
       id="rect4950"
       width="720"
       height="720"
       x="1902.1588"
       y="-610.18689" />
    <g
       id="g4178"
       transform="matrix(0.24999969,0,0,0.24999969,1406.6199,-492.14024)">
      <path
         inkscape:connector-curvature="0"
         id="path4967"
         style="font-style:normal;font-variant:normal;font-weight:bold;font-stretch:normal;font-size:28px;line-height:125%;font-family:'Open Sans';-inkscape-font-specification:'Open Sans Bold';text-align:start;letter-spacing:0px;word-spacing:0px;writing-mode:lr-tb;text-anchor:start;display:inline;fill:#e91e63;fill-opacity:1;stroke:none"
         d="m 2089.3617,-250.32005 c 0,9.7944 1.5743,17.19855 4.7232,22.2132 3.2072,5.01405 8.3972,7.52175 15.5697,7.52175 7.1144,0 12.2171,-2.478 15.3078,-7.4331 3.149,-5.0154 4.7234,-12.4488 4.7235,-22.30185 -10e-5,-9.7938 -1.5745,-17.13855 -4.7235,-22.0353 -3.1494,-4.8966 -8.31,-7.34565 -15.4824,-7.34565 -7.1146,0 -12.246,2.44905 -15.3951,7.34565 -3.1489,4.83765 -4.7232,12.1824 -4.7232,22.0353 m 67.6149,0 c -10e-5,16.1061 -4.1985,28.70235 -12.5956,37.78815 -8.3976,9.0861 -20.0891,13.6281 -35.076,13.6281 -9.3884,0 -17.6693,-2.064 -24.8417,-6.1941 -7.1727,-4.18965 -12.6831,-10.17705 -16.5324,-17.9652 -3.8485,-7.7874 -5.7729,-16.8732 -5.7729,-27.25695 0,-16.1646 4.1691,-28.7313 12.5081,-37.6995 8.3392,-8.9676 20.0605,-13.45155 35.1634,-13.45155 9.389,0 17.669,2.06475 24.8424,6.19485 7.1724,4.1301 12.683,10.059 16.5318,17.7882 3.8484,7.72875 5.7728,16.7844 5.7729,27.168"
         inkscape:export-filename="/Users/lucacorsato/Documents/o{s}d/o{s}d_semplice.png"
         inkscape:export-xdpi="300"
         inkscape:export-ydpi="300" />
      <path
         d="m 2407.6652,-198.9035 c -11.4881,0 -20.5263,-4.5132 -27.116,-13.5396 -6.5311,-9.02625 -9.7965,-21.5337 -9.7965,-37.52205 0,-16.224 3.3234,-28.84935 9.9714,-37.8753 6.7061,-9.08595 15.9194,-13.62885 27.6407,-13.62885 12.304,0 21.6928,4.8378 28.1652,14.5131 l 0.8745,0 c -1.341,-7.3743 -2.0117,-13.953 -2.0115,-19.734 l 0,-31.68195 26.7655,0 0,137.6994 -20.4681,0 -5.1609,-12.8316 -1.137,0 c -6.0651,9.73395 -15.3075,14.60085 -27.7282,14.60085 m 9.3592,-21.50385 c 6.8225,0 11.8085,-2.0061 14.9574,-6.0171 3.2069,-4.01235 4.9562,-10.827 5.2484,-20.44335 l 0,-2.92035 c 0,-10.61895 -1.6328,-18.2292 -4.8986,-22.83195 -3.2073,-4.6011 -8.4555,-6.9027 -15.7444,-6.9027 -5.9484,0 -10.584,2.56665 -13.9079,7.6998 -3.2656,5.0736 -4.8984,12.4776 -4.8984,22.21155 0,9.735 1.6622,17.05035 4.9859,21.9474 3.3238,4.83795 8.0761,7.2567 14.2575,7.2567"
         style="font-style:normal;font-variant:normal;font-weight:bold;font-stretch:normal;font-size:28px;line-height:125%;font-family:'Open Sans';-inkscape-font-specification:'Open Sans Bold';text-align:start;letter-spacing:0px;word-spacing:0px;writing-mode:lr-tb;text-anchor:start;display:inline;fill:#3f51b5;fill-opacity:1;stroke:none"
         id="path4969"
         inkscape:connector-curvature="0"
         inkscape:export-filename="/Users/lucacorsato/Documents/o{s}d/o{s}d_semplice.png"
         inkscape:export-xdpi="300"
         inkscape:export-ydpi="300" />
      <path
         inkscape:connector-curvature="0"
         id="path4971"
         style="font-style:normal;font-variant:normal;font-weight:normal;font-stretch:normal;font-size:56px;line-height:125%;font-family:'Liberation Serif';-inkscape-font-specification:'Liberation Serif';text-align:start;letter-spacing:0px;word-spacing:0px;writing-mode:lr-tb;text-anchor:start;display:inline;fill:#e91e63;fill-opacity:1;stroke:none"
         d="m 2240.2472,-100.18685 c -14.6948,0 -26.0079,-4.54335 -33.9381,-13.629 -7.8144,-9.08595 -11.7213,-21.88755 -11.7213,-38.4066 l 0,-52.2123 c 0,-13.8051 -3.0906,-24.13035 -9.2714,-30.9741 -6.0651,-6.96135 -15.5116,-10.6779 -28.341,-11.14995 l 0,-7.9644 c 25.0752,-0.4725 37.6124,-14.3952 37.6124,-41.7699 l 0,-52.03575 c 0,-16.63695 3.7902,-29.43855 11.371,-38.40675 7.581,-8.96715 19.01,-13.45125 34.2884,-13.45125 l 23.6173,0 0,8.319 -10.8468,0 c -10.6134,0 -18.1938,3.24495 -22.7421,9.7341 -4.4317,6.372 -6.6475,15.81105 -6.6474,28.3185 l 0,58.4067 c -1e-4,11.20995 -3.0327,20.8854 -9.0973,29.0271 -6.0644,8.02335 -14.2286,13.1556 -24.4917,15.3984 l 0,0.531 c 10.3798,2.4774 18.5439,7.728 24.4917,15.7521 6.0646,7.905 9.0972,17.5806 9.0973,29.02665 l 0,59.11455 c -1e-4,12.5073 2.2157,21.94665 6.6474,28.3191 4.5483,6.48855 12.1289,9.7335 22.7421,9.7335 l 10.8468,0 0,8.319 -23.6173,0"
         inkscape:export-filename="/Users/lucacorsato/Documents/o{s}d/o{s}d_semplice.png"
         inkscape:export-xdpi="300"
         inkscape:export-ydpi="300" />
      <path
         inkscape:connector-curvature="0"
         id="path4973"
         style="font-style:normal;font-variant:normal;font-weight:normal;font-stretch:normal;font-size:56px;line-height:125%;font-family:'Liberation Serif';-inkscape-font-specification:'Liberation Serif';text-align:start;letter-spacing:0px;word-spacing:0px;writing-mode:lr-tb;text-anchor:start;display:inline;fill:#3f51b5;fill-opacity:1;stroke:none"
         d="m 2263.8645,-100.18685 0,-8.31975 10.8461,0 c 10.6129,0 18.1351,-3.24495 22.5673,-9.7335 4.548,-6.37245 6.8228,-15.8118 6.8228,-28.3191 l 0,-59.11455 c 0,-11.44575 2.9734,-21.12105 8.9218,-29.02665 5.9478,-8.0241 14.1699,-13.2747 24.6666,-15.7521 l 0,-0.531 c -10.2633,-2.24205 -18.4276,-7.434 -24.4917,-15.5751 -6.0649,-8.142 -9.0967,-17.7579 -9.0967,-28.85025 l 0,-58.4067 c 0,-12.50745 -2.2748,-21.9465 -6.8228,-28.31865 -4.4322,-6.489 -11.9544,-9.73395 -22.5673,-9.73395 l -10.8461,0 0,-8.319 23.7915,0 c 15.1614,7.5e-4 26.5331,4.4847 34.1136,13.452 7.5803,8.9673 11.3706,21.76965 11.3706,38.406 l 0,52.03575 c 0,27.37455 12.5381,41.29755 37.6125,41.76975 l 0,7.9644 c -12.5956,0.4725 -22.0426,4.12935 -28.3401,10.9734 -6.1816,6.8439 -9.2724,17.2272 -9.2724,31.15065 l 0,52.2123 c 0,16.4013 -3.9651,29.14455 -11.8953,38.22975 -7.8144,9.20355 -19.0101,13.80585 -33.5889,13.80585 l -23.7915,0"
         inkscape:export-filename="/Users/lucacorsato/Documents/o{s}d/o{s}d_semplice.png"
         inkscape:export-xdpi="300"
         inkscape:export-ydpi="300" />
      <path
         inkscape:connector-curvature="0"
         id="path4975"
         style="font-style:normal;font-variant:normal;font-weight:bold;font-stretch:normal;font-size:medium;line-height:125%;font-family:'Open Sans';-inkscape-font-specification:'Open Sans Bold';text-align:start;letter-spacing:0px;word-spacing:0px;writing-mode:lr-tb;text-anchor:start;fill:#757575;fill-opacity:1;stroke:none"
         d="m 2298.6056,-231.5459 q 0,14.09325 -9.8324,21.4677 -9.7506,7.3743 -29.2518,7.3743 -9.9964,0 -17.0431,-1.3935 -7.0467,-1.311 -13.1919,-3.933 l 0,-20.6484 q 6.9646,3.27765 15.6501,5.48985 8.7673,2.21235 15.4042,2.21235 13.6017,0 13.6017,-7.866 0,-2.94975 -1.8025,-4.75245 -1.8027,-1.88445 -6.2273,-4.1787 -4.4248,-2.3763 -11.7991,-5.48985 -10.5699,-4.4247 -15.5682,-8.1939 -4.9163,-3.76905 -7.2105,-8.6034 -2.2124,-4.91625 -2.2124,-12.04485 0,-12.20865 9.4229,-18.8457 9.5049,-6.7188 26.8756,-6.7188 16.5513,0 32.2016,7.2105 l -7.5383,18.02625 q -6.8827,-2.94975 -12.8643,-4.83435 -5.9815,-1.8846 -12.2086,-1.8846 -11.0616,0 -11.0616,5.98155 0,3.3594 3.5232,5.8176 3.6054,2.45805 15.6501,7.2924 10.7338,4.34265 15.7321,8.11185 4.9982,3.7692 7.3743,8.68545 2.3762,4.91625 2.3762,11.7171 z" />
    </g>
    <text
       xml:space="preserve"
       style="font-style:italic;font-variant:normal;font-weight:normal;font-stretch:normal;font-size:40px;line-height:125%;font-family:ETBembo;-inkscape-font-specification:'ETBembo Italic';letter-spacing:0px;word-spacing:0px;fill:#000000;fill-opacity:1;stroke:none;stroke-width:1px;stroke-linecap:butt;stroke-linejoin:miter;stroke-opacity:1"
       x="2339.936"
       y="-565.89392"
       id="text4437"
       sodipodi:linespacing="125%"><tspan
         sodipodi:role="line"
         id="tspan4439"
         x="2339.936"
         y="-565.89392">il podcast di OSD</tspan></text>
    <rect
       style="opacity:0.75;fill:#3f51b5;fill-opacity:1;stroke:none;stroke-width:1.89999998;stroke-linecap:round;stroke-linejoin:round;stroke-miterlimit:4;stroke-dasharray:none;stroke-opacity:1"
       id="rect5222"
       width="450"
       height="150"
       x="1902.1588"
       y="-128.22102" />
    <g
       id="g5195"
       transform="matrix(0.59599759,0,0,0.59599759,777.70104,-40.3254)"
       style="fill:#f8f8f8;fill-opacity:1">
      <path
         d="m 1914.4004,-55.125606 q 0,-0.320219 0,-0.640439 0,-2.881976 2.2415,-3.010064 6.2763,-0.512351 7.0449,-1.985361 0.5123,-0.768527 0.7044,-2.881977 l 0,-5.763952 0,-22.863678 q 0,-4.226899 -0.4483,-4.931382 l -1.9213,-0.704483 q -2.4977,-0.512351 -5.1235,-1.408966 -1.6011,-0.640439 -1.6011,-2.753892 0,-2.11345 1.2168,-2.88197 9.4145,-3.52242 15.5627,-5.50778 1.1528,-0.38426 2.0494,-0.38426 2.946,0 2.946,4.41903 l 0,37.017381 q 0,4.73925 0.1281,6.404392 0.1281,2.753888 0.7045,3.266239 0.6404,0.512352 3.9067,0.512352 0.2562,0 0.5123,-0.06404 2.7539,0 3.1382,2.689844 l 0,2.369625 q 0,2.369625 -2.6899,2.369625 -0.2561,0 -0.5764,0 -3.01,-0.192132 -9.2863,-0.192132 -6.2763,0 -15.8829,0.192132 -1.9854,0 -2.6258,-3.26624 z m 6.9167,-76.340344 q 0,-3.26624 2.2416,-5.44374 2.2415,-2.17749 5.5077,-2.17749 3.3944,0 5.5719,2.17749 2.1775,2.1775 2.1775,5.57182 0,3.13816 -2.3056,5.18756 -2.3056,2.04941 -5.5718,2.04941 -3.3944,0 -5.5078,-2.11345 -2.1135,-2.11345 -2.1135,-5.2516 z"
         style="font-style:normal;font-variant:normal;font-weight:bold;font-stretch:normal;font-size:medium;line-height:85.00000238%;font-family:ETBembo;-inkscape-font-specification:'ETBembo Bold';text-align:start;letter-spacing:0px;word-spacing:0px;text-anchor:start;fill:#f8f8f8;fill-opacity:1;stroke:none;stroke-width:1px;stroke-linecap:butt;stroke-linejoin:miter;stroke-opacity:1"
         id="path4450"
         inkscape:connector-curvature="0" />
      <path
         d="m 1950.0088,-53.012156 q -0.2562,-0.512352 -0.2562,-2.11345 0,-1.601098 0.1281,-2.113449 0.8966,-1.280878 2.2416,-1.280878 l 0.6404,0 q 3.7786,0 4.8673,-1.857274 1.1528,-1.857273 1.1528,-9.862763 l 0,-17.16377 q 0,-8.389753 -0.3842,-9.542543 -0.3843,-0.512352 -4.0989,-1.216835 l -2.6258,-0.512351 q -1.9853,-0.512351 -1.7291,-3.010061 0.3202,-2.49772 1.6011,-3.01007 5.3796,-1.72918 11.3357,-4.09881 3.0101,-1.0247 4.0348,-1.28088 1.0247,-0.19213 1.7932,-0.19213 1.0888,0 1.7292,0.44831 1.0247,0.76853 1.0888,3.13815 l 0,5.50778 q 0,0.89661 0.128,1.08874 0.1281,0.128093 0.7686,-0.32021 12.0402,-8.13358 18.7648,-8.13358 15.6268,0 15.6268,23.888379 0,3.778591 -0.5764,11.335773 -0.5124,7.557182 -0.5124,11.335773 0,2.113449 0.7685,2.689845 0.8326,0.512351 3.9708,0.512351 2.1134,-0.640439 3.5224,0.896615 0.5123,0.640439 0.5123,2.241537 0,0.32022 0,0.640439 -0.1281,2.113449 -1.4089,2.753889 -0.5124,0.256175 -1.9854,0.256175 -3.1382,0 -11.9762,-0.06404 -2.946,0 -5.3157,0 -4.6752,0 -6.9807,0.06404 -1.9854,0.128088 -2.5618,-0.448307 -0.5764,-0.576395 -0.7045,-2.305581 0,-4.034767 2.2416,-4.034767 l 0.7685,0 q 3.7786,-0.256176 4.9954,-1.344922 1.2168,-1.152791 1.6011,-4.483074 0.7685,-7.236963 0.7685,-21.90302 0,-12.552608 -7.9414,-12.552608 0,0 -0.064,0 -5.1235,0 -14.4098,6.660568 l 0,27.666972 q 0,4.226898 0.9606,5.123513 0.9607,0.832571 5.4438,0.832571 1.9853,0 2.3696,2.305581 0,2.625801 -0.3843,3.458372 -0.3843,0.896614 -2.6258,1.15279 -1.9213,-0.06404 -5.0595,-0.06404 -3.0741,0 -7.4291,0.06404 -2.946,0.06404 -5.3156,0.06404 -4.7392,0 -7.237,-0.192132 -1.8572,-0.128088 -2.2415,-1.024702 z"
         style="font-style:normal;font-variant:normal;font-weight:bold;font-stretch:normal;font-size:medium;line-height:85.00000238%;font-family:ETBembo;-inkscape-font-specification:'ETBembo Bold';text-align:start;letter-spacing:0px;word-spacing:0px;text-anchor:start;fill:#f8f8f8;fill-opacity:1;stroke:none;stroke-width:1px;stroke-linecap:butt;stroke-linejoin:miter;stroke-opacity:1"
         id="path4452"
         inkscape:connector-curvature="0" />
      <path
         d="m 2018.1515,-53.012156 q -0.2561,-0.512352 -0.2561,-2.11345 0,-1.601098 0.128,-2.113449 0.8967,-1.280878 2.2416,-1.280878 l 0.6404,0 q 3.7786,0 4.8674,-1.857274 1.1527,-1.857273 1.1527,-9.862763 l 0,-17.16377 q 0,-8.389753 -0.3842,-9.542543 -0.3843,-0.512352 -4.0988,-1.216835 l -2.6258,-0.512351 q -1.9854,-0.512351 -1.7292,-3.010061 0.3202,-2.49772 1.6011,-3.01007 5.3797,-1.72918 11.3358,-4.09881 3.01,-1.0247 4.0347,-1.28088 1.0247,-0.19213 1.7933,-0.19213 1.0887,0 1.7291,0.44831 1.0247,0.76853 1.0888,3.13815 l 0,5.50778 q 0,0.89661 0.1281,1.08874 0.1281,0.128093 0.7685,-0.32021 12.0403,-8.13358 18.7649,-8.13358 15.6267,0 15.6267,23.888379 0,3.778591 -0.5764,11.335773 -0.5124,7.557182 -0.5124,11.335773 0,2.113449 0.7686,2.689845 0.8325,0.512351 3.9707,0.512351 2.1134,-0.640439 3.5224,0.896615 0.5124,0.640439 0.5124,2.241537 0,0.32022 0,0.640439 -0.1281,2.113449 -1.409,2.753889 -0.5124,0.256175 -1.9854,0.256175 -3.1381,0 -11.9762,-0.06404 -2.946,0 -5.3156,0 -4.6752,0 -6.9808,0.06404 -1.9854,0.128088 -2.5618,-0.448307 -0.5764,-0.576395 -0.7045,-2.305581 0,-4.034767 2.2416,-4.034767 l 0.7685,0 q 3.7786,-0.256176 4.9954,-1.344922 1.2169,-1.152791 1.6011,-4.483074 0.7686,-7.236963 0.7686,-21.90302 0,-12.552608 -7.9415,-12.552608 0,0 -0.064,0 -5.1235,0 -14.4099,6.660568 l 0,27.666972 q 0,4.226898 0.9606,5.123513 0.9607,0.832571 5.4438,0.832571 1.9853,0 2.3696,2.305581 0,2.625801 -0.3843,3.458372 -0.3842,0.896614 -2.6258,1.15279 -1.9213,-0.06404 -5.0594,-0.06404 -3.0741,0 -7.4291,0.06404 -2.946,0.06404 -5.3157,0.06404 -4.7392,0 -7.2369,-0.192132 -1.8573,-0.128088 -2.2416,-1.024702 z"
         style="font-style:normal;font-variant:normal;font-weight:bold;font-stretch:normal;font-size:medium;line-height:85.00000238%;font-family:ETBembo;-inkscape-font-specification:'ETBembo Bold';text-align:start;letter-spacing:0px;word-spacing:0px;text-anchor:start;fill:#f8f8f8;fill-opacity:1;stroke:none;stroke-width:1px;stroke-linecap:butt;stroke-linejoin:miter;stroke-opacity:1"
         id="path4454"
         inkscape:connector-curvature="0" />
      <path
         d="m 2086.5504,-79.526338 q 0,-12.488564 8.71,-20.814272 8.71,-8.32571 21.5828,-8.32571 13.0009,0 21.839,8.4538 8.838,8.38975 8.838,20.81427 0,12.168344 -8.774,20.686185 -8.774,8.453797 -21.5187,8.453797 -13.0009,0 -21.839,-8.453797 -8.8381,-8.453797 -8.8381,-20.814273 z m 14.1537,-3.778591 q 0,11.015554 5.3797,18.380604 5.3797,7.301007 12.7448,7.301007 5.892,0 9.9908,-5.635865 4.1629,-5.635865 4.1629,-14.153706 0,-10.375114 -5.3157,-17.163769 -5.3156,-6.852702 -12.6807,-6.852702 -6.0201,0 -10.1829,5.123516 -4.0989,5.123513 -4.0989,13.000915 z"
         style="font-style:normal;font-variant:normal;font-weight:bold;font-stretch:normal;font-size:medium;line-height:85.00000238%;font-family:ETBembo;-inkscape-font-specification:'ETBembo Bold';text-align:start;letter-spacing:0px;word-spacing:0px;text-anchor:start;fill:#f8f8f8;fill-opacity:1;stroke:none;stroke-width:1px;stroke-linecap:butt;stroke-linejoin:miter;stroke-opacity:1"
         id="path4456"
         inkscape:connector-curvature="0" />
      <path
         d="m 2150.6584,-102.96641 q -0.1281,-0.51235 -0.1281,-0.89662 0,-1.28087 0.8326,-2.30558 0.3842,-1.0247 1.2809,-1.0247 0.3842,-0.064 2.3055,-0.064 2.882,0 9.0943,0.12808 4.419,0.0641 7.9414,0.0641 4.6752,0 7.6853,-0.12809 0.8966,0 1.473,1.08875 0.6404,1.0247 0.6404,2.24153 0,1.15279 -0.7044,2.1775 -0.6405,1.0247 -1.6652,1.0247 l -1.2168,0 q -3.3943,0 -4.1629,0.25618 -0.7685,0.25617 -0.7685,1.088742 0,1.15279 5.0595,13.321134 5.1235,12.104301 7.1088,16.459287 0.2562,0.640439 0.5124,0.768527 0.2562,0.128088 0.3843,-0.192132 0.128,-0.320219 0.4483,-0.960658 0.3842,-0.896615 4.8033,-11.463862 4.483,-10.63129 6.3403,-14.537969 0.3843,-1.601098 -0.064,-2.561756 -0.3843,-0.960659 -2.1775,-1.408967 -1.7292,-0.512346 -2.818,-0.640436 -1.0247,-0.12809 -1.9213,-0.12809 -1.7292,0 -2.1134,-1.15279 -0.7686,-1.85727 -0.1281,-3.97072 0.3842,-1.40897 1.8573,-1.40897 0.064,0 0.128,0 5.1876,0.12809 10.8875,0.12809 5.6999,0 11.9122,-0.12809 2.3696,0 2.3696,3.26624 -0.2562,2.88198 -1.9854,3.13815 -3.5224,0.38427 -5.2516,2.43367 -1.6651,2.049406 -5.0594,9.926808 l -15.7548,35.288198 q -1.1528,2.113449 -2.2416,2.177493 -0.4483,0.06404 -1.3449,0.06404 -0.3843,0 -1.0247,0 -1.7932,-0.06404 -2.3696,-0.32022 -1.0247,-0.384263 -2.0494,-2.497713 l -16.6514,-37.337603 q -0.6405,-1.47301 -1.4731,-3.26624 -0.7685,-1.857273 -1.0247,-2.369625 -0.2561,-0.512351 -0.5764,-0.960658 -0.2561,-0.512352 -0.5763,-0.896615 -0.3203,-0.384264 -0.5124,-0.640439 -0.1921,-0.256176 -0.6404,-0.448308 -0.4483,-0.192132 -0.7045,-0.320219 -0.1922,-0.192129 -0.7685,-0.256169 -0.5764,-0.0641 -0.7686,-0.12809 -0.1921,-0.064 -1.0247,-0.19213 -0.7685,-0.12809 -1.0247,-0.12809 -1.9853,-0.38426 -2.3696,-2.30558 z"
         style="font-style:normal;font-variant:normal;font-weight:bold;font-stretch:normal;font-size:medium;line-height:85.00000238%;font-family:ETBembo;-inkscape-font-specification:'ETBembo Bold';text-align:start;letter-spacing:0px;word-spacing:0px;text-anchor:start;fill:#f8f8f8;fill-opacity:1;stroke:none;stroke-width:1px;stroke-linecap:butt;stroke-linejoin:miter;stroke-opacity:1"
         id="path4458"
         inkscape:connector-curvature="0" />
      <path
         d="m 2219.8899,-63.259183 q 0,-10.247027 14.538,-14.025618 4.0347,-1.024703 11.72,-4.483074 0.6404,-0.640439 0.6404,-1.152791 l -0.1281,-8.005489 q -0.128,-9.990855 -7.1088,-9.990855 -1.7292,0 -3.8427,1.537058 -2.0494,1.47301 -2.0494,2.817932 0,1.985362 0.5124,3.26624 -1.0247,1.15279 -4.291,2.753888 -3.2662,1.601098 -4.483,1.985362 -1.2169,0.384263 -2.1135,0.384263 -2.6258,0 -2.6258,-3.522415 0,-4.995426 8.5819,-11.720038 7.1089,-5.37969 12.8088,-5.37969 4.355,0 8.6459,2.1775 4.355,2.17749 6.7246,5.57182 1.7292,2.369621 2.1135,4.354982 0.3842,1.921318 0.3842,8.00549 l 0,22.799634 q 0,2.241537 0.1922,3.330284 0.1921,1.024703 0.4483,1.280878 0.2561,0.256176 0.7685,0.256176 2.1134,0 4.4831,-1.985361 0.8966,-0.64044 2.1134,-0.64044 1.8573,0.256176 2.2416,2.049406 0.128,0.640439 0.128,1.216834 0,1.024703 -0.4483,1.857274 -8.9021,7.877401 -14.666,7.877401 -6.0201,-0.06404 -7.6212,-6.340347 l 0,0.128088 q -4.6112,3.522415 -7.3651,4.867337 -2.6898,1.344922 -6.5325,1.344922 -5.892,0 -9.8627,-3.522415 -3.9067,-3.586459 -3.9067,-9.094236 z m 12.6166,-1.601098 q 0,2.369625 1.5371,3.970723 1.6011,1.537054 4.0988,1.537054 1.6011,0 4.6752,-1.921318 3.0741,-1.985361 3.8426,-3.586459 l 0,-8.645929 q 0,-0.384263 -0.2561,-0.768527 -0.1922,-0.256175 -0.3843,-0.256175 l -0.1281,0 q -1.8573,0.896614 -7.365,3.266239 -6.0202,2.241537 -6.0202,6.404392 z"
         style="font-style:normal;font-variant:normal;font-weight:bold;font-stretch:normal;font-size:medium;line-height:85.00000238%;font-family:ETBembo;-inkscape-font-specification:'ETBembo Bold';text-align:start;letter-spacing:0px;word-spacing:0px;text-anchor:start;fill:#f8f8f8;fill-opacity:1;stroke:none;stroke-width:1px;stroke-linecap:butt;stroke-linejoin:miter;stroke-opacity:1"
         id="path4460"
         inkscape:connector-curvature="0" />
      <path
         d="m 2273.6227,-54.036859 q -0.1281,-0.640439 -0.1921,-1.152791 0,-1.216834 0.7685,-2.049405 l 0.6404,-0.640439 29.5243,-39.515097 q 0.7685,-1.024702 0,-1.024702 -2.7539,0 -8.0695,0.192131 -5.3157,0.192132 -8.1977,0.192132 -2.1134,0 -3.2022,1.729186 -1.0247,1.665142 -2.8179,9.030192 -0.3843,0.640439 -1.3449,1.088747 -0.1281,0 -0.2562,0 -1.0247,0 -1.7292,-0.06404 -0.6404,-0.06404 -1.6011,-0.256176 -0.8966,-0.256176 -1.2809,-0.768527 -0.3842,-0.512351 -0.2561,-1.280878 0,-0.384264 0.1281,-0.704483 1.9853,-12.488571 3.5864,-18.828911 0.2562,-1.47301 0.8966,-1.6011 0.1281,-0.12809 0.3843,-0.12809 0.9607,-0.51235 2.3696,-0.51235 0.4483,0 0.8966,0.064 1.9854,0.19213 1.9854,1.53706 0,1.28087 0.6404,1.60109 0.6405,0.32022 3.3944,0.32022 16.0109,-0.25617 23.6962,-0.32022 2.5618,0 4.1629,0.0641 0.2561,0 1.2808,-0.0641 1.0888,-0.064 1.4731,0 0.3842,0.0641 1.0887,0.32022 0.7045,0.25618 1.2809,0.89662 0.3202,1.08874 0.3202,2.0494 0,1.40897 -0.7685,2.30558 -8.774,11.271738 -29.076,39.899369 -0.3842,0.640439 -0.1921,0.768527 0.1921,0.128088 1.0888,0.128088 3.3302,0.06404 7.6852,0.06404 4.4191,0 9.8628,-0.06404 2.4977,-0.128088 3.2022,-1.088747 0.7685,-1.024703 3.2662,-6.788655 0.2562,-0.384264 0.3843,-0.768527 0.1281,-0.384264 0.2562,-0.448308 0.128,-0.06404 0.7685,-0.256175 0.8326,-0.128088 1.6011,-0.128088 1.7292,0 2.7539,0.832571 0.5764,0.576395 0.5764,1.216834 0,0.384264 -0.1922,0.704483 l -5.1235,13.641355 q -0.6404,1.15279 -2.7539,1.857273 l -41.5645,0 q -0.8325,0 -1.3449,-2.049405 z"
         style="font-style:normal;font-variant:normal;font-weight:bold;font-stretch:normal;font-size:medium;line-height:85.00000238%;font-family:ETBembo;-inkscape-font-specification:'ETBembo Bold';text-align:start;letter-spacing:0px;word-spacing:0px;text-anchor:start;fill:#f8f8f8;fill-opacity:1;stroke:none;stroke-width:1px;stroke-linecap:butt;stroke-linejoin:miter;stroke-opacity:1"
         id="path4462"
         inkscape:connector-curvature="0" />
      <path
         d="m 2328.3803,-55.125606 q 0,-0.320219 0,-0.640439 0,-2.881976 2.2415,-3.010064 6.2763,-0.512351 7.0448,-1.985361 0.5124,-0.768527 0.7045,-2.881977 l 0,-5.763952 0,-22.863678 q 0,-4.226899 -0.4483,-4.931382 l -1.9213,-0.704483 q -2.4977,-0.512351 -5.1235,-1.408966 -1.6011,-0.640439 -1.6011,-2.753892 0,-2.11345 1.2168,-2.88197 9.4145,-3.52242 15.5627,-5.50778 1.1528,-0.38426 2.0494,-0.38426 2.946,0 2.946,4.41903 l 0,37.017381 q 0,4.73925 0.1281,6.404392 0.1281,2.753888 0.7045,3.266239 0.6404,0.512352 3.9067,0.512352 0.2561,0 0.5123,-0.06404 2.7539,0 3.1382,2.689844 l 0,2.369625 q 0,2.369625 -2.6899,2.369625 -0.2561,0 -0.5764,0 -3.01,-0.192132 -9.2863,-0.192132 -6.2763,0 -15.8829,0.192132 -1.9854,0 -2.6258,-3.26624 z m 6.9167,-76.340344 q 0,-3.26624 2.2416,-5.44374 2.2415,-2.17749 5.5077,-2.17749 3.3944,0 5.5719,2.17749 2.1774,2.1775 2.1774,5.57182 0,3.13816 -2.3055,5.18756 -2.3056,2.04941 -5.5719,2.04941 -3.3943,0 -5.5077,-2.11345 -2.1135,-2.11345 -2.1135,-5.2516 z"
         style="font-style:normal;font-variant:normal;font-weight:bold;font-stretch:normal;font-size:medium;line-height:85.00000238%;font-family:ETBembo;-inkscape-font-specification:'ETBembo Bold';text-align:start;letter-spacing:0px;word-spacing:0px;text-anchor:start;fill:#f8f8f8;fill-opacity:1;stroke:none;stroke-width:1px;stroke-linecap:butt;stroke-linejoin:miter;stroke-opacity:1"
         id="path4464"
         inkscape:connector-curvature="0" />
      <path
         d="m 2364.2448,-79.526338 q 0,-12.488564 8.71,-20.814272 8.71,-8.32571 21.5828,-8.32571 13.0009,0 21.839,8.4538 8.8381,8.38975 8.8381,20.81427 0,12.168344 -8.7741,20.686185 -8.774,8.453797 -21.5187,8.453797 -13.0009,0 -21.839,-8.453797 -8.8381,-8.453797 -8.8381,-20.814273 z m 14.1538,-3.778591 q 0,11.015554 5.3796,18.380604 5.3797,7.301007 12.7448,7.301007 5.892,0 9.9908,-5.635865 4.1629,-5.635865 4.1629,-14.153706 0,-10.375114 -5.3157,-17.163769 -5.3156,-6.852702 -12.6807,-6.852702 -6.0201,0 -10.1829,5.123516 -4.0988,5.123513 -4.0988,13.000915 z"
         style="font-style:normal;font-variant:normal;font-weight:bold;font-stretch:normal;font-size:medium;line-height:85.00000238%;font-family:ETBembo;-inkscape-font-specification:'ETBembo Bold';text-align:start;letter-spacing:0px;word-spacing:0px;text-anchor:start;fill:#f8f8f8;fill-opacity:1;stroke:none;stroke-width:1px;stroke-linecap:butt;stroke-linejoin:miter;stroke-opacity:1"
         id="path4466"
         inkscape:connector-curvature="0" />
      <path
         d="m 2429.8258,-53.012156 q -0.2562,-0.512352 -0.2562,-2.11345 0,-1.601098 0.1281,-2.113449 0.8966,-1.280878 2.2416,-1.280878 l 0.6404,0 q 3.7786,0 4.8673,-1.857274 1.1528,-1.857273 1.1528,-9.862763 l 0,-17.16377 q 0,-8.389753 -0.3842,-9.542543 -0.3843,-0.512352 -4.0989,-1.216835 l -2.6258,-0.512351 q -1.9853,-0.512351 -1.7291,-3.010061 0.3202,-2.49772 1.6011,-3.01007 5.3796,-1.72918 11.3357,-4.09881 3.0101,-1.0247 4.0348,-1.28088 1.0247,-0.19213 1.7932,-0.19213 1.0888,0 1.7292,0.44831 1.0247,0.76853 1.0888,3.13815 l 0,5.50778 q 0,0.89661 0.128,1.08874 0.1281,0.128093 0.7686,-0.32021 12.0402,-8.13358 18.7648,-8.13358 15.6268,0 15.6268,23.888379 0,3.778591 -0.5764,11.335773 -0.5124,7.557182 -0.5124,11.335773 0,2.113449 0.7685,2.689845 0.8326,0.512351 3.9708,0.512351 2.1134,-0.640439 3.5224,0.896615 0.5123,0.640439 0.5123,2.241537 0,0.32022 0,0.640439 -0.1281,2.113449 -1.4089,2.753889 -0.5124,0.256175 -1.9854,0.256175 -3.1382,0 -11.9762,-0.06404 -2.946,0 -5.3157,0 -4.6752,0 -6.9807,0.06404 -1.9854,0.128088 -2.5618,-0.448307 -0.5764,-0.576395 -0.7045,-2.305581 0,-4.034767 2.2416,-4.034767 l 0.7685,0 q 3.7786,-0.256176 4.9954,-1.344922 1.2168,-1.152791 1.6011,-4.483074 0.7685,-7.236963 0.7685,-21.90302 0,-12.552608 -7.9414,-12.552608 0,0 -0.064,0 -5.1235,0 -14.4098,6.660568 l 0,27.666972 q 0,4.226898 0.9606,5.123513 0.9607,0.832571 5.4437,0.832571 1.9854,0 2.3697,2.305581 0,2.625801 -0.3843,3.458372 -0.3843,0.896614 -2.6258,1.15279 -1.9213,-0.06404 -5.0595,-0.06404 -3.0741,0 -7.4291,0.06404 -2.946,0.06404 -5.3156,0.06404 -4.7392,0 -7.237,-0.192132 -1.8572,-0.128088 -2.2415,-1.024702 z"
         style="font-style:normal;font-variant:normal;font-weight:bold;font-stretch:normal;font-size:medium;line-height:85.00000238%;font-family:ETBembo;-inkscape-font-specification:'ETBembo Bold';text-align:start;letter-spacing:0px;word-spacing:0px;text-anchor:start;fill:#f8f8f8;fill-opacity:1;stroke:none;stroke-width:1px;stroke-linecap:butt;stroke-linejoin:miter;stroke-opacity:1"
         id="path4468"
         inkscape:connector-curvature="0" />
      <path
         d="m 2498.3528,-78.757811 q 0,-12.744739 7.8774,-21.262579 7.8774,-8.51784 19.7896,-8.51784 14.0256,0 19.5334,11.848122 2.1134,4.226899 3.5865,6.020128 0.4483,0.896615 0.4483,1.79323 0,0.768527 -0.3203,1.537054 -0.6404,1.665142 -2.8819,1.79323 -4.8033,0.192132 -13.1931,0.192132 -8.3897,0 -20.3019,-0.192132 -1.8573,0 -1.7932,3.650503 0,9.15828 4.9313,15.114364 4.9955,5.892041 12.4886,5.892041 8.2617,0 14.7942,-7.621226 1.2808,-1.47301 3.3302,-1.024703 1.2809,0.256176 2.0494,1.857274 0.8326,1.537054 0,2.817932 -13.0009,14.537969 -25.2973,14.602013 -10.7594,0 -17.9323,-8.325709 -7.1089,-8.325709 -7.1089,-20.173834 z m 14.2818,-13.89753 q 0.2562,0.384264 1.7292,0.384264 l 17.6761,0 q 0.7045,0 1.2169,-0.256176 0.3842,-0.192132 0.3842,-0.512351 0,-8.902106 -10.5032,-8.902106 -6.7886,0 -10.5032,9.286369 z"
         style="font-style:normal;font-variant:normal;font-weight:bold;font-stretch:normal;font-size:medium;line-height:85.00000238%;font-family:ETBembo;-inkscape-font-specification:'ETBembo Bold';text-align:start;letter-spacing:0px;word-spacing:0px;text-anchor:start;fill:#f8f8f8;fill-opacity:1;stroke:none;stroke-width:1px;stroke-linecap:butt;stroke-linejoin:miter;stroke-opacity:1"
         id="path4470"
         inkscape:connector-curvature="0" />
      <path
         d="m 1914.4004,56.362048 q 0,-0.32022 0,-0.640439 0,-2.881977 2.2415,-3.010065 6.2763,-0.512351 7.0449,-1.985361 0.5123,-0.768527 0.7044,-2.881976 l 0,-5.763953 0,-22.863678 q 0,-4.226899 -0.4483,-4.931382 l -1.9213,-0.704483 q -2.4977,-0.512351 -5.1235,-1.408966 -1.6011,-0.640439 -1.6011,-2.7538883 0,-2.1134492 1.2168,-2.8819762 9.4145,-3.5224154 15.5627,-5.5077769 1.1528,-0.38426347 2.0494,-0.38426347 2.946,0 2.946,4.41903027 l 0,37.0173836 q 0,4.73925 0.1281,6.404392 0.1281,2.753888 0.7045,3.26624 0.6404,0.512351 3.9067,0.512351 0.2562,0 0.5123,-0.06404 2.7539,0 3.1382,2.689845 l 0,2.369625 q 0,2.369624 -2.6899,2.369624 -0.2561,0 -0.5764,0 -3.01,-0.192131 -9.2863,-0.192131 -6.2763,0 -15.8829,0.192131 -1.9854,0 -2.6258,-3.266239 z m 6.9167,-76.340349 q 0,-3.26624 2.2416,-5.443733 2.2415,-2.177493 5.5077,-2.177493 3.3944,0 5.5719,2.177493 2.1775,2.177493 2.1775,5.571821 0,3.138152 -2.3056,5.187557 -2.3056,2.049405 -5.5718,2.049405 -3.3944,0 -5.5078,-2.113449 -2.1135,-2.113449 -2.1135,-5.251601 z"
         style="font-style:normal;font-variant:normal;font-weight:bold;font-stretch:normal;font-size:medium;line-height:85.00000238%;font-family:ETBembo;-inkscape-font-specification:'ETBembo Bold';text-align:start;letter-spacing:0px;word-spacing:0px;text-anchor:start;fill:#f8f8f8;fill-opacity:1;stroke:none;stroke-width:1px;stroke-linecap:butt;stroke-linejoin:miter;stroke-opacity:1"
         id="path4472"
         inkscape:connector-curvature="0" />
      <path
         d="m 1949.2403,55.977784 q 0.1281,-1.601098 0.6404,-2.369625 0.3843,-0.384263 1.5371,-0.640439 1.2808,-0.256176 2.1134,-0.256176 3.5224,-0.128087 4.419,-1.857273 0.9607,-1.729186 0.9607,-9.4785 l 0,-17.804209 q 0,-1.985361 0,-3.586459 0,-1.665142 0,-2.561757 0,-0.960658 -0.064,-1.537054 -0.064,-0.576395 -0.064,-0.832571 l 0,-0.256175 q -0.5123,-0.768527 -4.1628,-1.344923 l -3.0741,-0.384263 q -1.9854,-0.256176 -1.9854,-2.305581 0,-0.9606588 0.4483,-2.305581 0.2562,-0.8966149 1.1528,-1.2808784 4.9954,-2.3696249 17.2278,-5.5077768 0.5764,-0.1280878 1.0247,-0.1280878 2.6258,0 2.6258,3.6505032 l 0,5.1235138 q 0,0.896614 0.7685,0.384263 11.5279,-7.7493139 19.7896,-7.7493139 9.9909,0 13.3852,9.0942359 0,0.128088 0.5764,-0.128088 4.2269,-3.0100636 6.4684,-4.4190298 2.3056,-1.4730101 6.3404,-3.0100641 4.0988,-1.537054 7.7493,-1.537054 9.6066,0 13.3852,8.2616649 1.9853,4.73925 1.9853,17.996341 0,3.394328 -0.2562,9.990851 -0.2561,6.53248 -0.2561,9.798719 0,2.369625 1.0247,2.94602 1.0247,0.512352 6.0201,0.512352 2.4977,0 3.2662,0.512351 1.0247,0.640439 1.0247,2.881976 0,0.576396 -0.064,1.280879 0,2.497712 -2.4977,2.497712 -3.5865,-0.128087 -10.7594,-0.128087 -7.1729,0 -17.8682,0.128087 -1.7292,0 -2.3697,-1.024702 -0.3842,-0.512352 -0.5123,-2.113449 -0.1281,-1.601098 0.3842,-2.497713 0.1281,-0.256176 0.3843,-0.512352 0.3202,-0.256175 0.4483,-0.320219 0.1281,-0.06404 0.4483,-0.128088 0.3202,-0.06404 0.4483,-0.06404 0.1281,0 0.5764,0 0.4483,0 0.7045,0 3.6505,0 4.7393,-0.896615 1.0887,-0.960658 1.3449,-4.354986 0.3842,-5.123513 0.3842,-17.483989 0,-11.527905 -1.6651,-14.922233 -1.6011,-3.394328 -5.9561,-3.394328 -4.0348,0 -14.2818,6.660568 l 0,28.179323 q 0,4.034767 0.9607,5.123514 1.0247,1.088746 4.6752,1.088746 2.7539,0 3.0101,3.138152 0,3.522415 -2.4978,3.522415 -10.9515,-0.192131 -19.2131,-0.192131 -4.1629,0 -7.6853,0.06404 -1.6011,0 -2.3056,-1.601098 -0.7045,-1.665142 0,-3.330284 0.7685,-1.729186 2.6899,-1.729186 l 0.9606,0 q 4.355,0 5.3797,-1.665142 1.0247,-1.665141 1.0247,-9.798719 l 0,-20.301921 q 0,-4.483075 -1.9854,-6.788656 -1.9213,-2.369625 -5.2516,-2.369625 -4.9954,0 -14.9222,6.660568 l 0,28.179323 q 0,4.226899 0.9607,5.251601 1.0247,0.960659 5.1875,0.960659 0.1281,0 2.1135,0.256176 0.8966,0.128088 0.8966,4.162854 -0.3843,2.241537 -2.0494,2.241537 -6.2763,-0.256175 -13.0009,-0.256175 -6.7246,0 -14.0256,0.256175 -1.9854,0 -2.4978,-1.15279 -0.3842,-0.704483 -0.3842,-1.857274 0,-0.320219 0,-0.640439 z"
         style="font-style:normal;font-variant:normal;font-weight:bold;font-stretch:normal;font-size:medium;line-height:85.00000238%;font-family:ETBembo;-inkscape-font-specification:'ETBembo Bold';text-align:start;letter-spacing:0px;word-spacing:0px;text-anchor:start;fill:#f8f8f8;fill-opacity:1;stroke:none;stroke-width:1px;stroke-linecap:butt;stroke-linejoin:miter;stroke-opacity:1"
         id="path4474"
         inkscape:connector-curvature="0" />
      <path
         d="m 2055.7453,89.664884 q 0.6404,-1.024702 2.6258,-1.024702 4.4831,0 5.6359,-1.985362 1.2168,-1.985361 1.2168,-10.887466 l 0,-52.836231 0,-3.010064 q 0,-1.729186 -0.3202,-2.177493 -0.3202,-0.448308 -1.9213,-0.896615 -0.7686,-0.256176 -2.3056,-0.768527 -1.473,-0.512351 -2.1775,-0.640439 -1.7292,-0.384264 -1.9854,-2.433669 -0.1921,-2.049405 0.8326,-2.94602 0.1281,-0.2561758 0.5124,-0.6404393 l 14.602,-8.77401657 q 1.1528,-0.89661483 2.8179,-0.89661483 0.3843,0 0.8326,0.0640439 2.1134,0.25617566 2.1134,3.0100641 l 0,6.8526991 q 0,1.6651416 0.7686,1.1527906 10.4391,-7.3010066 16.9075,-7.3010066 0.064,0 0.1281,0 8.7741,0 15.1784,8.1335776 6.4685,8.133577 6.4685,18.572736 0,12.616651 -8.9662,22.159195 -8.9661,9.4785 -20.9423,9.4785 -3.5224,0 -8.5179,-1.473011 -0.3842,-0.128087 -0.7045,0.192132 -0.3202,0.384264 -0.3202,1.152791 l 0,14.025617 q 0,6.404392 0.5124,8.838061 0.5123,2.433669 1.6651,3.010064 1.2169,0.640439 4.4831,0.640439 l 1.8573,0 q 2.8819,0 3.5224,1.921318 0.2562,0.768527 0.2562,2.177493 0,1.408966 -0.3843,2.177493 -0.7685,1.280878 -3.0101,1.280878 -3.01,-0.128087 -28.7557,-0.128087 -1.8573,0 -2.6258,-1.152791 -0.7685,-1.088746 -0.7685,-2.305581 0,-1.216834 0.7685,-2.561757 z m 22.4794,-42.204941 q 6.5325,6.148216 13.065,6.148216 5.5078,0 9.2864,-5.379689 3.8426,-5.379689 3.8426,-13.641354 0,-9.286368 -4.291,-14.986277 -4.2269,-5.763952 -10.5032,-5.763952 -4.483,0 -11.0155,5.123513 -0.3843,0.384264 -0.3843,1.344923 l 0,27.15462 z"
         style="font-style:normal;font-variant:normal;font-weight:bold;font-stretch:normal;font-size:medium;line-height:85.00000238%;font-family:ETBembo;-inkscape-font-specification:'ETBembo Bold';text-align:start;letter-spacing:0px;word-spacing:0px;text-anchor:start;fill:#f8f8f8;fill-opacity:1;stroke:none;stroke-width:1px;stroke-linecap:butt;stroke-linejoin:miter;stroke-opacity:1"
         id="path4476"
         inkscape:connector-curvature="0" />
      <path
         d="m 2123.6959,56.23396 q 0,-1.280878 0.1281,-1.857274 0.1281,-0.640439 0.7685,-1.088746 0.7045,-0.448308 2.1135,-0.448308 3.6505,0 4.7392,-1.793229 1.1528,-1.79323 1.1528,-9.670632 l 0,-22.543459 q 0,-1.857273 -0.3842,-2.113449 -0.7686,-0.384263 -3.0101,-1.15279 -2.2415,-0.768527 -3.1382,-1.152791 -1.6011,-0.768527 -1.8572,-1.344922 -0.1281,-0.256176 -0.1281,-0.640439 l 0,-1.857274 q 0,-1.9853612 1.8572,-2.6258004 2.1135,-1.0247026 3.9708,-1.7291857 1.9213,-0.768527 5.1875,-1.7932297 3.2663,-1.0247026 5.8921,-2.1134492 0.8966,-0.3202196 1.6011,-0.3202196 0.8966,0 1.537,0.5123513 1.1528,0.8966149 1.0888,2.4336689 0.1281,1.8572735 0.1281,7.4931384 0.128,-0.128088 1.0247,-2.4977129 0.9606,-2.369625 1.7291,-3.7145472 0.7686,-1.4089662 1.7292,-1.9213175 1.8573,-0.8966148 3.7146,-0.9606588 1.9213,-0.064044 3.2022,0.3202196 1.3449,0.3842635 3.3943,1.0887466 2.1134,0.7044831 3.4584,0.9606588 l 1.1528,0.4483074 q 2.1775,0.7044831 2.1775,2.2415371 0,0.4483074 -0.1922,0.8966148 -1.2168,3.5224151 -4.2269,9.0301921 -2.882,-0.256176 -6.0201,-1.857273 -2.6258,-1.280879 -3.9067,-1.280879 -3.1381,0 -6.9808,6.916743 l 0,18.380604 q 0,1.152791 0.064,2.881977 0.064,1.729185 0.064,3.394327 0.2562,4.354987 1.0247,5.187557 0.8326,0.768527 4.9954,0.768527 l 2.7539,0 q 2.2416,0 2.5618,2.753889 0.3202,2.753888 -0.9607,3.778591 -0.5123,0.384263 -1.7292,0.384263 -3.01,0 -8.6459,-0.128087 -5.6358,-0.128088 -10.3111,-0.128088 -4.6111,0 -8.838,0.256175 -0.1921,0 -0.3843,0 -1.537,0 -1.9853,-0.896614 -0.5124,-1.024703 -0.5124,-2.497713 z"
         style="font-style:normal;font-variant:normal;font-weight:bold;font-stretch:normal;font-size:medium;line-height:85.00000238%;font-family:ETBembo;-inkscape-font-specification:'ETBembo Bold';text-align:start;letter-spacing:0px;word-spacing:0px;text-anchor:start;fill:#f8f8f8;fill-opacity:1;stroke:none;stroke-width:1px;stroke-linecap:butt;stroke-linejoin:miter;stroke-opacity:1"
         id="path4478"
         inkscape:connector-curvature="0" />
      <path
         d="m 2171.2165,32.729842 q 0,-12.744739 7.8774,-21.26258 7.8774,-8.5178409 19.7896,-8.5178409 14.0256,0 19.5334,11.8481249 2.1134,4.226898 3.5864,6.020128 0.4483,0.896615 0.4483,1.79323 0,0.768527 -0.3202,1.537054 -0.6404,1.665141 -2.882,1.793229 -4.8033,0.192132 -13.193,0.192132 -8.3898,0 -20.3019,-0.192132 -1.8573,0 -1.7933,3.650504 0,9.15828 4.9314,15.114364 4.9955,5.89204 12.4886,5.89204 8.2617,0 14.7941,-7.621226 1.2809,-1.47301 3.3303,-1.024703 1.2809,0.256176 2.0494,1.857274 0.8326,1.537054 0,2.817932 -13.0009,14.537969 -25.2973,14.602013 -10.7594,0 -17.9323,-8.325709 -7.1089,-8.325709 -7.1089,-20.173834 z m 14.2818,-13.89753 q 0.2562,0.384264 1.7292,0.384264 l 17.6761,0 q 0.7045,0 1.2168,-0.256176 0.3843,-0.192131 0.3843,-0.512351 0,-8.9021044 -10.5032,-8.9021044 -6.7887,0 -10.5032,9.2863674 z"
         style="font-style:normal;font-variant:normal;font-weight:bold;font-stretch:normal;font-size:medium;line-height:85.00000238%;font-family:ETBembo;-inkscape-font-specification:'ETBembo Bold';text-align:start;letter-spacing:0px;word-spacing:0px;text-anchor:start;fill:#f8f8f8;fill-opacity:1;stroke:none;stroke-width:1px;stroke-linecap:butt;stroke-linejoin:miter;stroke-opacity:1"
         id="path4480"
         inkscape:connector-curvature="0" />
      <path
         d="m 2227.8313,33.818589 q 0,-13.000915 9.4145,-22.095151 9.4785,-9.1582804 22.7355,-9.1582804 6.5325,0 11.528,2.4336689 4.9954,2.4336688 4.9954,6.9167425 0,2.497713 -1.7292,4.290943 -1.6651,1.729186 -4.1629,1.729186 -3.9066,0 -8.9021,-4.867338 -3.1381,-3.010064 -6.3403,-3.010064 -5.6359,0 -10.0549,6.084172 -4.355,6.084172 -4.355,14.794145 0,9.15828 4.4831,14.666057 4.5471,5.507777 11.5279,5.507777 8.6459,0 13.7694,-7.365051 0.8326,-2.305581 2.818,-2.305581 0.5123,0 1.0887,0.128088 1.6011,0.768527 2.1135,2.433669 0.128,0.576395 0.128,1.088746 0,1.152791 -0.7685,1.985362 -8.9021,13.769442 -23.6322,13.769442 -10.7594,0 -17.7402,-7.749314 -6.9167,-7.749314 -6.9167,-19.277219 z"
         style="font-style:normal;font-variant:normal;font-weight:bold;font-stretch:normal;font-size:medium;line-height:85.00000238%;font-family:ETBembo;-inkscape-font-specification:'ETBembo Bold';text-align:start;letter-spacing:0px;word-spacing:0px;text-anchor:start;fill:#f8f8f8;fill-opacity:1;stroke:none;stroke-width:1px;stroke-linecap:butt;stroke-linejoin:miter;stroke-opacity:1"
         id="path4482"
         inkscape:connector-curvature="0" />
      <path
         d="m 2284.7023,48.22847 q 0,-10.247026 14.538,-14.025617 4.0348,-1.024703 11.72,-4.483075 0.6405,-0.640439 0.6405,-1.15279 l -0.1281,-8.00549 q -0.1281,-9.990851 -7.1089,-9.990851 -1.7292,0 -3.8426,1.537054 -2.0494,1.47301 -2.0494,2.817933 0,1.985361 0.5123,3.266239 -1.0247,1.152791 -4.2909,2.753889 -3.2663,1.601098 -4.4831,1.985361 -1.2168,0.384264 -2.1134,0.384264 -2.6258,0 -2.6258,-3.522416 0,-4.995425 8.5818,-11.7200365 7.1089,-5.379689 12.8088,-5.379689 4.355,0 8.6459,2.1774931 4.355,2.1774932 6.7247,5.5718204 1.7291,2.369625 2.1134,4.354987 0.3843,1.921317 0.3843,8.005489 l 0,22.799635 q 0,2.241537 0.1921,3.330283 0.1921,1.024703 0.4483,1.280879 0.2562,0.256175 0.7685,0.256175 2.1135,0 4.4831,-1.985361 0.8966,-0.640439 2.1135,-0.640439 1.8572,0.256175 2.2415,2.049405 0.1281,0.640439 0.1281,1.216835 0,1.024702 -0.4483,1.857273 -8.9021,7.877402 -14.6661,7.877402 -6.0201,-0.06404 -7.6212,-6.340348 l 0,0.128088 q -4.6112,3.522415 -7.3651,4.867338 -2.6898,1.344922 -6.5324,1.344922 -5.8921,0 -9.8628,-3.522416 -3.9067,-3.586459 -3.9067,-9.094236 z m 12.6167,-1.601098 q 0,2.369625 1.537,3.970723 1.6011,1.537054 4.0988,1.537054 1.6011,0 4.6752,-1.921317 3.0742,-1.985362 3.8427,-3.58646 l 0,-8.645928 q 0,-0.384264 -0.2562,-0.768527 -0.1921,-0.256176 -0.3843,-0.256176 l -0.128,0 q -1.8573,0.896615 -7.3651,3.26624 -6.0201,2.241537 -6.0201,6.404391 z"
         style="font-style:normal;font-variant:normal;font-weight:bold;font-stretch:normal;font-size:medium;line-height:85.00000238%;font-family:ETBembo;-inkscape-font-specification:'ETBembo Bold';text-align:start;letter-spacing:0px;word-spacing:0px;text-anchor:start;fill:#f8f8f8;fill-opacity:1;stroke:none;stroke-width:1px;stroke-linecap:butt;stroke-linejoin:miter;stroke-opacity:1"
         id="path4484"
         inkscape:connector-curvature="0" />
      <path
         d="m 2338.4352,57.450794 q -0.1281,-0.640439 -0.1922,-1.15279 0,-1.216835 0.7685,-2.049406 l 0.6405,-0.640439 29.5242,-39.515096 q 0.7686,-1.024703 0,-1.024703 -2.7539,0 -8.0695,0.192132 -5.3156,0.192131 -8.1976,0.192131 -2.1135,0 -3.2022,1.729186 -1.0247,1.665142 -2.818,9.030193 -0.3842,0.640439 -1.3449,1.088746 -0.1281,0 -0.2562,0 -1.0247,0 -1.7291,-0.06404 -0.6405,-0.06404 -1.6011,-0.256175 -0.8966,-0.256176 -1.2809,-0.768527 -0.3843,-0.512352 -0.2562,-1.280879 0,-0.384263 0.1281,-0.704483 1.9854,-12.4885637 3.5865,-18.8289114 0.2561,-1.4730101 0.8966,-1.601098 0.1281,-0.1280878 0.3842,-0.1280878 0.9607,-0.5123513 2.3697,-0.5123513 0.4483,0 0.8966,0.064044 1.9853,0.1921317 1.9853,1.537054 0,1.2808783 0.6405,1.6010979 0.6404,0.3202196 3.3943,0.3202196 16.011,-0.2561757 23.6963,-0.3202196 2.5617,0 4.1628,0.064044 0.2562,0 1.2809,-0.064044 1.0887,-0.064044 1.473,0 0.3843,0.064044 1.0887,0.3202196 0.7045,0.2561757 1.2809,0.8966148 0.3202,1.0887466 0.3202,2.0494054 0,1.4089661 -0.7685,2.305581 -8.774,11.2717288 -29.0759,39.8993598 -0.3843,0.640439 -0.1922,0.768527 0.1922,0.128088 1.0888,0.128088 3.3303,0.06404 7.6853,0.06404 4.419,0 9.8627,-0.06404 2.4977,-0.128088 3.2022,-1.088747 0.7685,-1.024702 3.2663,-6.788655 0.2561,-0.384263 0.3842,-0.768527 0.1281,-0.384263 0.2562,-0.448307 0.1281,-0.06404 0.7685,-0.256176 0.8326,-0.128088 1.6011,-0.128088 1.7292,0 2.7539,0.832571 0.5764,0.576396 0.5764,1.216835 0,0.384263 -0.1921,0.704483 l -5.1235,13.641354 q -0.6405,1.152791 -2.7539,1.857274 l -41.5645,0 q -0.8326,0 -1.3449,-2.049406 z"
         style="font-style:normal;font-variant:normal;font-weight:bold;font-stretch:normal;font-size:medium;line-height:85.00000238%;font-family:ETBembo;-inkscape-font-specification:'ETBembo Bold';text-align:start;letter-spacing:0px;word-spacing:0px;text-anchor:start;fill:#f8f8f8;fill-opacity:1;stroke:none;stroke-width:1px;stroke-linecap:butt;stroke-linejoin:miter;stroke-opacity:1"
         id="path4486"
         inkscape:connector-curvature="0" />
      <path
         d="m 2393.1927,56.362048 q 0,-0.32022 0,-0.640439 0,-2.881977 2.2416,-3.010065 6.2763,-0.512351 7.0448,-1.985361 0.5123,-0.768527 0.7045,-2.881976 l 0,-5.763953 0,-22.863678 q 0,-4.226899 -0.4483,-4.931382 l -1.9214,-0.704483 q -2.4977,-0.512351 -5.1235,-1.408966 -1.6011,-0.640439 -1.6011,-2.7538883 0,-2.1134492 1.2169,-2.8819762 9.4144,-3.5224154 15.5626,-5.5077769 1.1528,-0.38426347 2.0494,-0.38426347 2.9461,0 2.9461,4.41903027 l 0,37.0173836 q 0,4.73925 0.128,6.404392 0.1281,2.753888 0.7045,3.26624 0.6405,0.512351 3.9067,0.512351 0.2562,0 0.5124,-0.06404 2.7539,0 3.1381,2.689845 l 0,2.369625 q 0,2.369624 -2.6898,2.369624 -0.2562,0 -0.5764,0 -3.0101,-0.192131 -9.2864,-0.192131 -6.2763,0 -15.8829,0.192131 -1.9853,0 -2.6258,-3.266239 z m 6.9168,-76.340349 q 0,-3.26624 2.2415,-5.443733 2.2415,-2.177493 5.5078,-2.177493 3.3943,0 5.5718,2.177493 2.1775,2.177493 2.1775,5.571821 0,3.138152 -2.3056,5.187557 -2.3056,2.049405 -5.5718,2.049405 -3.3943,0 -5.5078,-2.113449 -2.1134,-2.113449 -2.1134,-5.251601 z"
         style="font-style:normal;font-variant:normal;font-weight:bold;font-stretch:normal;font-size:medium;line-height:85.00000238%;font-family:ETBembo;-inkscape-font-specification:'ETBembo Bold';text-align:start;letter-spacing:0px;word-spacing:0px;text-anchor:start;fill:#f8f8f8;fill-opacity:1;stroke:none;stroke-width:1px;stroke-linecap:butt;stroke-linejoin:miter;stroke-opacity:1"
         id="path4488"
         inkscape:connector-curvature="0" />
      <path
         d="m 2429.0573,31.961315 q 0,-12.488563 8.71,-20.814273 8.71,-8.3257087 21.5828,-8.3257087 13.0009,0 21.839,8.4537967 8.838,8.389753 8.838,20.814273 0,12.168344 -8.774,20.686185 -8.774,8.453797 -21.5187,8.453797 -13.001,0 -21.839,-8.453797 -8.8381,-8.453797 -8.8381,-20.814273 z m 14.1537,-3.778591 q 0,11.015554 5.3797,18.380604 5.3797,7.301007 12.7448,7.301007 5.892,0 9.9908,-5.635865 4.1629,-5.635864 4.1629,-14.153705 0,-10.375115 -5.3157,-17.16377 -5.3156,-6.852699 -12.6807,-6.852699 -6.0201,0 -10.183,5.123513 -4.0988,5.123514 -4.0988,13.000915 z"
         style="font-style:normal;font-variant:normal;font-weight:bold;font-stretch:normal;font-size:medium;line-height:85.00000238%;font-family:ETBembo;-inkscape-font-specification:'ETBembo Bold';text-align:start;letter-spacing:0px;word-spacing:0px;text-anchor:start;fill:#f8f8f8;fill-opacity:1;stroke:none;stroke-width:1px;stroke-linecap:butt;stroke-linejoin:miter;stroke-opacity:1"
         id="path4490"
         inkscape:connector-curvature="0" />
      <path
         d="m 2494.6382,58.475497 q -0.2561,-0.512351 -0.2561,-2.113449 0,-1.601098 0.1281,-2.11345 0.8966,-1.280878 2.2415,-1.280878 l 0.6404,0 q 3.7786,0 4.8674,-1.857273 1.1528,-1.857274 1.1528,-9.862764 l 0,-17.163769 q 0,-8.389753 -0.3843,-9.542544 -0.3843,-0.512351 -4.0988,-1.216834 l -2.6258,-0.512352 q -1.9854,-0.512351 -1.7292,-3.0100638 0.3202,-2.4977127 1.6011,-3.0100641 5.3797,-1.7291857 11.3358,-4.0988106 3.01,-1.0247027 4.0347,-1.2808784 1.0247,-0.1921317 1.7933,-0.1921317 1.0887,0 1.7292,0.4483074 1.0247,0.768527 1.0887,3.1381519 l 0,5.5077773 q 0,0.896614 0.1281,1.088746 0.1281,0.128088 0.7685,-0.320219 12.0403,-8.1335779 18.7649,-8.1335779 15.6267,0 15.6267,23.8883809 0,3.778591 -0.5764,11.335773 -0.5124,7.557183 -0.5124,11.335774 0,2.113449 0.7686,2.689844 0.8325,0.512351 3.9707,0.512351 2.1134,-0.640439 3.5224,0.896615 0.5124,0.640439 0.5124,2.241537 0,0.32022 0,0.64044 -0.1281,2.113449 -1.409,2.753888 -0.5124,0.256176 -1.9854,0.256176 -3.1381,0 -11.9762,-0.06404 -2.946,0 -5.3156,0 -4.6752,0 -6.9808,0.06404 -1.9854,0.128087 -2.5618,-0.448308 -0.5764,-0.576395 -0.7044,-2.305581 0,-4.034767 2.2415,-4.034767 l 0.7685,0 q 3.7786,-0.256175 4.9954,-1.344922 1.2169,-1.15279 1.6011,-4.483074 0.7686,-7.236963 0.7686,-21.903019 0,-12.552608 -7.9415,-12.552608 0,0 -0.064,0 -5.1235,0 -14.4099,6.660567 l 0,27.666972 q 0,4.226899 0.9607,5.123514 0.9606,0.83257 5.4437,0.83257 1.9853,0 2.3696,2.305581 0,2.625801 -0.3843,3.458372 -0.3842,0.896615 -2.6258,1.15279 -1.9213,-0.06404 -5.0594,-0.06404 -3.0741,0 -7.4291,0.06404 -2.946,0.06404 -5.3157,0.06404 -4.7392,0 -7.2369,-0.192131 -1.8573,-0.128088 -2.2416,-1.024703 z"
         style="font-style:normal;font-variant:normal;font-weight:bold;font-stretch:normal;font-size:medium;line-height:85.00000238%;font-family:ETBembo;-inkscape-font-specification:'ETBembo Bold';text-align:start;letter-spacing:0px;word-spacing:0px;text-anchor:start;fill:#f8f8f8;fill-opacity:1;stroke:none;stroke-width:1px;stroke-linecap:butt;stroke-linejoin:miter;stroke-opacity:1"
         id="path4492"
         inkscape:connector-curvature="0" />
      <path
         d="m 2562.7646,32.729842 q 0,-12.744739 7.8774,-21.26258 7.8774,-8.5178409 19.7895,-8.5178409 14.0257,0 19.5334,11.8481249 2.1135,4.226898 3.5865,6.020128 0.4483,0.896615 0.4483,1.79323 0,0.768527 -0.3202,1.537054 -0.6405,1.665141 -2.882,1.793229 -4.8033,0.192132 -13.193,0.192132 -8.3898,0 -20.302,-0.192132 -1.8572,0 -1.7932,3.650504 0,9.15828 4.9314,15.114364 4.9954,5.89204 12.4886,5.89204 8.2616,0 14.7941,-7.621226 1.2809,-1.47301 3.3303,-1.024703 1.2809,0.256176 2.0494,1.857274 0.8326,1.537054 0,2.817932 -13.0009,14.537969 -25.2974,14.602013 -10.7593,0 -17.9323,-8.325709 -7.1088,-8.325709 -7.1088,-20.173834 z m 14.2818,-13.89753 q 0.2561,0.384264 1.7291,0.384264 l 17.6762,0 q 0.7044,0 1.2168,-0.256176 0.3843,-0.192131 0.3843,-0.512351 0,-8.9021044 -10.5032,-8.9021044 -6.7887,0 -10.5032,9.2863674 z"
         style="font-style:normal;font-variant:normal;font-weight:bold;font-stretch:normal;font-size:medium;line-height:85.00000238%;font-family:ETBembo;-inkscape-font-specification:'ETBembo Bold';text-align:start;letter-spacing:0px;word-spacing:0px;text-anchor:start;fill:#f8f8f8;fill-opacity:1;stroke:none;stroke-width:1px;stroke-linecap:butt;stroke-linejoin:miter;stroke-opacity:1"
         id="path4494"
         inkscape:connector-curvature="0" />
      <text
         sodipodi:linespacing="125%"
         id="text4519"
         y="-59.779594"
         x="2564.5613"
         style="font-style:normal;font-variant:normal;font-weight:600;font-stretch:normal;font-size:65.49145508px;line-height:125%;font-family:ETBembo;-inkscape-font-specification:'ETBembo Semi-Bold';letter-spacing:0px;word-spacing:0px;fill:#f8f8f8;fill-opacity:1;stroke:none;stroke-width:1px;stroke-linecap:butt;stroke-linejoin:miter;stroke-opacity:1"
         xml:space="preserve"><tspan
           y="-59.779594"
           x="2564.5613"
           id="tspan4521"
           sodipodi:role="line">&amp;</tspan></text>
    </g>
    <rect
       style="opacity:0.75;fill:#ec417b;fill-opacity:1;stroke:none;stroke-width:1.89999998;stroke-linecap:round;stroke-linejoin:round;stroke-miterlimit:4;stroke-dasharray:none;stroke-opacity:1"
       id="rect5224"
       width="450"
       height="75"
       x="1902.1588"
       y="21.778976" />
    <text
       xml:space="preserve"
       style="font-style:italic;font-variant:normal;font-weight:normal;font-stretch:normal;font-size:40px;line-height:125%;font-family:ETBembo;-inkscape-font-specification:'ETBembo Italic';letter-spacing:0px;word-spacing:0px;fill:#f8f8f8;fill-opacity:1;stroke:none;stroke-width:1px;stroke-linecap:butt;stroke-linejoin:miter;stroke-opacity:1;"
       x="1946.4752"
       y="68.93718"
       id="text5226"
       sodipodi:linespacing="125%"><tspan
         sodipodi:role="line"
         id="tspan5228"
         x="1946.4752"
         y="68.93718">Dati, strategia e filosofia</tspan></text>
    <text
       xml:space="preserve"
       style="font-style:normal;font-variant:normal;font-weight:600;font-stretch:normal;font-size:63.85499191px;line-height:96.00000286%;font-family:ETBembo;-inkscape-font-specification:'ETBembo Semi-Bold';letter-spacing:0px;word-spacing:0px;fill:#000000;fill-opacity:1;stroke:none;stroke-width:1px;stroke-linecap:butt;stroke-linejoin:miter;stroke-opacity:1;"
       x="1933.5703"
       y="-435.29092"
       id="text6527"
       sodipodi:linespacing="96.00000286%"><tspan
         sodipodi:role="line"
         id="tspan6529"
         x="1933.5703"
         y="-435.29092">La consulenza</tspan><tspan
         sodipodi:role="line"
         x="1933.5703"
         y="-355.4722"
         id="tspan6531">filosofica</tspan></text>
    <text
       xml:space="preserve"
       style="font-style:italic;font-variant:normal;font-weight:normal;font-stretch:normal;font-size:29.72961617px;line-height:125%;font-family:ETBembo;-inkscape-font-specification:'ETBembo Italic';letter-spacing:0px;word-spacing:0px;fill:#000000;fill-opacity:1;stroke:none;stroke-width:1px;stroke-linecap:butt;stroke-linejoin:miter;stroke-opacity:1"
       x="1936.7917"
       y="-331.28378"
       id="text6533"
       sodipodi:linespacing="125%"><tspan
         sodipodi:role="line"
         id="tspan6535"
         x="1936.7917"
         y="-331.28378">prima della risposta </tspan><tspan
         sodipodi:role="line"
         x="1936.7917"
         y="-294.12177"
         id="tspan6537"> importante la domanda</tspan></text>
  </g>
  <g
     transform="translate(-1902.1588,320.3249)"
     style="display:inline"
     inkscape:label="logo"
     id="layer11"
     inkscape:groupmode="layer">
    <text
       sodipodi:linespacing="125%"
       id="text4157"
       y="910.95593"
       x="-368.75"
       style="font-style:normal;font-variant:normal;font-weight:normal;font-stretch:normal;font-size:180px;line-height:125%;font-family:Griffo;-inkscape-font-specification:Griffo;text-align:start;letter-spacing:0px;word-spacing:0px;writing-mode:lr-tb;text-anchor:start;fill:#000000;fill-opacity:1;stroke:none;stroke-width:1px;stroke-linecap:butt;stroke-linejoin:miter;stroke-opacity:1"
       xml:space="preserve"><tspan
         style="font-style:normal;font-variant:normal;font-weight:bold;font-stretch:normal;font-family:'Open Sans';-inkscape-font-specification:'Open Sans Bold'"
         y="910.95593"
         x="-368.75"
         id="tspan4159"
         sodipodi:role="line" /></text>
  </g>
</svg>
