<?xml version="1.0" encoding="UTF-8" standalone="no"?>
<!-- Created with Inkscape (http://www.inkscape.org/) -->

<svg
   xmlns:osb="http://www.openswatchbook.org/uri/2009/osb"
   xmlns:dc="http://purl.org/dc/elements/1.1/"
   xmlns:cc="http://creativecommons.org/ns#"
   xmlns:rdf="http://www.w3.org/1999/02/22-rdf-syntax-ns#"
   xmlns:svg="http://www.w3.org/2000/svg"
   xmlns="http://www.w3.org/2000/svg"
   xmlns:xlink="http://www.w3.org/1999/xlink"
   xmlns:sodipodi="http://sodipodi.sourceforge.net/DTD/sodipodi-0.dtd"
   xmlns:inkscape="http://www.inkscape.org/namespaces/inkscape"
   width="1920"
   height="1080"
   viewBox="0 0 1920 1080"
   id="svg2"
   version="1.1"
   inkscape:version="0.91 r13725"
   sodipodi:docname="data_room.svg"
   inkscape:export-filename="/Users/lucacorsato/Documents/osd/website/osdtufte/assets/img/design/data_room.png"
   inkscape:export-xdpi="320"
   inkscape:export-ydpi="320">
  <defs
     id="defs4">
    <linearGradient
       id="linearGradient4444"
       osb:paint="solid">
      <stop
         style="stop-color:#002fa7;stop-opacity:1;"
         offset="0"
         id="stop4446" />
    </linearGradient>
    <linearGradient
       inkscape:collect="always"
       xlink:href="#linearGradient4444"
       id="linearGradient4448"
       x1="1481.6096"
       y1="393.59521"
       x2="3401.6096"
       y2="393.59521"
       gradientUnits="userSpaceOnUse" />
    <linearGradient
       inkscape:collect="always"
       xlink:href="#linearGradient4444"
       id="linearGradient4452"
       gradientUnits="userSpaceOnUse"
       x1="1481.6096"
       y1="393.59521"
       x2="3401.6096"
       y2="393.59521"
       gradientTransform="translate(-1761.6116,2283.4524)" />
    <clipPath
       id="clipPath8097"
       clipPathUnits="userSpaceOnUse">
      <rect
         mask="none"
         clip-path="none"
         rx="40.909092"
         ry="40.909092"
         y="-1034.2781"
         x="1762.1588"
         height="436.36365"
         width="600"
         id="rect8099"
         style="display:inline;opacity:1;fill:#757575;fill-opacity:1;fill-rule:nonzero;stroke:none;stroke-width:3.5;stroke-linecap:round;stroke-linejoin:round;stroke-miterlimit:4;stroke-dasharray:none;stroke-dashoffset:263;stroke-opacity:1" />
    </clipPath>
    <inkscape:path-effect
       is_visible="true"
       id="path-effect4886"
       effect="spiro" />
    <inkscape:path-effect
       effect="spiro"
       id="path-effect4882"
       is_visible="true" />
    <inkscape:path-effect
       effect="spiro"
       id="path-effect4878"
       is_visible="true" />
    <clipPath
       clipPathUnits="userSpaceOnUse"
       id="clipPath8097-1">
      <rect
         style="display:inline;opacity:1;fill:#757575;fill-opacity:1;fill-rule:nonzero;stroke:none;stroke-width:3.5;stroke-linecap:round;stroke-linejoin:round;stroke-miterlimit:4;stroke-dasharray:none;stroke-dashoffset:263;stroke-opacity:1"
         id="rect8099-33"
         width="600"
         height="436.36365"
         x="1762.1588"
         y="-1034.2781"
         ry="40.909092"
         rx="40.909092"
         clip-path="none"
         mask="none" />
    </clipPath>
    <clipPath
       id="clipPath8097-5"
       clipPathUnits="userSpaceOnUse">
      <rect
         mask="none"
         clip-path="none"
         rx="40.909092"
         ry="40.909092"
         y="-1034.2781"
         x="1762.1588"
         height="436.36365"
         width="600"
         id="rect8099-3"
         style="display:inline;opacity:1;fill:#757575;fill-opacity:1;fill-rule:nonzero;stroke:none;stroke-width:3.5;stroke-linecap:round;stroke-linejoin:round;stroke-miterlimit:4;stroke-dasharray:none;stroke-dashoffset:263;stroke-opacity:1" />
    </clipPath>
    <linearGradient
       inkscape:collect="always"
       xlink:href="#linearGradient4444"
       id="linearGradient4792"
       x1="1481.6096"
       y1="393.59521"
       x2="3401.6096"
       y2="393.59521"
       gradientUnits="userSpaceOnUse" />
    <linearGradient
       inkscape:collect="always"
       xlink:href="#linearGradient4444"
       id="linearGradient4794"
       gradientUnits="userSpaceOnUse"
       x1="1481.6096"
       y1="393.59521"
       x2="3401.6096"
       y2="393.59521"
       gradientTransform="translate(-1761.6116,2283.4524)" />
    <clipPath
       id="clipPath8097-0"
       clipPathUnits="userSpaceOnUse">
      <rect
         mask="none"
         clip-path="none"
         rx="40.909092"
         ry="40.909092"
         y="-1034.2781"
         x="1762.1588"
         height="436.36365"
         width="600"
         id="rect8099-9"
         style="display:inline;opacity:1;fill:#757575;fill-opacity:1;fill-rule:nonzero;stroke:none;stroke-width:3.5;stroke-linecap:round;stroke-linejoin:round;stroke-miterlimit:4;stroke-dasharray:none;stroke-dashoffset:263;stroke-opacity:1" />
    </clipPath>
    <inkscape:path-effect
       is_visible="true"
       id="path-effect4886-1"
       effect="spiro" />
    <inkscape:path-effect
       effect="spiro"
       id="path-effect4882-8"
       is_visible="true" />
    <inkscape:path-effect
       effect="spiro"
       id="path-effect4878-3"
       is_visible="true" />
    <linearGradient
       gradientUnits="userSpaceOnUse"
       y2="393.59521"
       x2="3401.6096"
       y1="393.59521"
       x1="1481.6096"
       id="linearGradient4360"
       xlink:href="#linearGradient4444"
       inkscape:collect="always" />
    <linearGradient
       gradientTransform="translate(-1761.6116,2283.4524)"
       y2="393.59521"
       x2="3401.6096"
       y1="393.59521"
       x1="1481.6096"
       gradientUnits="userSpaceOnUse"
       id="linearGradient4362"
       xlink:href="#linearGradient4444"
       inkscape:collect="always" />
    <clipPath
       clipPathUnits="userSpaceOnUse"
       id="clipPath8097-1-6">
      <rect
         style="display:inline;opacity:1;fill:#757575;fill-opacity:1;fill-rule:nonzero;stroke:none;stroke-width:3.5;stroke-linecap:round;stroke-linejoin:round;stroke-miterlimit:4;stroke-dasharray:none;stroke-dashoffset:263;stroke-opacity:1"
         id="rect8099-33-5"
         width="600"
         height="436.36365"
         x="1762.1588"
         y="-1034.2781"
         ry="40.909092"
         rx="40.909092"
         clip-path="none"
         mask="none" />
    </clipPath>
    <linearGradient
       inkscape:collect="always"
       xlink:href="#linearGradient4444"
       id="linearGradient4513"
       x1="1481.6096"
       y1="393.59521"
       x2="3401.6096"
       y2="393.59521"
       gradientUnits="userSpaceOnUse" />
    <linearGradient
       inkscape:collect="always"
       xlink:href="#linearGradient4444"
       id="linearGradient4515"
       gradientUnits="userSpaceOnUse"
       x1="1481.6096"
       y1="393.59521"
       x2="3401.6096"
       y2="393.59521"
       gradientTransform="translate(-1761.6116,2283.4524)" />
    <clipPath
       id="clipPath8097-5-8"
       clipPathUnits="userSpaceOnUse">
      <rect
         mask="none"
         clip-path="none"
         rx="40.909092"
         ry="40.909092"
         y="-1034.2781"
         x="1762.1588"
         height="436.36365"
         width="600"
         id="rect8099-3-8"
         style="display:inline;opacity:1;fill:#757575;fill-opacity:1;fill-rule:nonzero;stroke:none;stroke-width:3.5;stroke-linecap:round;stroke-linejoin:round;stroke-miterlimit:4;stroke-dasharray:none;stroke-dashoffset:263;stroke-opacity:1" />
    </clipPath>
  </defs>
  <sodipodi:namedview
     id="base"
     pagecolor="#ffffff"
     bordercolor="#666666"
     borderopacity="1.0"
     inkscape:pageopacity="0.0"
     inkscape:pageshadow="2"
     inkscape:zoom="0.48539934"
     inkscape:cx="933.32855"
     inkscape:cy="610.89097"
     inkscape:document-units="px"
     inkscape:current-layer="layer8"
     showgrid="false"
     inkscape:snap-bbox="true"
     inkscape:bbox-paths="true"
     inkscape:bbox-nodes="true"
     inkscape:snap-bbox-edge-midpoints="true"
     inkscape:snap-bbox-midpoints="true"
     inkscape:object-paths="true"
     inkscape:snap-intersection-paths="true"
     inkscape:object-nodes="true"
     inkscape:snap-smooth-nodes="true"
     inkscape:snap-midpoints="true"
     inkscape:snap-object-midpoints="true"
     inkscape:snap-center="true"
     inkscape:snap-text-baseline="true"
     inkscape:snap-page="true"
     inkscape:snap-others="true"
     inkscape:snap-grids="false"
     inkscape:snap-to-guides="false"
     inkscape:window-width="1680"
     inkscape:window-height="954"
     inkscape:window-x="153"
     inkscape:window-y="68"
     inkscape:window-maximized="0"
     units="px"
     inkscape:snap-global="true" />
  <metadata
     id="metadata7">
    <rdf:RDF>
      <cc:Work
         rdf:about="">
        <dc:format>image/svg+xml</dc:format>
        <dc:type
           rdf:resource="http://purl.org/dc/dcmitype/StillImage" />
        <dc:title />
      </cc:Work>
    </rdf:RDF>
  </metadata>
  <g
     inkscape:groupmode="layer"
     id="layer7"
     inkscape:label="pareti"
     transform="translate(0,335.90552)"
     style="display:inline">
    <path
       style="fill:#f9f9f9;fill-opacity:1;fill-rule:evenodd;stroke:#e91e63;stroke-width:0.12513581;stroke-linecap:round;stroke-linejoin:round;stroke-miterlimit:4;stroke-dasharray:none;stroke-opacity:1"
       d="m 0.06257894,-335.84294 324.34508106,84.31024 1065.17874,0 530.351,-84.31025 0,1079.87487 -530.351,-282.19655 -701.20268,0 0,-348.18103 -220.23221,0 0,348.90666 -143.74385,0 L 0.06257894,744.03192 Z"
       id="path4313"
       inkscape:connector-curvature="0" />
    <g
       id="g4370"
       transform="translate(72.135836,282.36918)">
      <g
         id="text4237"
         style="font-style:normal;font-weight:normal;font-size:39.77036667px;line-height:125%;font-family:sans-serif;letter-spacing:0px;word-spacing:0px;fill:#cccccc;fill-opacity:1;stroke:none;stroke-width:1px;stroke-linecap:butt;stroke-linejoin:miter;stroke-opacity:1">
        <path
           id="path4340"
           style="font-style:normal;font-variant:normal;font-weight:normal;font-stretch:normal;font-family:ETBembo;-inkscape-font-specification:ETBembo;fill:#cccccc;fill-opacity:1"
           d="m 947.97264,-287.29007 q 0,-3.82557 2.56332,-6.35006 2.56332,-2.52448 6.38889,-2.52448 3.86441,0 6.48599,2.56332 2.58274,2.52449 2.58274,6.23354 0,0.0583 0,0.11651 0,3.68964 -2.58274,6.25296 -2.58274,2.54391 -6.36947,2.54391 -3.86441,0 -6.46657,-2.52449 -2.60216,-2.52449 -2.60216,-6.31121 z m 3.4566,-1.26225 q 0,3.61196 1.78656,6.11703 1.80598,2.50506 4.31104,2.50506 2.11669,0 3.51487,-1.78656 1.41759,-1.80597 1.41759,-4.58291 0,-3.4566 -1.8254,-5.94225 -1.80597,-2.48565 -4.2722,-2.48565 -2.11669,0 -3.53428,1.74772 -1.39818,1.74772 -1.39818,4.42756 z"
           inkscape:connector-curvature="0" />
        <path
           id="path4342"
           style="font-style:normal;font-variant:normal;font-weight:normal;font-stretch:normal;font-family:ETBembo;-inkscape-font-specification:ETBembo;fill:#cccccc;fill-opacity:1"
           d="m 967.04221,-268.91958 q 0.0583,-0.42722 0.38839,-0.42722 l 0.34954,0 q 1.67005,0 2.09727,-0.77677 0.44664,-0.77676 0.44664,-3.68963 l 0,-16.46742 0,-0.95154 q 0,-0.75734 -0.17478,-0.95153 -0.17477,-0.1942 -0.85444,-0.38839 -0.23303,-0.0777 -0.69909,-0.23303 -0.44663,-0.17477 -0.69908,-0.21361 -0.23303,-0.0388 -0.25245,-0.36896 -0.0194,-0.34954 0.0971,-0.46606 0.0388,-0.0777 0.23303,-0.27187 l 4.38873,-2.75751 q 0.42722,-0.27187 0.67966,-0.27187 0.38839,0 0.38839,0.60199 l 0,2.46623 q 0,0.79619 0.3107,0.75735 0.0388,0 0.0777,-0.0388 3.57312,-2.54391 5.65096,-2.54391 2.50507,0 4.34989,2.38856 1.86423,2.36913 1.86423,5.51503 0,3.78673 -2.641,6.6025 -2.62158,2.79635 -6.15586,2.79635 -1.18457,0 -2.97113,-0.56315 -0.23302,-0.0777 -0.36896,0.0194 -0.11651,0.0971 -0.11651,0.62141 l 0,4.71885 q 0,2.85461 0.44664,3.59254 0.46606,0.75734 2.1361,0.75734 l 0.56315,0 q 0.602,0 0.71851,0.31071 0.15536,0.56315 -0.0388,0.9127 -0.11651,0.23303 -0.52431,0.23303 -0.89328,-0.0388 -2.34972,-0.0388 -1.10689,0 -2.5439,0.0194 -2.00017,0.0388 -3.06822,0.0388 -0.69909,0 -0.99038,-0.0194 -0.52431,0 -0.64083,-0.1942 -0.11651,-0.19419 -0.11651,-0.48547 0,-0.0971 0.0194,-0.23303 z m 6.3889,-13.51571 q 2.27203,2.15552 4.58291,2.15552 1.98075,0 3.26241,-1.74772 1.30108,-1.76714 1.30108,-4.42756 0,-3.02939 -1.47585,-5.04897 -1.45643,-2.01959 -3.61196,-2.01959 -1.67004,0 -3.82556,1.70888 -0.23303,0.23303 -0.23303,0.69909 l 0,8.68035 z"
           inkscape:connector-curvature="0" />
        <path
           id="path4344"
           style="font-style:normal;font-variant:normal;font-weight:normal;font-stretch:normal;font-family:ETBembo;-inkscape-font-specification:ETBembo;fill:#cccccc;fill-opacity:1"
           d="m 987.70416,-287.09588 q 0,-3.90325 2.3303,-6.46657 2.33029,-2.56333 5.82573,-2.56333 4.09744,0 5.72861,3.51487 l 0.3107,0.66025 q 0.3884,0.75734 0.7962,1.28166 0.058,0.17477 0.058,0.4078 0,0.0971 -0.019,0.21361 -0.039,0.34954 -0.5438,0.36896 -1.5341,0.0583 -4.1945,0.0583 -2.66042,0 -6.46657,-0.0583 -0.71851,0 -0.75735,0.4078 -0.0777,0.44664 -0.0777,1.18457 0,3.06822 1.70888,5.08781 1.70888,2.00017 4.25279,2.00017 2.77693,0 4.93245,-2.5439 0.1942,-0.27187 0.602,-0.21361 0.2331,0.0777 0.369,0.36896 0.1359,0.27187 0.019,0.46606 -1.3205,1.55353 -2.81579,2.75751 -2.2332,1.70889 -4.69943,1.70889 -3.1459,0 -5.26258,-2.50507 -2.09727,-2.50507 -2.09727,-6.13644 z m 3.41777,-4.13628 q -0.0194,0.0971 0.21361,0.17478 0.27187,0.11651 0.42722,0.11651 l 5.96167,0 q 0.31071,0 0.64083,-0.11651 0.34955,-0.13594 0.31071,-0.36897 -0.44664,-1.6312 -1.43702,-2.5439 -0.99037,-0.9127 -2.25262,-0.9127 -3.8644,0 -3.8644,3.65079 z"
           inkscape:connector-curvature="0" />
        <path
           id="path4346"
           style="font-style:normal;font-variant:normal;font-weight:normal;font-stretch:normal;font-family:ETBembo;-inkscape-font-specification:ETBembo;fill:#cccccc;fill-opacity:1"
           d="m 1004.2493,-279.83313 q 0.078,-0.38838 0.3495,-0.36896 l 0.233,0 q 1.3982,0 1.8254,-0.75735 0.4467,-0.75735 0.4467,-3.37893 l 0,-5.45677 q 0,-2.91287 -0.1554,-3.22358 -0.1553,-0.34954 -1.5535,-0.64083 l -0.7962,-0.15535 q -0.1942,-0.0388 -0.1942,-0.5049 0,-0.48548 0.1942,-0.56315 0.6408,-0.11652 2.3109,-0.83502 1.67,-0.71851 2.3885,-0.87387 0.1942,-0.0388 0.3302,-0.0388 0.5825,0 0.5825,0.7185 l 0,2.17495 q 0,0.11651 0.136,0.36896 0.1359,0.23303 0.2913,0.11651 1.8642,-1.3205 3.3012,-2.039 1.67,-0.79619 2.7964,-0.79619 4.4081,0 4.4081,7.16566 0,1.18457 -0.1554,3.57312 -0.1553,2.38855 -0.1553,3.63137 0,0.9127 0.3107,1.18457 0.3301,0.25245 1.67,0.25245 0.3496,-0.23303 0.6409,0.11651 0.1165,0.21361 0.1165,0.48548 0,0.15536 -0.039,0.34955 -0.039,0.23303 -0.1166,0.29128 -0.078,0.0583 -0.3689,0.0583 -0.078,0 -0.1165,0 -0.8351,0 -3.7479,-0.0194 -0.971,0 -1.7283,0 -1.4953,0 -2.0779,0.0194 -0.3884,0 -0.5049,-0.11651 -0.097,-0.11652 -0.1359,-0.52432 0,-0.67967 0.3301,-0.66025 l 0.2719,0 q 1.3205,-0.11652 1.806,-0.56316 0.5049,-0.44664 0.6214,-1.67004 0.233,-2.31088 0.233,-7.0103 0,-4.40815 -2.8934,-4.40815 -1.8643,0 -4.8937,2.34972 l 0,8.99105 q 0,1.5147 0.4273,1.9225 0.4466,0.38838 2.0001,0.38838 0.2719,0 0.3496,0.66025 0,0.64083 -0.5438,0.67967 -0.466,-0.0194 -1.4176,-0.0194 -0.9321,0 -2.3691,0.0194 -0.9515,0.0194 -1.6895,0.0194 -1.4952,0 -2.1361,-0.0583 -0.4854,0 -0.5437,-0.19419 -0.078,-0.15535 -0.078,-0.36896 0,-0.13594 0.039,-0.29129 z"
           inkscape:connector-curvature="0" />
        <path
           id="path4348"
           style="font-style:normal;font-variant:normal;font-weight:normal;font-stretch:normal;font-family:ETBembo;-inkscape-font-specification:ETBembo;fill:#cccccc;fill-opacity:1"
           d="m 1025.4744,-291.50402 q 0,-2.15553 1.4952,-3.49545 1.5147,-1.35934 3.8644,-1.35934 1.5147,0 3.3401,0.75735 0.1165,1.59237 0.1165,2.77693 0,0.71851 -0.039,1.28167 0,0.19419 -0.5437,0.19419 -0.2331,0 -0.4078,-0.0583 -0.1554,-0.0583 -0.1165,-0.13593 -0.2719,-1.59237 -1.0681,-2.46623 -0.7962,-0.87386 -1.9225,-0.87386 -0.9515,0 -1.5729,0.60199 -0.602,0.58257 -0.602,1.49527 0,1.39818 2.3885,3.1459 0.3884,0.27187 1.204,0.8156 0.8156,0.54374 1.3982,1.0098 0.602,0.44664 1.0875,0.97096 1.3593,1.47585 1.3593,3.30125 0,2.05842 -1.5341,3.47602 -1.5341,1.39818 -3.6897,1.39818 -1.0292,0 -1.9807,-0.27187 -0.039,0 -0.3495,-0.11652 -0.2913,-0.11651 -0.4467,-0.15535 -0.3107,0 -0.5243,0.5049 -0.4661,0.13593 -0.602,0.13593 0,0 -0.019,0 -0.3496,-0.0388 -0.4078,-0.4078 -0.3496,-2.79635 -0.3496,-4.25279 0,-0.15535 0,-0.27187 -0.039,-0.23302 0.1942,-0.29128 0.2331,-0.0777 0.602,-0.0388 0.1942,0.0777 0.2719,0.4078 0.835,3.57312 3.4954,3.57312 1.0681,0 1.8254,-0.75735 0.7574,-0.75734 0.7574,-1.78656 0,-0.38838 -0.097,-0.75734 -0.097,-0.38838 -0.3884,-0.75735 -0.2719,-0.38838 -0.4466,-0.62141 -0.1748,-0.25245 -0.6603,-0.60199 -0.4661,-0.36897 -0.6408,-0.5049 -0.1554,-0.13593 -0.7185,-0.5049 -0.5438,-0.38838 -0.6214,-0.42722 -1.1069,-0.75734 -1.7866,-1.30108 -0.6797,-0.56315 -1.2817,-1.53411 -0.5825,-0.99037 -0.5825,-2.09726 z"
           inkscape:connector-curvature="0" />
        <path
           id="path4350"
           style="font-style:normal;font-variant:normal;font-weight:normal;font-stretch:normal;font-family:ETBembo;-inkscape-font-specification:ETBembo;fill:#cccccc;fill-opacity:1"
           d="m 1037.5725,-287.09588 q 0,-3.90325 2.3303,-6.46657 2.3303,-2.56333 5.8257,-2.56333 4.0974,0 5.7287,3.51487 l 0.3107,0.66025 q 0.3883,0.75734 0.7961,1.28166 0.058,0.17477 0.058,0.4078 0,0.0971 -0.019,0.21361 -0.039,0.34954 -0.5438,0.36896 -1.5341,0.0583 -4.1945,0.0583 -2.6604,0 -6.4666,-0.0583 -0.7185,0 -0.7573,0.4078 -0.078,0.44664 -0.078,1.18457 0,3.06822 1.7089,5.08781 1.7089,2.00017 4.2528,2.00017 2.7769,0 4.9325,-2.5439 0.1941,-0.27187 0.6019,-0.21361 0.2331,0.0777 0.369,0.36896 0.1359,0.27187 0.019,0.46606 -1.3205,1.55353 -2.8157,2.75751 -2.2332,1.70889 -4.6995,1.70889 -3.1459,0 -5.2626,-2.50507 -2.0972,-2.50507 -2.0972,-6.13644 z m 3.4177,-4.13628 q -0.019,0.0971 0.2137,0.17478 0.2718,0.11651 0.4272,0.11651 l 5.9616,0 q 0.3108,0 0.6409,-0.11651 0.3495,-0.13594 0.3107,-0.36897 -0.4467,-1.6312 -1.437,-2.5439 -0.9904,-0.9127 -2.2527,-0.9127 -3.8644,0 -3.8644,3.65079 z"
           inkscape:connector-curvature="0" />
        <path
           id="path4352"
           style="font-style:normal;font-variant:normal;font-weight:normal;font-stretch:normal;font-family:ETBembo;-inkscape-font-specification:ETBembo;fill:#cccccc;fill-opacity:1"
           d="m 1054.1176,-279.83313 q 0.078,-0.38838 0.3495,-0.36896 l 0.233,0 q 1.3982,0 1.8254,-0.75735 0.4467,-0.75735 0.4467,-3.37893 l 0,-5.45677 q 0,-2.91287 -0.1554,-3.22358 -0.1553,-0.34954 -1.5535,-0.64083 l -0.7962,-0.15535 q -0.1942,-0.0388 -0.1942,-0.5049 0,-0.48548 0.1942,-0.56315 0.6408,-0.11652 2.3109,-0.83502 1.67,-0.71851 2.3885,-0.87387 0.1942,-0.0388 0.3302,-0.0388 0.5825,0 0.5825,0.7185 l 0,2.17495 q 0,0.11651 0.136,0.36896 0.1359,0.23303 0.2913,0.11651 1.8642,-1.3205 3.3012,-2.039 1.6701,-0.79619 2.7964,-0.79619 4.4081,0 4.4081,7.16566 0,1.18457 -0.1553,3.57312 -0.1554,2.38855 -0.1554,3.63137 0,0.9127 0.3107,1.18457 0.3301,0.25245 1.6701,0.25245 0.3495,-0.23303 0.6408,0.11651 0.1165,0.21361 0.1165,0.48548 0,0.15536 -0.039,0.34955 -0.039,0.23303 -0.1166,0.29128 -0.078,0.0583 -0.3689,0.0583 -0.078,0 -0.1165,0 -0.8351,0 -3.7479,-0.0194 -0.971,0 -1.7283,0 -1.4953,0 -2.0779,0.0194 -0.3884,0 -0.5049,-0.11651 -0.097,-0.11652 -0.1359,-0.52432 0,-0.67967 0.3301,-0.66025 l 0.2719,0 q 1.3205,-0.11652 1.806,-0.56316 0.5049,-0.44664 0.6214,-1.67004 0.233,-2.31088 0.233,-7.0103 0,-4.40815 -2.8934,-4.40815 -1.8643,0 -4.8937,2.34972 l 0,8.99105 q 0,1.5147 0.4273,1.9225 0.4466,0.38838 2.0001,0.38838 0.2719,0 0.3496,0.66025 0,0.64083 -0.5438,0.67967 -0.466,-0.0194 -1.4176,-0.0194 -0.9321,0 -2.3691,0.0194 -0.9515,0.0194 -1.6895,0.0194 -1.4952,0 -2.1361,-0.0583 -0.4854,0 -0.5437,-0.19419 -0.078,-0.15535 -0.078,-0.36896 0,-0.13594 0.039,-0.29129 z"
           inkscape:connector-curvature="0" />
        <path
           id="path4354"
           style="font-style:normal;font-variant:normal;font-weight:normal;font-stretch:normal;font-family:ETBembo;-inkscape-font-specification:ETBembo;fill:#cccccc;fill-opacity:1"
           d="m 1075.3427,-291.50402 q 0,-2.15553 1.4952,-3.49545 1.5147,-1.35934 3.8645,-1.35934 1.5146,0 3.34,0.75735 0.1166,1.59237 0.1166,2.77693 0,0.71851 -0.039,1.28167 0,0.19419 -0.5437,0.19419 -0.233,0 -0.4078,-0.0583 -0.1554,-0.0583 -0.1165,-0.13593 -0.2719,-1.59237 -1.0681,-2.46623 -0.7962,-0.87386 -1.9225,-0.87386 -0.9515,0 -1.5729,0.60199 -0.602,0.58257 -0.602,1.49527 0,1.39818 2.3885,3.1459 0.3884,0.27187 1.204,0.8156 0.8156,0.54374 1.3982,1.0098 0.602,0.44664 1.0875,0.97096 1.3593,1.47585 1.3593,3.30125 0,2.05842 -1.5341,3.47602 -1.5341,1.39818 -3.6896,1.39818 -1.0293,0 -1.9808,-0.27187 -0.039,0 -0.3495,-0.11652 -0.2913,-0.11651 -0.4467,-0.15535 -0.3107,0 -0.5243,0.5049 -0.466,0.13593 -0.602,0.13593 0,0 -0.019,0 -0.3495,-0.0388 -0.4078,-0.4078 -0.3495,-2.79635 -0.3495,-4.25279 0,-0.15535 0,-0.27187 -0.039,-0.23302 0.1941,-0.29128 0.2331,-0.0777 0.602,-0.0388 0.1942,0.0777 0.2719,0.4078 0.835,3.57312 3.4954,3.57312 1.0681,0 1.8254,-0.75735 0.7574,-0.75734 0.7574,-1.78656 0,-0.38838 -0.097,-0.75734 -0.097,-0.38838 -0.3884,-0.75735 -0.2719,-0.38838 -0.4466,-0.62141 -0.1748,-0.25245 -0.6603,-0.60199 -0.466,-0.36897 -0.6408,-0.5049 -0.1554,-0.13593 -0.7185,-0.5049 -0.5438,-0.38838 -0.6214,-0.42722 -1.1069,-0.75734 -1.7866,-1.30108 -0.6797,-0.56315 -1.2817,-1.53411 -0.5825,-0.99037 -0.5825,-2.09726 z"
           inkscape:connector-curvature="0" />
        <path
           id="path4356"
           style="font-style:normal;font-variant:normal;font-weight:normal;font-stretch:normal;font-family:ETBembo;-inkscape-font-specification:ETBembo;fill:#cccccc;fill-opacity:1"
           d="m 1087.402,-287.29007 q 0,-3.82557 2.5633,-6.35006 2.5633,-2.52448 6.3889,-2.52448 3.8644,0 6.486,2.56332 2.5827,2.52449 2.5827,6.23354 0,0.0583 0,0.11651 0,3.68964 -2.5827,6.25296 -2.5828,2.54391 -6.3695,2.54391 -3.8644,0 -6.4666,-2.52449 -2.6021,-2.52449 -2.6021,-6.31121 z m 3.4566,-1.26225 q 0,3.61196 1.7865,6.11703 1.806,2.50506 4.3111,2.50506 2.1167,0 3.5148,-1.78656 1.4176,-1.80597 1.4176,-4.58291 0,-3.4566 -1.8254,-5.94225 -1.806,-2.48565 -4.2722,-2.48565 -2.1167,0 -3.5343,1.74772 -1.3981,1.74772 -1.3981,4.42756 z"
           inkscape:connector-curvature="0" />
        <path
           id="path4358"
           style="font-style:normal;font-variant:normal;font-weight:normal;font-stretch:normal;font-family:ETBembo;-inkscape-font-specification:ETBembo;fill:#cccccc;fill-opacity:1"
           d="m 1107.0153,-279.61952 q 0,-0.27187 0,-0.33013 0,-0.0582 0.058,-0.17477 0.058,-0.11651 0.1554,-0.11651 0.097,0 0.3107,0 1.437,0 1.8836,-0.73793 0.4467,-0.73793 0.4467,-3.32067 l 0,-7.65113 q -0.1165,-0.52432 -0.3884,-0.58258 l -1.67,-0.64083 q -0.602,-0.23303 -0.6797,-0.48548 0,-0.0388 0,-0.11651 l 0,-0.31071 q 0,-0.34954 0.3107,-0.44664 0.4855,-0.23303 2.3497,-0.87386 1.437,-0.48548 2.3886,-0.95154 0.1747,-0.0777 0.3107,-0.0777 0.1359,0 0.2136,0.0583 0.1942,0.13593 0.1942,0.50489 0,0.48548 0,1.4176 0,0.93212 0.039,1.35934 0,0.15535 0.058,0.23303 0.058,0.0777 0.097,0.0582 0.039,-0.0194 0.078,-0.0194 1.1846,-2.58274 1.806,-2.89344 0.5049,-0.27187 1.1652,-0.27187 1.0486,0 2.5244,0.66025 0.1166,0.0388 0.3496,0.11651 0.2524,0.0777 0.3301,0.0971 0.369,0.0583 0.369,0.33012 0,0.0583 -0.019,0.13594 -0.3107,0.95153 -1.1458,2.50506 -0.5243,-0.0388 -1.4758,-0.50489 -0.8739,-0.44664 -1.437,-0.44664 -1.3205,0 -2.6605,2.5439 0,6.91321 0.039,7.96184 0.039,1.5147 0.4466,1.9225 0.4272,0.38838 1.9419,0.38838 l 0.8739,0 q 0.2719,0 0.3884,0.54373 0.1359,0.52432 -0.1554,0.75735 -0.039,0.0388 -0.5437,0.0388 -3.1848,-0.0583 -5.3014,-0.0583 -2.1167,0 -3.1654,0.0583 -0.058,0 -0.097,0 -0.2137,0 -0.2913,-0.13594 -0.078,-0.17477 -0.097,-0.54373 z"
           inkscape:connector-curvature="0" />
        <path
           id="path4360"
           style="font-style:normal;font-variant:normal;font-weight:normal;font-stretch:normal;font-family:ETBembo;-inkscape-font-specification:ETBembo;fill:#cccccc;fill-opacity:1"
           d="m 1121.5602,-291.50402 q 0,-2.15553 1.4953,-3.49545 1.5147,-1.35934 3.8644,-1.35934 1.5147,0 3.3401,0.75735 0.1165,1.59237 0.1165,2.77693 0,0.71851 -0.039,1.28167 0,0.19419 -0.5437,0.19419 -0.233,0 -0.4078,-0.0583 -0.1554,-0.0583 -0.1165,-0.13593 -0.2719,-1.59237 -1.0681,-2.46623 -0.7962,-0.87386 -1.9225,-0.87386 -0.9515,0 -1.5729,0.60199 -0.602,0.58257 -0.602,1.49527 0,1.39818 2.3885,3.1459 0.3884,0.27187 1.204,0.8156 0.8156,0.54374 1.3982,1.0098 0.602,0.44664 1.0875,0.97096 1.3593,1.47585 1.3593,3.30125 0,2.05842 -1.5341,3.47602 -1.5341,1.39818 -3.6896,1.39818 -1.0292,0 -1.9808,-0.27187 -0.039,0 -0.3495,-0.11652 -0.2913,-0.11651 -0.4467,-0.15535 -0.3107,0 -0.5243,0.5049 -0.466,0.13593 -0.602,0.13593 0,0 -0.019,0 -0.3495,-0.0388 -0.4078,-0.4078 -0.3495,-2.79635 -0.3495,-4.25279 0,-0.15535 0,-0.27187 -0.039,-0.23302 0.1942,-0.29128 0.233,-0.0777 0.602,-0.0388 0.1941,0.0777 0.2718,0.4078 0.835,3.57312 3.4955,3.57312 1.068,0 1.8254,-0.75735 0.7573,-0.75734 0.7573,-1.78656 0,-0.38838 -0.097,-0.75734 -0.097,-0.38838 -0.3884,-0.75735 -0.2718,-0.38838 -0.4466,-0.62141 -0.1748,-0.25245 -0.6603,-0.60199 -0.466,-0.36897 -0.6408,-0.5049 -0.1553,-0.13593 -0.7185,-0.5049 -0.5437,-0.38838 -0.6214,-0.42722 -1.1069,-0.75734 -1.7866,-1.30108 -0.6796,-0.56315 -1.2816,-1.53411 -0.5826,-0.99037 -0.5826,-2.09726 z"
           inkscape:connector-curvature="0" />
        <path
           id="path4362"
           style="font-style:normal;font-variant:normal;font-weight:normal;font-stretch:normal;font-family:ETBembo;-inkscape-font-specification:ETBembo;fill:#cccccc;fill-opacity:1"
           d="m 1133.6195,-286.64924 q 0,-3.98092 2.5633,-6.68018 2.5633,-2.69926 6.3889,-2.69926 1.3982,0 3.3012,0.62141 0.1554,0.0388 0.2913,-0.13593 0.136,-0.17477 0.136,-0.58258 0.058,-1.35933 0.058,-3.41776 0,-2.07785 -0.058,-4.85478 -0.1942,-0.56316 -0.3107,-0.62142 -0.2331,-0.15535 -0.602,-0.19419 -0.3496,-0.0582 -0.8545,-0.0777 -0.4855,-0.0194 -0.6991,-0.0583 -0.3884,-0.0777 -0.4272,-0.27187 -0.078,-0.38838 -0.039,-0.56315 0.078,-0.31071 0.3884,-0.34955 2.7769,-0.87386 5.0101,-1.70888 0.1553,-0.0583 0.2524,-0.0583 0.1554,0 0.2719,0.11652 0.1554,0.21361 0.1554,0.66025 l 0,23.80784 q 0,1.59237 0.1941,1.94192 0.2137,0.33012 0.8933,0.33012 0.1554,0 0.8739,-0.23303 0.039,0 0.2136,-0.0583 0.1748,-0.0582 0.2719,-0.0777 0.097,-0.0194 0.233,-0.0194 0.1553,0 0.2524,0.0777 0.097,0.0777 0.136,0.23303 0.097,0.3107 0.097,0.50489 0,0.31071 -0.2136,0.4078 -2.6605,1.3205 -5.3791,2.00017 -0.2719,0.11652 -0.4467,-0.0194 -0.1747,-0.11651 -0.2524,-0.36896 -0.058,-0.25245 -0.058,-0.48548 0,-0.25245 0.039,-0.52431 l 0,-0.33013 q 0,-0.27187 -0.1166,-0.48548 -0.1165,-0.21361 -0.3107,-0.0971 -3.5731,2.46623 -5.6121,2.46623 -2.7769,0 -4.7188,-2.40797 -1.9225,-2.40798 -1.9225,-5.7869 z m 3.1847,-1.24283 q 0,3.06822 1.3982,5.12665 1.4176,2.03901 3.5343,2.03901 1.7088,0 4.1362,-1.63121 0.3107,-0.15535 0.3884,-0.9127 l 0,-8.15603 q -2.1167,-3.02938 -4.5635,-3.02938 -2.1943,0 -3.5537,1.8254 -1.3399,1.80597 -1.3399,4.73826 z"
           inkscape:connector-curvature="0" />
        <path
           id="path4364"
           style="font-style:normal;font-variant:normal;font-weight:normal;font-stretch:normal;font-family:ETBembo;-inkscape-font-specification:ETBembo;fill:#cccccc;fill-opacity:1"
           d="m 1154.1261,-282.16343 q 0,-2.9517 4.2139,-4.05859 1.5924,-0.44664 3.7867,-1.45644 0.4467,-0.27186 0.4273,-0.7185 l -0.039,-2.54391 q -0.078,-3.57312 -2.6992,-3.59254 -0.6797,0 -1.4759,0.58258 -0.7962,0.58257 -0.7962,1.20398 0,0.67967 0.1165,0.97096 -0.1942,0.19419 -1.1263,0.66025 -0.9321,0.44664 -1.2428,0.52431 -0.5243,0.1942 -0.7379,0.0777 -0.1942,-0.11651 -0.1942,-0.67967 0,-1.47585 2.5245,-3.37893 2.0196,-1.6312 3.7284,-1.6312 1.2817,0 2.5245,0.64083 1.2623,0.64083 1.9225,1.6312 0.4855,0.64084 0.5826,1.22341 0.097,0.56315 0.097,2.48565 l 0,7.22391 q 0,1.18457 0.1942,1.57295 0.2136,0.38838 0.6797,0.38838 0.4854,0 0.7185,-0.13593 0.4854,-0.15535 0.9515,-0.58257 0.1942,-0.11652 0.369,-0.11652 0.3883,0.0777 0.3883,0.46606 0,0.21361 -0.1165,0.52432 -2.6216,2.31087 -4.2139,2.31087 -1.7089,0 -2.0779,-2.07784 -0.1165,-0.11652 -0.1553,-0.11652 -0.039,0 -0.233,0.15535 l -0.1942,0.15536 q -1.2817,1.10689 -2.1167,1.49527 -0.835,0.38838 -1.9419,0.38838 -1.7089,0 -2.7964,-0.99037 -1.068,-1.0098 -1.068,-2.60217 z m 3.0682,-0.52431 q 0,0.93212 0.6214,1.57295 0.6408,0.62141 1.5729,0.62141 0.6409,0 1.7672,-0.71851 1.1263,-0.73793 1.3593,-1.37876 l 0,-3.30125 q 0,-0.0777 0,-0.15535 0,-0.0971 -0.039,-0.21361 -0.039,-0.11652 -0.1165,-0.11652 -0.078,0 -0.1942,0.0388 -0.9127,0.44664 -2.8352,1.24283 -2.1361,0.87386 -2.1361,2.40797 z"
           inkscape:connector-curvature="0" />
        <path
           id="path4366"
           style="font-style:normal;font-variant:normal;font-weight:normal;font-stretch:normal;font-family:ETBembo;-inkscape-font-specification:ETBembo;fill:#cccccc;fill-opacity:1"
           d="m 1170.4381,-294.57225 q 0.078,-0.15535 0.3107,-0.27186 2.2721,-1.14573 3.6702,-5.04898 0,-0.13593 0.2525,-0.25245 0.1553,-0.0583 0.3107,-0.0777 0.097,0 0.1748,0.0388 0.233,0.0777 0.2524,0.29128 -0.058,1.16515 -0.058,2.05843 0,0.87386 0.058,1.43702 0.039,0.15535 0.1942,0.34954 0.1554,0.17477 0.2913,0.17477 l 4.4081,0 q 0.6797,0 0.4661,0.62141 -0.078,0.64084 -0.3495,1.3205 -0.1942,0.31071 -0.6409,0.31071 l -3.7673,-0.0777 q -0.1553,0 -0.3689,0.17478 -0.1942,0.15535 -0.2331,0.3107 l 0,7.02973 q 0,3.06822 0.5438,4.17511 0.5631,1.08747 2.0001,1.08747 1.2817,0 2.3886,-2.11669 0.039,-0.19419 0.3884,-0.17477 0.3689,0.0194 0.5243,0.21361 0.1165,0.13594 0.1165,0.34955 0,0.17477 -0.078,0.4078 -1.6312,3.61195 -4.6606,3.63137 -1.8642,0 -3.0682,-1.39817 -1.1846,-1.39818 -1.1846,-3.57312 l 0,-1.63121 0,-7.96184 q 0,-0.34954 -0.233,-0.44664 l -0.7962,0 q -0.3107,0 -0.7962,-0.11651 -0.1747,-0.29129 -0.1747,-0.54374 0,-0.15535 0.058,-0.29129 z"
           inkscape:connector-curvature="0" />
        <path
           id="path4368"
           style="font-style:normal;font-variant:normal;font-weight:normal;font-stretch:normal;font-family:ETBembo;-inkscape-font-specification:ETBembo;fill:#cccccc;fill-opacity:1"
           d="m 1183.2547,-282.16343 q 0,-2.9517 4.214,-4.05859 1.5924,-0.44664 3.7867,-1.45644 0.4467,-0.27186 0.4272,-0.7185 l -0.039,-2.54391 q -0.078,-3.57312 -2.6992,-3.59254 -0.6797,0 -1.4759,0.58258 -0.7962,0.58257 -0.7962,1.20398 0,0.67967 0.1165,0.97096 -0.1942,0.19419 -1.1263,0.66025 -0.9321,0.44664 -1.2428,0.52431 -0.5243,0.1942 -0.7379,0.0777 -0.1942,-0.11651 -0.1942,-0.67967 0,-1.47585 2.5245,-3.37893 2.0196,-1.6312 3.7284,-1.6312 1.2817,0 2.5245,0.64083 1.2623,0.64083 1.9225,1.6312 0.4855,0.64084 0.5826,1.22341 0.097,0.56315 0.097,2.48565 l 0,7.22391 q 0,1.18457 0.1942,1.57295 0.2136,0.38838 0.6796,0.38838 0.4855,0 0.7186,-0.13593 0.4854,-0.15535 0.9515,-0.58257 0.1942,-0.11652 0.369,-0.11652 0.3883,0.0777 0.3883,0.46606 0,0.21361 -0.1165,0.52432 -2.6216,2.31087 -4.2139,2.31087 -1.7089,0 -2.0779,-2.07784 -0.1165,-0.11652 -0.1553,-0.11652 -0.039,0 -0.2331,0.15535 l -0.1941,0.15536 q -1.2817,1.10689 -2.1167,1.49527 -0.8351,0.38838 -1.9419,0.38838 -1.7089,0 -2.7964,-0.99037 -1.0681,-1.0098 -1.0681,-2.60217 z m 3.0683,-0.52431 q 0,0.93212 0.6214,1.57295 0.6408,0.62141 1.5729,0.62141 0.6409,0 1.7672,-0.71851 1.1263,-0.73793 1.3593,-1.37876 l 0,-3.30125 q 0,-0.0777 0,-0.15535 0,-0.0971 -0.039,-0.21361 -0.039,-0.11652 -0.1165,-0.11652 -0.078,0 -0.1942,0.0388 -0.9127,0.44664 -2.8352,1.24283 -2.1361,0.87386 -2.1361,2.40797 z"
           inkscape:connector-curvature="0" />
      </g>
      <g
         id="text4233"
         style="font-style:normal;font-weight:normal;font-size:39.77036667px;line-height:125%;font-family:sans-serif;letter-spacing:0px;word-spacing:0px;fill:#f9f9f9;fill-opacity:1;stroke:none;stroke-width:1px;stroke-linecap:butt;stroke-linejoin:miter;stroke-opacity:1">
        <path
           id="path4308"
           style="font-style:normal;font-variant:normal;font-weight:normal;font-stretch:normal;font-family:ETBembo;-inkscape-font-specification:ETBembo;fill:#f9f9f9;fill-opacity:1"
           d="m 945.97264,-289.29007 q 0,-3.82557 2.56332,-6.35006 2.56332,-2.52448 6.38889,-2.52448 3.86441,0 6.48599,2.56332 2.58274,2.52449 2.58274,6.23354 0,0.0583 0,0.11651 0,3.68964 -2.58274,6.25296 -2.58274,2.54391 -6.36947,2.54391 -3.86441,0 -6.46657,-2.52449 -2.60216,-2.52449 -2.60216,-6.31121 z m 3.4566,-1.26225 q 0,3.61196 1.78656,6.11703 1.80598,2.50506 4.31104,2.50506 2.11669,0 3.51487,-1.78656 1.41759,-1.80597 1.41759,-4.58291 0,-3.4566 -1.8254,-5.94225 -1.80597,-2.48565 -4.2722,-2.48565 -2.11669,0 -3.53428,1.74772 -1.39818,1.74772 -1.39818,4.42756 z"
           inkscape:connector-curvature="0" />
        <path
           id="path4310"
           style="font-style:normal;font-variant:normal;font-weight:normal;font-stretch:normal;font-family:ETBembo;-inkscape-font-specification:ETBembo;fill:#f9f9f9;fill-opacity:1"
           d="m 965.04221,-270.91958 q 0.0583,-0.42722 0.38839,-0.42722 l 0.34954,0 q 1.67005,0 2.09727,-0.77677 0.44664,-0.77676 0.44664,-3.68963 l 0,-16.46742 0,-0.95154 q 0,-0.75734 -0.17478,-0.95153 -0.17477,-0.1942 -0.85444,-0.38839 -0.23303,-0.0777 -0.69909,-0.23303 -0.44663,-0.17477 -0.69908,-0.21361 -0.23303,-0.0388 -0.25245,-0.36896 -0.0194,-0.34954 0.0971,-0.46606 0.0388,-0.0777 0.23303,-0.27187 l 4.38873,-2.75751 q 0.42722,-0.27187 0.67966,-0.27187 0.38839,0 0.38839,0.60199 l 0,2.46623 q 0,0.79619 0.3107,0.75735 0.0388,0 0.0777,-0.0388 3.57312,-2.54391 5.65096,-2.54391 2.50507,0 4.34989,2.38856 1.86423,2.36913 1.86423,5.51503 0,3.78673 -2.641,6.6025 -2.62158,2.79635 -6.15586,2.79635 -1.18457,0 -2.97113,-0.56315 -0.23302,-0.0777 -0.36896,0.0194 -0.11651,0.0971 -0.11651,0.62141 l 0,4.71885 q 0,2.85461 0.44664,3.59254 0.46606,0.75734 2.1361,0.75734 l 0.56315,0 q 0.602,0 0.71851,0.31071 0.15536,0.56315 -0.0388,0.9127 -0.11651,0.23303 -0.52431,0.23303 -0.89328,-0.0388 -2.34972,-0.0388 -1.10689,0 -2.5439,0.0194 -2.00017,0.0388 -3.06822,0.0388 -0.69909,0 -0.99038,-0.0194 -0.52431,0 -0.64083,-0.1942 -0.11651,-0.19419 -0.11651,-0.48547 0,-0.0971 0.0194,-0.23303 z m 6.3889,-13.51571 q 2.27203,2.15552 4.58291,2.15552 1.98075,0 3.26241,-1.74772 1.30108,-1.76714 1.30108,-4.42756 0,-3.02939 -1.47585,-5.04897 -1.45643,-2.01959 -3.61196,-2.01959 -1.67004,0 -3.82556,1.70888 -0.23303,0.23303 -0.23303,0.69909 l 0,8.68035 z"
           inkscape:connector-curvature="0" />
        <path
           id="path4312"
           style="font-style:normal;font-variant:normal;font-weight:normal;font-stretch:normal;font-family:ETBembo;-inkscape-font-specification:ETBembo;fill:#f9f9f9;fill-opacity:1"
           d="m 985.70416,-289.09588 q 0,-3.90325 2.3303,-6.46657 2.33029,-2.56333 5.82573,-2.56333 4.09744,0 5.72865,3.51487 l 0.3107,0.66025 q 0.38836,0.75734 0.79616,1.28166 0.058,0.17477 0.058,0.4078 0,0.0971 -0.019,0.21361 -0.039,0.34954 -0.5438,0.36896 -1.53408,0.0583 -4.1945,0.0583 -2.66042,0 -6.46657,-0.0583 -0.71851,0 -0.75735,0.4078 -0.0777,0.44664 -0.0777,1.18457 0,3.06822 1.70888,5.08781 1.70888,2.00017 4.25279,2.00017 2.77693,0 4.93246,-2.5439 0.19419,-0.27187 0.60199,-0.21361 0.2331,0.0777 0.369,0.36896 0.1359,0.27187 0.019,0.46606 -1.32052,1.55353 -2.81579,2.75751 -2.2332,1.70889 -4.69943,1.70889 -3.1459,0 -5.26258,-2.50507 -2.09727,-2.50507 -2.09727,-6.13644 z m 3.41777,-4.13628 q -0.0194,0.0971 0.21361,0.17478 0.27187,0.11651 0.42722,0.11651 l 5.96167,0 q 0.31071,0 0.64083,-0.11651 0.34955,-0.13594 0.31071,-0.36897 -0.44664,-1.6312 -1.43702,-2.5439 -0.99037,-0.9127 -2.25262,-0.9127 -3.8644,0 -3.8644,3.65079 z"
           inkscape:connector-curvature="0" />
        <path
           id="path4314"
           style="font-style:normal;font-variant:normal;font-weight:normal;font-stretch:normal;font-family:ETBembo;-inkscape-font-specification:ETBembo;fill:#f9f9f9;fill-opacity:1"
           d="m 1002.2493,-281.83313 q 0.078,-0.38838 0.3495,-0.36896 l 0.233,0 q 1.3982,0 1.8254,-0.75735 0.4467,-0.75735 0.4467,-3.37893 l 0,-5.45677 q 0,-2.91287 -0.1554,-3.22358 -0.1553,-0.34954 -1.5535,-0.64083 l -0.7962,-0.15535 q -0.1942,-0.0388 -0.1942,-0.5049 0,-0.48548 0.1942,-0.56315 0.6408,-0.11652 2.3109,-0.83502 1.67,-0.71851 2.3885,-0.87387 0.1942,-0.0388 0.3302,-0.0388 0.5825,0 0.5825,0.7185 l 0,2.17495 q 0,0.11651 0.136,0.36896 0.1359,0.23303 0.2913,0.11651 1.8642,-1.3205 3.3012,-2.039 1.67,-0.79619 2.7964,-0.79619 4.4081,0 4.4081,7.16566 0,1.18457 -0.1554,3.57312 -0.1553,2.38855 -0.1553,3.63137 0,0.9127 0.3107,1.18457 0.3301,0.25245 1.67,0.25245 0.3496,-0.23303 0.6409,0.11651 0.1165,0.21361 0.1165,0.48548 0,0.15536 -0.039,0.34955 -0.039,0.23303 -0.1166,0.29128 -0.078,0.0583 -0.3689,0.0583 -0.078,0 -0.1165,0 -0.8351,0 -3.7479,-0.0194 -0.971,0 -1.7283,0 -1.4953,0 -2.0779,0.0194 -0.3884,0 -0.5049,-0.11651 -0.097,-0.11652 -0.1359,-0.52432 0,-0.67967 0.3301,-0.66025 l 0.2719,0 q 1.3205,-0.11652 1.806,-0.56316 0.5049,-0.44664 0.6214,-1.67004 0.233,-2.31088 0.233,-7.0103 0,-4.40815 -2.8934,-4.40815 -1.8643,0 -4.8937,2.34972 l 0,8.99105 q 0,1.5147 0.4273,1.9225 0.4466,0.38838 2.0001,0.38838 0.2719,0 0.3496,0.66025 0,0.64083 -0.5438,0.67967 -0.466,-0.0194 -1.4176,-0.0194 -0.9321,0 -2.3691,0.0194 -0.9515,0.0194 -1.6895,0.0194 -1.4952,0 -2.1361,-0.0583 -0.4854,0 -0.5437,-0.19419 -0.078,-0.15535 -0.078,-0.36896 0,-0.13594 0.039,-0.29129 z"
           inkscape:connector-curvature="0" />
        <path
           id="path4316"
           style="font-style:normal;font-variant:normal;font-weight:normal;font-stretch:normal;font-family:ETBembo;-inkscape-font-specification:ETBembo;fill:#f9f9f9;fill-opacity:1"
           d="m 1023.4744,-293.50402 q 0,-2.15553 1.4952,-3.49545 1.5147,-1.35934 3.8644,-1.35934 1.5147,0 3.3401,0.75735 0.1165,1.59237 0.1165,2.77693 0,0.71851 -0.039,1.28167 0,0.19419 -0.5437,0.19419 -0.2331,0 -0.4078,-0.0583 -0.1554,-0.0583 -0.1165,-0.13593 -0.2719,-1.59237 -1.0681,-2.46623 -0.7962,-0.87386 -1.9225,-0.87386 -0.9515,0 -1.5729,0.60199 -0.602,0.58257 -0.602,1.49527 0,1.39818 2.3885,3.1459 0.3884,0.27187 1.204,0.8156 0.8156,0.54374 1.3982,1.0098 0.602,0.44664 1.0875,0.97096 1.3593,1.47585 1.3593,3.30125 0,2.05842 -1.5341,3.47602 -1.5341,1.39818 -3.6897,1.39818 -1.0292,0 -1.9807,-0.27187 -0.039,0 -0.3495,-0.11652 -0.2913,-0.11651 -0.4467,-0.15535 -0.3107,0 -0.5243,0.5049 -0.4661,0.13593 -0.602,0.13593 0,0 -0.019,0 -0.3496,-0.0388 -0.4078,-0.4078 -0.3496,-2.79635 -0.3496,-4.25279 0,-0.15535 0,-0.27187 -0.039,-0.23302 0.1942,-0.29128 0.2331,-0.0777 0.602,-0.0388 0.1942,0.0777 0.2719,0.4078 0.835,3.57312 3.4954,3.57312 1.0681,0 1.8254,-0.75735 0.7574,-0.75734 0.7574,-1.78656 0,-0.38838 -0.097,-0.75734 -0.097,-0.38838 -0.3884,-0.75735 -0.2719,-0.38838 -0.4466,-0.62141 -0.1748,-0.25245 -0.6603,-0.60199 -0.4661,-0.36897 -0.6408,-0.5049 -0.1554,-0.13593 -0.7185,-0.5049 -0.5438,-0.38838 -0.6214,-0.42722 -1.1069,-0.75734 -1.7866,-1.30108 -0.6797,-0.56315 -1.2817,-1.53411 -0.5825,-0.99037 -0.5825,-2.09726 z"
           inkscape:connector-curvature="0" />
        <path
           id="path4319"
           style="font-style:normal;font-variant:normal;font-weight:normal;font-stretch:normal;font-family:ETBembo;-inkscape-font-specification:ETBembo;fill:#f9f9f9;fill-opacity:1"
           d="m 1035.5725,-289.09588 q 0,-3.90325 2.3303,-6.46657 2.3303,-2.56333 5.8257,-2.56333 4.0974,0 5.7287,3.51487 l 0.3107,0.66025 q 0.3883,0.75734 0.7961,1.28166 0.058,0.17477 0.058,0.4078 0,0.0971 -0.019,0.21361 -0.039,0.34954 -0.5438,0.36896 -1.5341,0.0583 -4.1945,0.0583 -2.6604,0 -6.4666,-0.0583 -0.7185,0 -0.7573,0.4078 -0.078,0.44664 -0.078,1.18457 0,3.06822 1.7089,5.08781 1.7089,2.00017 4.2528,2.00017 2.7769,0 4.9325,-2.5439 0.1941,-0.27187 0.6019,-0.21361 0.2331,0.0777 0.369,0.36896 0.1359,0.27187 0.019,0.46606 -1.3205,1.55353 -2.8157,2.75751 -2.2332,1.70889 -4.6995,1.70889 -3.1459,0 -5.2626,-2.50507 -2.0972,-2.50507 -2.0972,-6.13644 z m 3.4177,-4.13628 q -0.019,0.0971 0.2137,0.17478 0.2718,0.11651 0.4272,0.11651 l 5.9616,0 q 0.3108,0 0.6409,-0.11651 0.3495,-0.13594 0.3107,-0.36897 -0.4467,-1.6312 -1.437,-2.5439 -0.9904,-0.9127 -2.2527,-0.9127 -3.8644,0 -3.8644,3.65079 z"
           inkscape:connector-curvature="0" />
        <path
           id="path4321"
           style="font-style:normal;font-variant:normal;font-weight:normal;font-stretch:normal;font-family:ETBembo;-inkscape-font-specification:ETBembo;fill:#f9f9f9;fill-opacity:1"
           d="m 1052.1176,-281.83313 q 0.078,-0.38838 0.3495,-0.36896 l 0.233,0 q 1.3982,0 1.8254,-0.75735 0.4467,-0.75735 0.4467,-3.37893 l 0,-5.45677 q 0,-2.91287 -0.1554,-3.22358 -0.1553,-0.34954 -1.5535,-0.64083 l -0.7962,-0.15535 q -0.1942,-0.0388 -0.1942,-0.5049 0,-0.48548 0.1942,-0.56315 0.6408,-0.11652 2.3109,-0.83502 1.67,-0.71851 2.3885,-0.87387 0.1942,-0.0388 0.3302,-0.0388 0.5825,0 0.5825,0.7185 l 0,2.17495 q 0,0.11651 0.136,0.36896 0.1359,0.23303 0.2913,0.11651 1.8642,-1.3205 3.3012,-2.039 1.6701,-0.79619 2.7964,-0.79619 4.4081,0 4.4081,7.16566 0,1.18457 -0.1553,3.57312 -0.1554,2.38855 -0.1554,3.63137 0,0.9127 0.3107,1.18457 0.3301,0.25245 1.6701,0.25245 0.3495,-0.23303 0.6408,0.11651 0.1165,0.21361 0.1165,0.48548 0,0.15536 -0.039,0.34955 -0.039,0.23303 -0.1166,0.29128 -0.078,0.0583 -0.3689,0.0583 -0.078,0 -0.1165,0 -0.8351,0 -3.7479,-0.0194 -0.971,0 -1.7283,0 -1.4953,0 -2.0779,0.0194 -0.3884,0 -0.5049,-0.11651 -0.097,-0.11652 -0.1359,-0.52432 0,-0.67967 0.3301,-0.66025 l 0.2719,0 q 1.3205,-0.11652 1.806,-0.56316 0.5049,-0.44664 0.6214,-1.67004 0.233,-2.31088 0.233,-7.0103 0,-4.40815 -2.8934,-4.40815 -1.8643,0 -4.8937,2.34972 l 0,8.99105 q 0,1.5147 0.4273,1.9225 0.4466,0.38838 2.0001,0.38838 0.2719,0 0.3496,0.66025 0,0.64083 -0.5438,0.67967 -0.466,-0.0194 -1.4176,-0.0194 -0.9321,0 -2.3691,0.0194 -0.9515,0.0194 -1.6895,0.0194 -1.4952,0 -2.1361,-0.0583 -0.4854,0 -0.5437,-0.19419 -0.078,-0.15535 -0.078,-0.36896 0,-0.13594 0.039,-0.29129 z"
           inkscape:connector-curvature="0" />
        <path
           id="path4323"
           style="font-style:normal;font-variant:normal;font-weight:normal;font-stretch:normal;font-family:ETBembo;-inkscape-font-specification:ETBembo;fill:#f9f9f9;fill-opacity:1"
           d="m 1073.3427,-293.50402 q 0,-2.15553 1.4952,-3.49545 1.5147,-1.35934 3.8645,-1.35934 1.5146,0 3.34,0.75735 0.1166,1.59237 0.1166,2.77693 0,0.71851 -0.039,1.28167 0,0.19419 -0.5437,0.19419 -0.233,0 -0.4078,-0.0583 -0.1554,-0.0583 -0.1165,-0.13593 -0.2719,-1.59237 -1.0681,-2.46623 -0.7962,-0.87386 -1.9225,-0.87386 -0.9515,0 -1.5729,0.60199 -0.602,0.58257 -0.602,1.49527 0,1.39818 2.3885,3.1459 0.3884,0.27187 1.204,0.8156 0.8156,0.54374 1.3982,1.0098 0.602,0.44664 1.0875,0.97096 1.3593,1.47585 1.3593,3.30125 0,2.05842 -1.5341,3.47602 -1.5341,1.39818 -3.6896,1.39818 -1.0293,0 -1.9808,-0.27187 -0.039,0 -0.3495,-0.11652 -0.2913,-0.11651 -0.4467,-0.15535 -0.3107,0 -0.5243,0.5049 -0.466,0.13593 -0.602,0.13593 0,0 -0.019,0 -0.3495,-0.0388 -0.4078,-0.4078 -0.3495,-2.79635 -0.3495,-4.25279 0,-0.15535 0,-0.27187 -0.039,-0.23302 0.1941,-0.29128 0.2331,-0.0777 0.602,-0.0388 0.1942,0.0777 0.2719,0.4078 0.835,3.57312 3.4954,3.57312 1.0681,0 1.8254,-0.75735 0.7574,-0.75734 0.7574,-1.78656 0,-0.38838 -0.097,-0.75734 -0.097,-0.38838 -0.3884,-0.75735 -0.2719,-0.38838 -0.4466,-0.62141 -0.1748,-0.25245 -0.6603,-0.60199 -0.466,-0.36897 -0.6408,-0.5049 -0.1554,-0.13593 -0.7185,-0.5049 -0.5438,-0.38838 -0.6214,-0.42722 -1.1069,-0.75734 -1.7866,-1.30108 -0.6797,-0.56315 -1.2817,-1.53411 -0.5825,-0.99037 -0.5825,-2.09726 z"
           inkscape:connector-curvature="0" />
        <path
           id="path4325"
           style="font-style:normal;font-variant:normal;font-weight:normal;font-stretch:normal;font-family:ETBembo;-inkscape-font-specification:ETBembo;fill:#f9f9f9;fill-opacity:1"
           d="m 1085.402,-289.29007 q 0,-3.82557 2.5633,-6.35006 2.5633,-2.52448 6.3889,-2.52448 3.8644,0 6.486,2.56332 2.5827,2.52449 2.5827,6.23354 0,0.0583 0,0.11651 0,3.68964 -2.5827,6.25296 -2.5828,2.54391 -6.3695,2.54391 -3.8644,0 -6.4666,-2.52449 -2.6021,-2.52449 -2.6021,-6.31121 z m 3.4566,-1.26225 q 0,3.61196 1.7865,6.11703 1.806,2.50506 4.3111,2.50506 2.1167,0 3.5148,-1.78656 1.4176,-1.80597 1.4176,-4.58291 0,-3.4566 -1.8254,-5.94225 -1.806,-2.48565 -4.2722,-2.48565 -2.1167,0 -3.5343,1.74772 -1.3981,1.74772 -1.3981,4.42756 z"
           inkscape:connector-curvature="0" />
        <path
           id="path4327"
           style="font-style:normal;font-variant:normal;font-weight:normal;font-stretch:normal;font-family:ETBembo;-inkscape-font-specification:ETBembo;fill:#f9f9f9;fill-opacity:1"
           d="m 1105.0153,-281.61952 q 0,-0.27187 0,-0.33013 0,-0.0582 0.058,-0.17477 0.058,-0.11651 0.1554,-0.11651 0.097,0 0.3107,0 1.437,0 1.8836,-0.73793 0.4467,-0.73793 0.4467,-3.32067 l 0,-7.65113 q -0.1165,-0.52432 -0.3884,-0.58258 l -1.67,-0.64083 q -0.602,-0.23303 -0.6797,-0.48548 0,-0.0388 0,-0.11651 l 0,-0.31071 q 0,-0.34954 0.3107,-0.44664 0.4855,-0.23303 2.3497,-0.87386 1.437,-0.48548 2.3886,-0.95154 0.1747,-0.0777 0.3107,-0.0777 0.1359,0 0.2136,0.0583 0.1942,0.13593 0.1942,0.50489 0,0.48548 0,1.4176 0,0.93212 0.039,1.35934 0,0.15535 0.058,0.23303 0.058,0.0777 0.097,0.0582 0.039,-0.0194 0.078,-0.0194 1.1846,-2.58274 1.806,-2.89344 0.5049,-0.27187 1.1652,-0.27187 1.0486,0 2.5244,0.66025 0.1166,0.0388 0.3496,0.11651 0.2524,0.0777 0.3301,0.0971 0.369,0.0583 0.369,0.33012 0,0.0583 -0.019,0.13594 -0.3107,0.95153 -1.1458,2.50506 -0.5243,-0.0388 -1.4758,-0.50489 -0.8739,-0.44664 -1.437,-0.44664 -1.3205,0 -2.6605,2.5439 0,6.91321 0.039,7.96184 0.039,1.5147 0.4466,1.9225 0.4272,0.38838 1.9419,0.38838 l 0.8739,0 q 0.2719,0 0.3884,0.54373 0.1359,0.52432 -0.1554,0.75735 -0.039,0.0388 -0.5437,0.0388 -3.1848,-0.0583 -5.3014,-0.0583 -2.1167,0 -3.1654,0.0583 -0.058,0 -0.097,0 -0.2137,0 -0.2913,-0.13594 -0.078,-0.17477 -0.097,-0.54373 z"
           inkscape:connector-curvature="0" />
        <path
           id="path4329"
           style="font-style:normal;font-variant:normal;font-weight:normal;font-stretch:normal;font-family:ETBembo;-inkscape-font-specification:ETBembo;fill:#f9f9f9;fill-opacity:1"
           d="m 1119.5602,-293.50402 q 0,-2.15553 1.4953,-3.49545 1.5147,-1.35934 3.8644,-1.35934 1.5147,0 3.3401,0.75735 0.1165,1.59237 0.1165,2.77693 0,0.71851 -0.039,1.28167 0,0.19419 -0.5437,0.19419 -0.233,0 -0.4078,-0.0583 -0.1554,-0.0583 -0.1165,-0.13593 -0.2719,-1.59237 -1.0681,-2.46623 -0.7962,-0.87386 -1.9225,-0.87386 -0.9515,0 -1.5729,0.60199 -0.602,0.58257 -0.602,1.49527 0,1.39818 2.3885,3.1459 0.3884,0.27187 1.204,0.8156 0.8156,0.54374 1.3982,1.0098 0.602,0.44664 1.0875,0.97096 1.3593,1.47585 1.3593,3.30125 0,2.05842 -1.5341,3.47602 -1.5341,1.39818 -3.6896,1.39818 -1.0292,0 -1.9808,-0.27187 -0.039,0 -0.3495,-0.11652 -0.2913,-0.11651 -0.4467,-0.15535 -0.3107,0 -0.5243,0.5049 -0.466,0.13593 -0.602,0.13593 0,0 -0.019,0 -0.3495,-0.0388 -0.4078,-0.4078 -0.3495,-2.79635 -0.3495,-4.25279 0,-0.15535 0,-0.27187 -0.039,-0.23302 0.1942,-0.29128 0.233,-0.0777 0.602,-0.0388 0.1941,0.0777 0.2718,0.4078 0.835,3.57312 3.4955,3.57312 1.068,0 1.8254,-0.75735 0.7573,-0.75734 0.7573,-1.78656 0,-0.38838 -0.097,-0.75734 -0.097,-0.38838 -0.3884,-0.75735 -0.2718,-0.38838 -0.4466,-0.62141 -0.1748,-0.25245 -0.6603,-0.60199 -0.466,-0.36897 -0.6408,-0.5049 -0.1553,-0.13593 -0.7185,-0.5049 -0.5437,-0.38838 -0.6214,-0.42722 -1.1069,-0.75734 -1.7866,-1.30108 -0.6796,-0.56315 -1.2816,-1.53411 -0.5826,-0.99037 -0.5826,-2.09726 z"
           inkscape:connector-curvature="0" />
        <path
           id="path4331"
           style="font-style:normal;font-variant:normal;font-weight:normal;font-stretch:normal;font-family:ETBembo;-inkscape-font-specification:ETBembo;fill:#f9f9f9;fill-opacity:1"
           d="m 1131.6195,-288.64924 q 0,-3.98092 2.5633,-6.68018 2.5633,-2.69926 6.3889,-2.69926 1.3982,0 3.3012,0.62141 0.1554,0.0388 0.2913,-0.13593 0.136,-0.17477 0.136,-0.58258 0.058,-1.35933 0.058,-3.41776 0,-2.07785 -0.058,-4.85478 -0.1942,-0.56316 -0.3107,-0.62142 -0.2331,-0.15535 -0.602,-0.19419 -0.3496,-0.0582 -0.8545,-0.0777 -0.4855,-0.0194 -0.6991,-0.0583 -0.3884,-0.0777 -0.4272,-0.27187 -0.078,-0.38838 -0.039,-0.56315 0.078,-0.31071 0.3884,-0.34955 2.7769,-0.87386 5.0101,-1.70888 0.1553,-0.0583 0.2524,-0.0583 0.1554,0 0.2719,0.11652 0.1554,0.21361 0.1554,0.66025 l 0,23.80784 q 0,1.59237 0.1941,1.94192 0.2137,0.33012 0.8933,0.33012 0.1554,0 0.8739,-0.23303 0.039,0 0.2136,-0.0583 0.1748,-0.0582 0.2719,-0.0777 0.097,-0.0194 0.233,-0.0194 0.1553,0 0.2524,0.0777 0.097,0.0777 0.136,0.23303 0.097,0.3107 0.097,0.50489 0,0.31071 -0.2136,0.4078 -2.6605,1.3205 -5.3791,2.00017 -0.2719,0.11652 -0.4467,-0.0194 -0.1747,-0.11651 -0.2524,-0.36896 -0.058,-0.25245 -0.058,-0.48548 0,-0.25245 0.039,-0.52431 l 0,-0.33013 q 0,-0.27187 -0.1166,-0.48548 -0.1165,-0.21361 -0.3107,-0.0971 -3.5731,2.46623 -5.6121,2.46623 -2.7769,0 -4.7188,-2.40797 -1.9225,-2.40798 -1.9225,-5.7869 z m 3.1847,-1.24283 q 0,3.06822 1.3982,5.12665 1.4176,2.03901 3.5343,2.03901 1.7088,0 4.1362,-1.63121 0.3107,-0.15535 0.3884,-0.9127 l 0,-8.15603 q -2.1167,-3.02938 -4.5635,-3.02938 -2.1943,0 -3.5537,1.8254 -1.3399,1.80597 -1.3399,4.73826 z"
           inkscape:connector-curvature="0" />
        <path
           id="path4333"
           style="font-style:normal;font-variant:normal;font-weight:normal;font-stretch:normal;font-family:ETBembo;-inkscape-font-specification:ETBembo;fill:#f9f9f9;fill-opacity:1"
           d="m 1152.1261,-284.16343 q 0,-2.9517 4.2139,-4.05859 1.5924,-0.44664 3.7867,-1.45644 0.4467,-0.27186 0.4273,-0.7185 l -0.039,-2.54391 q -0.078,-3.57312 -2.6992,-3.59254 -0.6797,0 -1.4759,0.58258 -0.7962,0.58257 -0.7962,1.20398 0,0.67967 0.1165,0.97096 -0.1942,0.19419 -1.1263,0.66025 -0.9321,0.44664 -1.2428,0.52431 -0.5243,0.1942 -0.7379,0.0777 -0.1942,-0.11651 -0.1942,-0.67967 0,-1.47585 2.5245,-3.37893 2.0196,-1.6312 3.7284,-1.6312 1.2817,0 2.5245,0.64083 1.2623,0.64083 1.9225,1.6312 0.4855,0.64084 0.5826,1.22341 0.097,0.56315 0.097,2.48565 l 0,7.22391 q 0,1.18457 0.1942,1.57295 0.2136,0.38838 0.6797,0.38838 0.4854,0 0.7185,-0.13593 0.4854,-0.15535 0.9515,-0.58257 0.1942,-0.11652 0.369,-0.11652 0.3883,0.0777 0.3883,0.46606 0,0.21361 -0.1165,0.52432 -2.6216,2.31087 -4.2139,2.31087 -1.7089,0 -2.0779,-2.07784 -0.1165,-0.11652 -0.1553,-0.11652 -0.039,0 -0.233,0.15535 l -0.1942,0.15536 q -1.2817,1.10689 -2.1167,1.49527 -0.835,0.38838 -1.9419,0.38838 -1.7089,0 -2.7964,-0.99037 -1.068,-1.0098 -1.068,-2.60217 z m 3.0682,-0.52431 q 0,0.93212 0.6214,1.57295 0.6408,0.62141 1.5729,0.62141 0.6409,0 1.7672,-0.71851 1.1263,-0.73793 1.3593,-1.37876 l 0,-3.30125 q 0,-0.0777 0,-0.15535 0,-0.0971 -0.039,-0.21361 -0.039,-0.11652 -0.1165,-0.11652 -0.078,0 -0.1942,0.0388 -0.9127,0.44664 -2.8352,1.24283 -2.1361,0.87386 -2.1361,2.40797 z"
           inkscape:connector-curvature="0" />
        <path
           id="path4335"
           style="font-style:normal;font-variant:normal;font-weight:normal;font-stretch:normal;font-family:ETBembo;-inkscape-font-specification:ETBembo;fill:#f9f9f9;fill-opacity:1"
           d="m 1168.4381,-296.57225 q 0.078,-0.15535 0.3107,-0.27186 2.2721,-1.14573 3.6702,-5.04898 0,-0.13593 0.2525,-0.25245 0.1553,-0.0583 0.3107,-0.0777 0.097,0 0.1748,0.0388 0.233,0.0777 0.2524,0.29128 -0.058,1.16515 -0.058,2.05843 0,0.87386 0.058,1.43702 0.039,0.15535 0.1942,0.34954 0.1554,0.17477 0.2913,0.17477 l 4.4081,0 q 0.6797,0 0.4661,0.62141 -0.078,0.64084 -0.3495,1.3205 -0.1942,0.31071 -0.6409,0.31071 l -3.7673,-0.0777 q -0.1553,0 -0.3689,0.17478 -0.1942,0.15535 -0.2331,0.3107 l 0,7.02973 q 0,3.06822 0.5438,4.17511 0.5631,1.08747 2.0001,1.08747 1.2817,0 2.3886,-2.11669 0.039,-0.19419 0.3884,-0.17477 0.3689,0.0194 0.5243,0.21361 0.1165,0.13594 0.1165,0.34955 0,0.17477 -0.078,0.4078 -1.6312,3.61195 -4.6606,3.63137 -1.8642,0 -3.0682,-1.39817 -1.1846,-1.39818 -1.1846,-3.57312 l 0,-1.63121 0,-7.96184 q 0,-0.34954 -0.233,-0.44664 l -0.7962,0 q -0.3107,0 -0.7962,-0.11651 -0.1747,-0.29129 -0.1747,-0.54374 0,-0.15535 0.058,-0.29129 z"
           inkscape:connector-curvature="0" />
        <path
           id="path4337"
           style="font-style:normal;font-variant:normal;font-weight:normal;font-stretch:normal;font-family:ETBembo;-inkscape-font-specification:ETBembo;fill:#f9f9f9;fill-opacity:1"
           d="m 1181.2547,-284.16343 q 0,-2.9517 4.214,-4.05859 1.5924,-0.44664 3.7867,-1.45644 0.4467,-0.27186 0.4272,-0.7185 l -0.039,-2.54391 q -0.078,-3.57312 -2.6992,-3.59254 -0.6797,0 -1.4759,0.58258 -0.7962,0.58257 -0.7962,1.20398 0,0.67967 0.1165,0.97096 -0.1942,0.19419 -1.1263,0.66025 -0.9321,0.44664 -1.2428,0.52431 -0.5243,0.1942 -0.7379,0.0777 -0.1942,-0.11651 -0.1942,-0.67967 0,-1.47585 2.5245,-3.37893 2.0196,-1.6312 3.7284,-1.6312 1.2817,0 2.5245,0.64083 1.2623,0.64083 1.9225,1.6312 0.4855,0.64084 0.5826,1.22341 0.097,0.56315 0.097,2.48565 l 0,7.22391 q 0,1.18457 0.1942,1.57295 0.2136,0.38838 0.6796,0.38838 0.4855,0 0.7186,-0.13593 0.4854,-0.15535 0.9515,-0.58257 0.1942,-0.11652 0.369,-0.11652 0.3883,0.0777 0.3883,0.46606 0,0.21361 -0.1165,0.52432 -2.6216,2.31087 -4.2139,2.31087 -1.7089,0 -2.0779,-2.07784 -0.1165,-0.11652 -0.1553,-0.11652 -0.039,0 -0.2331,0.15535 l -0.1941,0.15536 q -1.2817,1.10689 -2.1167,1.49527 -0.8351,0.38838 -1.9419,0.38838 -1.7089,0 -2.7964,-0.99037 -1.0681,-1.0098 -1.0681,-2.60217 z m 3.0683,-0.52431 q 0,0.93212 0.6214,1.57295 0.6408,0.62141 1.5729,0.62141 0.6409,0 1.7672,-0.71851 1.1263,-0.73793 1.3593,-1.37876 l 0,-3.30125 q 0,-0.0777 0,-0.15535 0,-0.0971 -0.039,-0.21361 -0.039,-0.11652 -0.1165,-0.11652 -0.078,0 -0.1942,0.0388 -0.9127,0.44664 -2.8352,1.24283 -2.1361,0.87386 -2.1361,2.40797 z"
           inkscape:connector-curvature="0" />
      </g>
    </g>
  </g>
  <g
     inkscape:groupmode="layer"
     id="layer8"
     inkscape:label="porta"
     transform="translate(0,335.90552)"
     style="display:inline">
    <path
       style="fill:#3f51b5;fill-opacity:1;fill-rule:evenodd;stroke:none;stroke-width:1px;stroke-linecap:butt;stroke-linejoin:miter;stroke-opacity:1"
       d="m 468.15151,113.65434 13.07808,5.68075 201.8927,0 5.26143,-5.68075 z"
       id="path4318"
       inkscape:connector-curvature="0" />
    <path
       style="fill:#3f51b5;fill-opacity:1;fill-rule:evenodd;stroke:none;stroke-width:1px;stroke-linecap:butt;stroke-linejoin:miter;stroke-opacity:1"
       d="m 688.38372,113.65435 -5.26143,5.68074 0,337.21944 5.26143,5.28085 z"
       id="path4320"
       inkscape:connector-curvature="0" />
    <path
       style="fill:#3f51b5;fill-opacity:1;fill-rule:evenodd;stroke:none;stroke-width:1px;stroke-linecap:butt;stroke-linejoin:miter;stroke-opacity:1"
       d="m 468.15151,462.561 13.07808,-13.08604 0,-330.13987 -13.07808,-5.68075 z"
       id="path4238"
       inkscape:connector-curvature="0" />
  </g>
  <g
     inkscape:label="Livello 1"
     inkscape:groupmode="layer"
     id="layer1"
     transform="translate(0,27.637808)"
     style="display:none">
    <path
       style="fill:none;fill-rule:evenodd;stroke:#000000;stroke-width:1.62537992px;stroke-linecap:butt;stroke-linejoin:miter;stroke-opacity:1"
       d="M 0.31268998,1052.0495 324.40432,770.96964 l 143.63152,0 0,-348.42196 220.97157,0"
       id="path4136"
       inkscape:connector-curvature="0" />
    <path
       style="fill:none;fill-rule:evenodd;stroke:#000000;stroke-width:1.62537992px;stroke-linecap:butt;stroke-linejoin:miter;stroke-opacity:1"
       d="m 688.09595,770.24502 0,-348.42197"
       id="path4138"
       inkscape:connector-curvature="0" />
    <path
       style="fill:none;fill-rule:evenodd;stroke:#000000;stroke-width:1.62537992px;stroke-linecap:butt;stroke-linejoin:miter;stroke-opacity:1"
       d="m 688.09595,770.24502 700.65475,0 529.9366,281.80448"
       id="path4140"
       inkscape:connector-curvature="0" />
    <path
       style="fill:none;fill-rule:evenodd;stroke:#000000;stroke-width:1.62537992px;stroke-linecap:butt;stroke-linejoin:miter;stroke-opacity:1"
       d="m 468.03584,770.96964 13.06786,-5.99814 0,-336.75098 201.73493,0"
       id="path4142"
       inkscape:connector-curvature="0" />
    <path
       style="fill:none;fill-rule:evenodd;stroke:#000000;stroke-width:1.62537992px;stroke-linecap:butt;stroke-linejoin:miter;stroke-opacity:1"
       d="m 682.83863,428.22052 0,336.75098"
       id="path4146"
       inkscape:connector-curvature="0" />
    <path
       style="fill:none;fill-rule:evenodd;stroke:#000000;stroke-width:1.62537992px;stroke-linecap:butt;stroke-linejoin:miter;stroke-opacity:1"
       d="m 468.03584,422.54768 13.06786,5.67284"
       id="path4148"
       inkscape:connector-curvature="0" />
    <path
       style="fill:none;fill-rule:evenodd;stroke:#000000;stroke-width:1.62537992px;stroke-linecap:butt;stroke-linejoin:miter;stroke-opacity:1"
       d="m 682.83863,428.22052 5.25732,-5.67284"
       id="path4150"
       inkscape:connector-curvature="0" />
    <path
       style="fill:none;fill-rule:evenodd;stroke:#000000;stroke-width:1.62537992px;stroke-linecap:butt;stroke-linejoin:miter;stroke-opacity:1"
       d="m 682.83863,764.9715 5.25732,5.27352"
       id="path4152"
       inkscape:connector-curvature="0" />
    <path
       style="fill:none;fill-rule:evenodd;stroke:#000000;stroke-width:1.62537992px;stroke-linecap:butt;stroke-linejoin:miter;stroke-opacity:1"
       d="m 0.31268998,-26.325156 324.09163002,84.19311 1064.34638,0 529.9366,-84.193124"
       id="path4158"
       inkscape:connector-curvature="0" />
  </g>
  <g
     inkscape:groupmode="layer"
     id="layer6"
     inkscape:label="presa"
     style="display:inline"
     transform="translate(0,335.90552)">
    <g
       id="g4840"
       transform="matrix(0.33359402,0,0,0.33379705,302.95666,120.63577)"
       style="fill:#ffffff">
      <rect
         rx="3.9986613"
         ry="4.1882768"
         y="908.37372"
         x="245.26155"
         height="43.976906"
         width="68.976906"
         id="rect4823"
         style="fill:#ffffff;fill-opacity:1;stroke:#000000;stroke-width:1.02309275;stroke-linecap:round;stroke-linejoin:round;stroke-miterlimit:4;stroke-dasharray:none;stroke-opacity:1" />
      <circle
         r="14.503073"
         cy="930.18811"
         cx="279.9241"
         id="path4827"
         style="fill:#ffffff;fill-opacity:1;stroke:#000000;stroke-width:0.99385434;stroke-linecap:round;stroke-linejoin:round;stroke-miterlimit:4;stroke-dasharray:none;stroke-opacity:1" />
      <g
         transform="translate(0,0.12805176)"
         id="g4835"
         style="fill:#ffffff">
        <circle
           style="fill:#ffffff;fill-opacity:1;stroke:#000000;stroke-width:1.08564639;stroke-linecap:round;stroke-linejoin:round;stroke-miterlimit:4;stroke-dasharray:none;stroke-opacity:1"
           id="path4829"
           cx="279.9241"
           cy="922.18506"
           r="1.9571768" />
        <circle
           r="1.9571768"
           cy="930.06006"
           cx="279.9241"
           id="circle4831"
           style="fill:#ffffff;fill-opacity:1;stroke:#000000;stroke-width:1.08564639;stroke-linecap:round;stroke-linejoin:round;stroke-miterlimit:4;stroke-dasharray:none;stroke-opacity:1" />
        <circle
           r="1.9571768"
           cy="937.93506"
           cx="279.9241"
           id="circle4833"
           style="fill:#ffffff;fill-opacity:1;stroke:#000000;stroke-width:1.08564639;stroke-linecap:round;stroke-linejoin:round;stroke-miterlimit:4;stroke-dasharray:none;stroke-opacity:1" />
      </g>
    </g>
  </g>
  <g
     inkscape:groupmode="layer"
     id="layer4"
     inkscape:label="share"
     transform="translate(0,335.90552)"
     style="display:inline">
    <g
       id="g4240"
       transform="matrix(1.2317317,0,0,1.2324813,187.57722,-271.77813)">
      <rect
         y="277.728"
         x="285.18747"
         height="22.00086"
         width="64.000862"
         id="rect4160"
         style="fill:#ffffff;fill-opacity:1;stroke:#000000;stroke-width:0.99913967;stroke-miterlimit:4;stroke-dasharray:none;stroke-opacity:1" />
      <rect
         style="fill:#e91e63;fill-opacity:1;stroke:#ff0000;stroke-width:0.66385406;stroke-miterlimit:4;stroke-dasharray:none;stroke-opacity:1"
         id="rect4162"
         width="45.336147"
         height="13.711146"
         x="294.51984"
         y="281.87283" />
      <g
         style="fill:#ffffff"
         transform="matrix(0.94221901,0,0,0.94221901,18.223594,-273.81146)"
         id="g4277">
        <path
           inkscape:connector-curvature="0"
           id="path4262"
           style="font-style:normal;font-variant:normal;font-weight:normal;font-stretch:condensed;font-size:medium;line-height:125%;font-family:Impact;-inkscape-font-specification:'Impact Condensed';letter-spacing:0px;word-spacing:0px;fill:#ffffff;fill-opacity:1;stroke:none;stroke-width:1px;stroke-linecap:butt;stroke-linejoin:miter;stroke-opacity:1"
           d="m 300.61825,594.00706 -3.70836,0 0,-1.13811 q 0,-0.79669 -0.14226,-1.01483 -0.14226,-0.21813 -0.47421,-0.21813 -0.36041,0 -0.55009,0.29401 -0.1802,0.29402 -0.1802,0.89152 0,0.76824 0.20865,1.15709 0.19917,0.38886 1.12863,0.93894 2.66509,1.58388 3.35744,2.5987 0.69235,1.01481 0.69235,3.27208 0,1.64079 -0.38885,2.4185 -0.37937,0.77771 -1.47955,1.30882 -1.10018,0.52164 -2.56076,0.52164 -1.60284,0 -2.74096,-0.607 -1.12863,-0.60699 -1.47955,-1.54593 -0.35092,-0.93895 -0.35092,-2.66509 l 0,-1.00534 3.70836,0 0,1.86841 q 0,0.86307 0.15174,1.10966 0.16124,0.24659 0.55958,0.24659 0.39834,0 0.58803,-0.31297 0.19917,-0.31299 0.19917,-0.92947 0,-1.35625 -0.36989,-1.77356 -0.37938,-0.41731 -1.8684,-1.39419 -1.48904,-0.98637 -1.97273,-1.43213 -0.4837,-0.44576 -0.80617,-1.23295 -0.31298,-0.7872 -0.31298,-2.01068 0,-1.76407 0.44575,-2.57973 0.45525,-0.81564 1.46059,-1.27089 1.00533,-0.46473 2.42798,-0.46473 1.55542,0 2.64611,0.50267 1.10018,0.50267 1.4511,1.2709 0.3604,0.75874 0.3604,2.58921 l 0,0.60699 z" />
        <path
           inkscape:connector-curvature="0"
           id="path4264"
           style="font-style:normal;font-variant:normal;font-weight:normal;font-stretch:condensed;font-size:medium;line-height:125%;font-family:Impact;-inkscape-font-specification:'Impact Condensed';letter-spacing:0px;word-spacing:0px;fill:#ffffff;fill-opacity:1;stroke:none;stroke-width:1px;stroke-linecap:butt;stroke-linejoin:miter;stroke-opacity:1"
           d="m 311.82513,589.03729 0,16 -4.16059,0 0,-6.72019 -1.24521,0 0,6.72019 -4.1606,0 0,-16 4.1606,0 0,5.72205 1.24521,0 0,-5.72205 4.16059,0 z" />
        <path
           inkscape:connector-curvature="0"
           id="path4266"
           style="font-style:normal;font-variant:normal;font-weight:normal;font-stretch:condensed;font-size:medium;line-height:125%;font-family:Impact;-inkscape-font-specification:'Impact Condensed';letter-spacing:0px;word-spacing:0px;fill:#ffffff;fill-opacity:1;stroke:none;stroke-width:1px;stroke-linecap:butt;stroke-linejoin:miter;stroke-opacity:1"
           d="m 321.26709,589.03729 2.38171,16 -4.25941,0 -0.20754,-2.87585 -1.49228,0 -0.24707,2.87585 -4.30883,0 2.11488,-16 6.01854,0 z m -2.20384,10.28783 q -0.31623,-2.71772 -0.63248,-6.71032 -0.63249,4.58555 -0.79061,6.71032 l 1.42309,0 z" />
        <path
           inkscape:connector-curvature="0"
           id="path4268"
           style="font-style:normal;font-variant:normal;font-weight:normal;font-stretch:condensed;font-size:medium;line-height:125%;font-family:Impact;-inkscape-font-specification:'Impact Condensed';letter-spacing:0px;word-spacing:0px;fill:#ffffff;fill-opacity:1;stroke:none;stroke-width:1px;stroke-linecap:butt;stroke-linejoin:miter;stroke-opacity:1"
           d="m 324.95734,589.03729 2.94503,0 q 2.94503,0 3.98271,0.2273 1.04756,0.2273 1.69981,1.16615 0.66214,0.92898 0.66214,2.97468 0,1.86782 -0.46448,2.51019 -0.46449,0.64237 -1.82829,0.77085 1.23532,0.30636 1.66028,0.82026 0.42496,0.5139 0.52378,0.94873 0.10871,0.42496 0.10871,2.36196 l 0,4.21988 -3.86411,0 0,-5.31686 q 0,-1.28474 -0.20754,-1.5911 -0.19766,-0.30637 -1.05744,-0.30637 l 0,7.21433 -4.1606,0 0,-16 z m 4.1606,2.7375 0,3.55775 q 0.70166,0 0.97838,-0.18777 0.2866,-0.19766 0.2866,-1.2551 l 0,-0.87956 q 0,-0.76096 -0.27672,-0.99815 -0.26683,-0.23717 -0.98826,-0.23717 z" />
        <path
           inkscape:connector-curvature="0"
           id="path4270"
           style="font-style:normal;font-variant:normal;font-weight:normal;font-stretch:condensed;font-size:medium;line-height:125%;font-family:Impact;-inkscape-font-specification:'Impact Condensed';letter-spacing:0px;word-spacing:0px;fill:#ffffff;fill-opacity:1;stroke:none;stroke-width:1px;stroke-linecap:butt;stroke-linejoin:miter;stroke-opacity:1"
           d="m 335.55557,589.03729 6.93762,0 0,3.20197 -2.77703,0 0,3.03398 2.59913,0 0,3.04386 -2.59913,0 0,3.51822 3.05373,0 0,3.20197 -7.21432,0 0,-16 z" />
      </g>
    </g>
  </g>
  <g
     inkscape:groupmode="layer"
     id="layer3"
     inkscape:label="logo"
     transform="translate(0,335.90552)"
     style="display:inline">
    <g
       id="g4809"
       transform="matrix(0.08339842,0,0,0.08344918,1295.3599,339.77487)">
      <g
         style="display:inline"
         transform="translate(-2062.1586,400.18704)"
         inkscape:label="sfondo"
         id="layer5">
        <text
           sodipodi:linespacing="125%"
           id="text4157-4"
           y="1233.9358"
           x="-255.30142"
           style="font-style:normal;font-variant:normal;font-weight:normal;font-stretch:normal;font-size:180px;line-height:125%;font-family:Griffo;-inkscape-font-specification:Griffo;text-align:start;letter-spacing:0px;word-spacing:0px;writing-mode:lr-tb;text-anchor:start;fill:#000000;fill-opacity:1;stroke:none;stroke-width:1px;stroke-linecap:butt;stroke-linejoin:miter;stroke-opacity:1"
           xml:space="preserve"><tspan
             style="font-style:normal;font-variant:normal;font-weight:bold;font-stretch:normal;font-family:'Open Sans';-inkscape-font-specification:'Open Sans Bold'"
             y="1233.9358"
             x="-255.30142"
             id="tspan4159-7"
             sodipodi:role="line" /></text>
        <g
           transform="translate(5.6347656e-4,1.1035156e-4)"
           id="g4185">
          <path
             inkscape:export-ydpi="300"
             inkscape:export-xdpi="300"
             inkscape:export-filename="/Users/lucacorsato/Documents/o{s}d/o{s}d_semplice.png"
             d="m 2089.3617,-250.32005 c 0,9.7944 1.5743,17.19855 4.7232,22.2132 3.2072,5.01405 8.3972,7.52175 15.5697,7.52175 7.1144,0 12.2171,-2.478 15.3078,-7.4331 3.149,-5.0154 4.7234,-12.4488 4.7235,-22.30185 -10e-5,-9.7938 -1.5745,-17.13855 -4.7235,-22.0353 -3.1494,-4.8966 -8.31,-7.34565 -15.4824,-7.34565 -7.1146,0 -12.246,2.44905 -15.3951,7.34565 -3.1489,4.83765 -4.7232,12.1824 -4.7232,22.0353 m 67.6149,0 c -10e-5,16.1061 -4.1985,28.70235 -12.5956,37.78815 -8.3976,9.0861 -20.0891,13.6281 -35.076,13.6281 -9.3884,0 -17.6693,-2.064 -24.8417,-6.1941 -7.1727,-4.18965 -12.6831,-10.17705 -16.5324,-17.9652 -3.8485,-7.7874 -5.7729,-16.8732 -5.7729,-27.25695 0,-16.1646 4.1691,-28.7313 12.5081,-37.6995 8.3392,-8.9676 20.0605,-13.45155 35.1634,-13.45155 9.389,0 17.669,2.06475 24.8424,6.19485 7.1724,4.1301 12.683,10.059 16.5318,17.7882 3.8484,7.72875 5.7728,16.7844 5.7729,27.168"
             style="font-style:normal;font-variant:normal;font-weight:bold;font-stretch:normal;font-size:28px;line-height:125%;font-family:'Open Sans';-inkscape-font-specification:'Open Sans Bold';text-align:start;letter-spacing:0px;word-spacing:0px;writing-mode:lr-tb;text-anchor:start;display:inline;fill:#e91e63;fill-opacity:1;stroke:none"
             id="path4967"
             inkscape:connector-curvature="0" />
          <path
             inkscape:export-ydpi="300"
             inkscape:export-xdpi="300"
             inkscape:export-filename="/Users/lucacorsato/Documents/o{s}d/o{s}d_semplice.png"
             inkscape:connector-curvature="0"
             id="path4969"
             style="font-style:normal;font-variant:normal;font-weight:bold;font-stretch:normal;font-size:28px;line-height:125%;font-family:'Open Sans';-inkscape-font-specification:'Open Sans Bold';text-align:start;letter-spacing:0px;word-spacing:0px;writing-mode:lr-tb;text-anchor:start;display:inline;fill:#3f51b5;fill-opacity:1;stroke:none"
             d="m 2407.6652,-198.9035 c -11.4881,0 -20.5263,-4.5132 -27.116,-13.5396 -6.5311,-9.02625 -9.7965,-21.5337 -9.7965,-37.52205 0,-16.224 3.3234,-28.84935 9.9714,-37.8753 6.7061,-9.08595 15.9194,-13.62885 27.6407,-13.62885 12.304,0 21.6928,4.8378 28.1652,14.5131 l 0.8745,0 c -1.341,-7.3743 -2.0117,-13.953 -2.0115,-19.734 l 0,-31.68195 26.7655,0 0,137.6994 -20.4681,0 -5.1609,-12.8316 -1.137,0 c -6.0651,9.73395 -15.3075,14.60085 -27.7282,14.60085 m 9.3592,-21.50385 c 6.8225,0 11.8085,-2.0061 14.9574,-6.0171 3.2069,-4.01235 4.9562,-10.827 5.2484,-20.44335 l 0,-2.92035 c 0,-10.61895 -1.6328,-18.2292 -4.8986,-22.83195 -3.2073,-4.6011 -8.4555,-6.9027 -15.7444,-6.9027 -5.9484,0 -10.584,2.56665 -13.9079,7.6998 -3.2656,5.0736 -4.8984,12.4776 -4.8984,22.21155 0,9.735 1.6622,17.05035 4.9859,21.9474 3.3238,4.83795 8.0761,7.2567 14.2575,7.2567" />
          <path
             inkscape:export-ydpi="300"
             inkscape:export-xdpi="300"
             inkscape:export-filename="/Users/lucacorsato/Documents/o{s}d/o{s}d_semplice.png"
             d="m 2240.2472,-100.18685 c -14.6948,0 -26.0079,-4.54335 -33.9381,-13.629 -7.8144,-9.08595 -11.7213,-21.88755 -11.7213,-38.4066 l 0,-52.2123 c 0,-13.8051 -3.0906,-24.13035 -9.2714,-30.9741 -6.0651,-6.96135 -15.5116,-10.6779 -28.341,-11.14995 l 0,-7.9644 c 25.0752,-0.4725 37.6124,-14.3952 37.6124,-41.7699 l 0,-52.03575 c 0,-16.63695 3.7902,-29.43855 11.371,-38.40675 7.581,-8.96715 19.01,-13.45125 34.2884,-13.45125 l 23.6173,0 0,8.319 -10.8468,0 c -10.6134,0 -18.1938,3.24495 -22.7421,9.7341 -4.4317,6.372 -6.6475,15.81105 -6.6474,28.3185 l 0,58.4067 c -1e-4,11.20995 -3.0327,20.8854 -9.0973,29.0271 -6.0644,8.02335 -14.2286,13.1556 -24.4917,15.3984 l 0,0.531 c 10.3798,2.4774 18.5439,7.728 24.4917,15.7521 6.0646,7.905 9.0972,17.5806 9.0973,29.02665 l 0,59.11455 c -1e-4,12.5073 2.2157,21.94665 6.6474,28.3191 4.5483,6.48855 12.1289,9.7335 22.7421,9.7335 l 10.8468,0 0,8.319 -23.6173,0"
             style="font-style:normal;font-variant:normal;font-weight:normal;font-stretch:normal;font-size:56px;line-height:125%;font-family:'Liberation Serif';-inkscape-font-specification:'Liberation Serif';text-align:start;letter-spacing:0px;word-spacing:0px;writing-mode:lr-tb;text-anchor:start;display:inline;fill:#e91e63;fill-opacity:1;stroke:none"
             id="path4971"
             inkscape:connector-curvature="0" />
          <path
             inkscape:export-ydpi="300"
             inkscape:export-xdpi="300"
             inkscape:export-filename="/Users/lucacorsato/Documents/o{s}d/o{s}d_semplice.png"
             d="m 2263.8645,-100.18685 0,-8.31975 10.8461,0 c 10.6129,0 18.1351,-3.24495 22.5673,-9.7335 4.548,-6.37245 6.8228,-15.8118 6.8228,-28.3191 l 0,-59.11455 c 0,-11.44575 2.9734,-21.12105 8.9218,-29.02665 5.9478,-8.0241 14.1699,-13.2747 24.6666,-15.7521 l 0,-0.531 c -10.2633,-2.24205 -18.4276,-7.434 -24.4917,-15.5751 -6.0649,-8.142 -9.0967,-17.7579 -9.0967,-28.85025 l 0,-58.4067 c 0,-12.50745 -2.2748,-21.9465 -6.8228,-28.31865 -4.4322,-6.489 -11.9544,-9.73395 -22.5673,-9.73395 l -10.8461,0 0,-8.319 23.7915,0 c 15.1614,7.5e-4 26.5331,4.4847 34.1136,13.452 7.5803,8.9673 11.3706,21.76965 11.3706,38.406 l 0,52.03575 c 0,27.37455 12.5381,41.29755 37.6125,41.76975 l 0,7.9644 c -12.5956,0.4725 -22.0426,4.12935 -28.3401,10.9734 -6.1816,6.8439 -9.2724,17.2272 -9.2724,31.15065 l 0,52.2123 c 0,16.4013 -3.9651,29.14455 -11.8953,38.22975 -7.8144,9.20355 -19.0101,13.80585 -33.5889,13.80585 l -23.7915,0"
             style="font-style:normal;font-variant:normal;font-weight:normal;font-stretch:normal;font-size:56px;line-height:125%;font-family:'Liberation Serif';-inkscape-font-specification:'Liberation Serif';text-align:start;letter-spacing:0px;word-spacing:0px;writing-mode:lr-tb;text-anchor:start;display:inline;fill:#3f51b5;fill-opacity:1;stroke:none"
             id="path4973"
             inkscape:connector-curvature="0" />
          <path
             d="m 2298.6056,-231.5459 q 0,14.09325 -9.8324,21.4677 -9.7506,7.3743 -29.2518,7.3743 -9.9964,0 -17.0431,-1.3935 -7.0467,-1.311 -13.1919,-3.933 l 0,-20.6484 q 6.9646,3.27765 15.6501,5.48985 8.7673,2.21235 15.4042,2.21235 13.6017,0 13.6017,-7.866 0,-2.94975 -1.8025,-4.75245 -1.8027,-1.88445 -6.2273,-4.1787 -4.4248,-2.3763 -11.7991,-5.48985 -10.5699,-4.4247 -15.5682,-8.1939 -4.9163,-3.76905 -7.2105,-8.6034 -2.2124,-4.91625 -2.2124,-12.04485 0,-12.20865 9.4229,-18.8457 9.5049,-6.7188 26.8756,-6.7188 16.5513,0 32.2016,7.2105 l -7.5383,18.02625 q -6.8827,-2.94975 -12.8643,-4.83435 -5.9815,-1.8846 -12.2086,-1.8846 -11.0616,0 -11.0616,5.98155 0,3.3594 3.5232,5.8176 3.6054,2.45805 15.6501,7.2924 10.7338,4.34265 15.7321,8.11185 4.9982,3.7692 7.3743,8.68545 2.3762,4.91625 2.3762,11.7171 z"
             style="font-style:normal;font-variant:normal;font-weight:bold;font-stretch:normal;font-size:medium;line-height:125%;font-family:'Open Sans';-inkscape-font-specification:'Open Sans Bold';text-align:start;letter-spacing:0px;word-spacing:0px;writing-mode:lr-tb;text-anchor:start;fill:#757575;fill-opacity:1;stroke:none"
             id="path4975"
             inkscape:connector-curvature="0" />
        </g>
      </g>
      <g
         id="layer11"
         inkscape:label="logo"
         style="display:inline"
         transform="translate(-2062.1586,110.32504)">
        <text
           xml:space="preserve"
           style="font-style:normal;font-variant:normal;font-weight:normal;font-stretch:normal;font-size:180px;line-height:125%;font-family:Griffo;-inkscape-font-specification:Griffo;text-align:start;letter-spacing:0px;word-spacing:0px;writing-mode:lr-tb;text-anchor:start;fill:#000000;fill-opacity:1;stroke:none;stroke-width:1px;stroke-linecap:butt;stroke-linejoin:miter;stroke-opacity:1"
           x="-368.75"
           y="910.95593"
           id="text4157"
           sodipodi:linespacing="125%"><tspan
             sodipodi:role="line"
             id="tspan4159"
             x="-368.75"
             y="910.95593"
             style="font-style:normal;font-variant:normal;font-weight:bold;font-stretch:normal;font-family:'Open Sans';-inkscape-font-specification:'Open Sans Bold'" /></text>
      </g>
    </g>
  </g>
  <g
     inkscape:groupmode="layer"
     id="layer2"
     inkscape:label="paint"
     style="display:inline"
     transform="translate(0,335.90552)">
    <g
       id="g4316"
       transform="matrix(1.0007821,0,0,1.0013912,120.43411,4.0389933)">
      <rect
         y="71.107018"
         x="903.3089"
         height="239.32645"
         width="239.32645"
         id="rect4168"
         style="fill:#fffff8;fill-opacity:1;stroke:#000000;stroke-width:0.67355269;stroke-miterlimit:4;stroke-dasharray:none;stroke-opacity:1" />
      <g
         transform="translate(2.79044,-30.719905)"
         id="g4297">
        <path
           inkscape:connector-curvature="0"
           id="path4227"
           style="font-style:normal;font-variant:normal;font-weight:normal;font-stretch:normal;font-size:medium;line-height:93.99999976%;font-family:ETBembo;-inkscape-font-specification:ETBembo;text-align:end;letter-spacing:0.11px;word-spacing:0px;text-anchor:end;fill:#000000;fill-opacity:1;stroke:none;stroke-width:1px;stroke-linecap:butt;stroke-linejoin:miter;stroke-opacity:1"
           d="m 976.82766,234.06722 q -0.006,-0.0427 -0.006,-0.0793 0,-0.0488 0.0122,-0.0977 0.0122,-0.0732 0.0488,-0.11596 0.0305,-0.0305 0.0671,-0.0305 0.006,0 0.0183,0 1.20239,0.0183 2.04468,0.0183 0.84228,0 1.31836,-0.0183 0.0488,0 0.10376,0.10376 0.061,0.0976 0.0305,0.18921 -0.0305,0.0915 -0.1709,0.0915 -0.77514,0 -0.77514,0.25024 0,0.17701 0.39062,0.77515 l 1.67237,2.57568 q 0.0488,0.061 0.15869,0.006 0.11596,-0.0549 0.177,-0.1709 l 1.33667,-2.2583 q 0.40283,-0.66528 0.40283,-0.83618 0,-0.18921 -0.14648,-0.25635 -0.14038,-0.0732 -0.56763,-0.0732 l -0.12207,0 q -0.10986,-0.0488 -0.0977,-0.23194 0.006,-0.16479 0.11597,-0.16479 0.0122,0 0.0183,0 0.54321,0.0183 1.23901,0.0183 0.70191,0 1.5503,-0.0183 0.10986,0 0.10986,0.18921 0,0.21362 -0.10986,0.20752 -0.63477,0.0366 -1.0376,0.45166 -0.18921,0.20141 -0.65308,0.97656 l -1.84936,3.13721 q 0,0.27466 0,0.65918 0,0.37841 0,0.78125 0,0.39673 0,0.48217 0,0.36011 0.15259,0.56153 0.15869,0.20141 0.54931,0.25024 0.0488,0 0.19532,-0.006 0.15258,-0.006 0.21362,0.0183 0.15259,0.0366 0.15259,0.25024 0,0.21363 -0.15259,0.21363 -1.48926,-0.0244 -2.44751,-0.0244 -0.64087,0 -1.04981,0.0122 -0.0976,0 -0.14038,-0.12817 -0.0366,-0.13428 0,-0.23194 0.0488,-0.12207 0.26245,-0.12817 0.061,-0.0122 0.18921,0 0.12818,0.0122 0.15259,0.0122 0.66528,-0.0366 0.6958,-0.79956 0.0366,-0.5249 0.0366,-1.01318 0,-0.39062 -0.0244,-0.76294 l -2.28272,-3.57056 q -0.43945,-0.68969 -0.73242,-0.89721 -0.29297,-0.20752 -0.8728,-0.23194 -0.15259,0 -0.177,-0.0854 z" />
        <path
           inkscape:connector-curvature="0"
           id="path4229"
           style="font-style:normal;font-variant:normal;font-weight:normal;font-stretch:normal;font-size:medium;line-height:93.99999976%;font-family:ETBembo;-inkscape-font-specification:ETBembo;text-align:end;letter-spacing:0.11px;word-spacing:0px;text-anchor:end;fill:#000000;fill-opacity:1;stroke:none;stroke-width:1px;stroke-linecap:butt;stroke-linejoin:miter;stroke-opacity:1"
           d="m 986.13565,239.27962 q 0,-1.2024 0.80567,-1.99585 0.80566,-0.79346 2.00806,-0.79346 1.2146,0 2.03857,0.80566 0.81177,0.79346 0.81177,1.95923 0,0.0183 0,0.0366 0,1.15967 -0.81177,1.96534 -0.81177,0.79956 -2.00195,0.79956 -1.2146,0 -2.03247,-0.79346 -0.81788,-0.79346 -0.81788,-1.98364 z m 1.08643,-0.39673 q 0,1.13525 0.56152,1.92261 0.56763,0.78735 1.35498,0.78735 0.66529,0 1.10474,-0.56152 0.44556,-0.56763 0.44556,-1.44043 0,-1.08643 -0.57373,-1.86768 -0.56763,-0.78125 -1.34278,-0.78125 -0.66528,0 -1.11084,0.54932 -0.43945,0.54931 -0.43945,1.3916 z" />
        <path
           inkscape:connector-curvature="0"
           id="path4231"
           style="font-style:normal;font-variant:normal;font-weight:normal;font-stretch:normal;font-size:medium;line-height:93.99999976%;font-family:ETBembo;-inkscape-font-specification:ETBembo;text-align:end;letter-spacing:0.11px;word-spacing:0px;text-anchor:end;fill:#000000;fill-opacity:1;stroke:none;stroke-width:1px;stroke-linecap:butt;stroke-linejoin:miter;stroke-opacity:1"
           d="m 992.4041,236.86263 q 0,-0.0244 0,-0.0366 0,-0.0976 0.0793,-0.12207 0.12207,-0.0244 0.71411,-0.17089 0.59814,-0.15259 0.84839,-0.20142 0.0977,-0.0122 0.14648,0.061 0.0549,0.0733 0.0549,0.17701 l 0,2.99682 q 0,1.00098 0.23194,1.34888 0.23193,0.3418 0.8667,0.3418 0.61035,0 1.40381,-0.62867 l 0.0122,-0.0366 q 0.0122,-0.0366 0.0244,-0.0915 0.0122,-0.0549 0.0122,-0.10986 l 0,-2.16065 q 0,-0.56152 -0.0366,-0.73852 -0.0855,-0.3479 -0.37841,-0.39673 -0.0854,-0.0244 -0.1648,-0.0305 -0.0732,-0.006 -0.10986,-0.0244 -0.0122,0 -0.40894,-0.061 -0.0732,-0.0488 -0.0671,-0.1709 0.0122,-0.12817 0.0916,-0.15258 1.27563,-0.28687 1.78833,-0.3357 0.0244,0 0.0488,0 0.20142,0 0.20142,0.19531 l 0,3.9795 0,0.38452 q 0,0.31128 0.29907,0.31128 0.10376,0 0.23804,-0.0366 0.0244,-0.0122 0.0793,-0.0244 0.0549,-0.0122 0.0977,-0.0244 0.0427,-0.0122 0.0855,-0.0244 0.0732,-0.0183 0.10376,0.0794 0.0183,0.0549 0.0183,0.10986 0,0.0488 -0.0122,0.0977 -0.0244,0.10986 -0.0976,0.11597 -0.6897,0.29907 -1.42823,0.44555 -0.14038,0.0488 -0.23803,0.0183 -0.0977,-0.0305 -0.10987,-0.18921 l -0.0244,-0.48828 q 0,-0.0488 -0.0244,-0.13427 -0.0244,-0.0916 -0.0671,-0.0549 -0.41504,0.29908 -0.64087,0.45166 -0.21973,0.14649 -0.61646,0.30518 -0.39062,0.15259 -0.75073,0.15259 -1.40991,0 -1.41601,-1.72119 l 0,-2.64893 q 0,-0.21362 -0.0488,-0.31128 -0.0488,-0.10376 -0.22583,-0.15259 -0.0855,-0.0244 -0.25025,-0.0671 -0.15869,-0.0488 -0.25024,-0.0733 -0.061,-0.0183 -0.0793,-0.15258 z" />
        <path
           inkscape:connector-curvature="0"
           id="path4233"
           style="font-style:normal;font-variant:normal;font-weight:normal;font-stretch:normal;font-size:medium;line-height:93.99999976%;font-family:ETBembo;-inkscape-font-specification:ETBembo;text-align:end;letter-spacing:0.11px;word-spacing:0px;text-anchor:end;fill:#000000;fill-opacity:1;stroke:none;stroke-width:1px;stroke-linecap:butt;stroke-linejoin:miter;stroke-opacity:1"
           d="m 999.20966,241.69051 q 0,-0.0854 0,-0.10376 0,-0.0183 0.0183,-0.0549 0.0183,-0.0366 0.0488,-0.0366 0.0305,0 0.0976,0 0.45166,0 0.59205,-0.23193 0.14039,-0.23193 0.14039,-1.0437 l 0,-2.40479 q -0.037,-0.16479 -0.12208,-0.1831 l -0.52491,-0.20142 q -0.18921,-0.0732 -0.21362,-0.15259 0,-0.0122 0,-0.0366 l 0,-0.0977 q 0,-0.10987 0.0977,-0.14038 0.15258,-0.0732 0.73851,-0.27466 0.4517,-0.15259 0.7507,-0.29907 0.055,-0.0244 0.098,-0.0244 0.043,0 0.067,0.0183 0.061,0.0427 0.061,0.15869 0,0.15259 0,0.44556 0,0.29297 0.012,0.42725 0,0.0488 0.018,0.0732 0.018,0.0244 0.031,0.0183 0.012,-0.006 0.024,-0.006 0.3724,-0.81177 0.5677,-0.90943 0.1587,-0.0855 0.3662,-0.0855 0.3296,0 0.7934,0.20752 0.037,0.0122 0.1099,0.0366 0.079,0.0244 0.1038,0.0305 0.1159,0.0183 0.1159,0.10376 0,0.0183 -0.01,0.0427 -0.098,0.29908 -0.3601,0.78736 -0.1648,-0.0122 -0.4638,-0.15869 -0.2747,-0.14038 -0.4517,-0.14038 -0.415,0 -0.8362,0.79956 0,2.17285 0.012,2.50244 0.012,0.47607 0.1404,0.60425 0.1343,0.12207 0.6104,0.12207 l 0.2746,0 q 0.085,0 0.1221,0.17089 0.043,0.1648 -0.049,0.23804 -0.012,0.0122 -0.1709,0.0122 -1.001,-0.0183 -1.6663,-0.0183 -0.66526,0 -0.99485,0.0183 -0.0183,0 -0.0305,0 -0.0671,0 -0.0916,-0.0427 -0.0244,-0.0549 -0.0305,-0.17089 z" />
        <path
           inkscape:connector-curvature="0"
           id="path4235"
           style="font-style:normal;font-variant:normal;font-weight:normal;font-stretch:normal;font-size:medium;line-height:93.99999976%;font-family:ETBembo;-inkscape-font-specification:ETBembo;text-align:end;letter-spacing:0.11px;word-spacing:0px;text-anchor:end;fill:#000000;fill-opacity:1;stroke:none;stroke-width:1px;stroke-linecap:butt;stroke-linejoin:miter;stroke-opacity:1"
           d="m 1006.9126,239.48103 q 0,-1.25122 0.8056,-2.09961 0.8057,-0.84838 2.0081,-0.84838 0.4394,0 1.0376,0.19531 0.049,0.0122 0.091,-0.0427 0.043,-0.0549 0.043,-0.1831 0.018,-0.42725 0.018,-1.07422 0,-0.65308 -0.018,-1.52588 -0.061,-0.177 -0.098,-0.19531 -0.073,-0.0488 -0.1892,-0.061 -0.1099,-0.0183 -0.2686,-0.0244 -0.1526,-0.006 -0.2197,-0.0183 -0.1221,-0.0244 -0.1343,-0.0855 -0.024,-0.12207 -0.012,-0.177 0.024,-0.0977 0.1221,-0.10987 0.8728,-0.27465 1.5747,-0.53711 0.049,-0.0183 0.079,-0.0183 0.049,0 0.085,0.0366 0.049,0.0671 0.049,0.20752 l 0,7.48291 q 0,0.50049 0.061,0.61036 0.067,0.10376 0.2808,0.10376 0.049,0 0.2746,-0.0733 0.012,0 0.067,-0.0183 0.055,-0.0183 0.085,-0.0244 0.03,-0.006 0.073,-0.006 0.049,0 0.079,0.0244 0.03,0.0244 0.043,0.0732 0.03,0.0977 0.03,0.15869 0,0.0977 -0.067,0.12818 -0.8362,0.41504 -1.6907,0.62866 -0.085,0.0366 -0.1403,-0.006 -0.055,-0.0366 -0.079,-0.11597 -0.018,-0.0793 -0.018,-0.15259 0,-0.0793 0.012,-0.16479 l 0,-0.10376 q 0,-0.0855 -0.037,-0.15259 -0.037,-0.0671 -0.098,-0.0305 -1.1231,0.77515 -1.764,0.77515 -0.8728,0 -1.4831,-0.75684 -0.6043,-0.75683 -0.6043,-1.81885 z m 1.0009,-0.39062 q 0,0.96435 0.4395,1.61133 0.4455,0.64087 1.1108,0.64087 0.5372,0 1.3001,-0.5127 0.098,-0.0488 0.1221,-0.28686 l 0,-2.56348 q -0.6653,-0.95215 -1.4344,-0.95215 -0.6897,0 -1.1169,0.57373 -0.4212,0.56763 -0.4212,1.48926 z" />
        <path
           inkscape:connector-curvature="0"
           id="path4237"
           style="font-style:normal;font-variant:normal;font-weight:normal;font-stretch:normal;font-size:medium;line-height:93.99999976%;font-family:ETBembo;-inkscape-font-specification:ETBembo;text-align:end;letter-spacing:0.11px;word-spacing:0px;text-anchor:end;fill:#000000;fill-opacity:1;stroke:none;stroke-width:1px;stroke-linecap:butt;stroke-linejoin:miter;stroke-opacity:1"
           d="m 1013.4679,240.89095 q 0,-0.92774 1.3244,-1.27564 0.5005,-0.14038 1.1902,-0.45776 0.1404,-0.0854 0.1343,-0.22583 l -0.012,-0.79956 q -0.024,-1.12305 -0.8484,-1.12915 -0.2136,0 -0.4639,0.1831 -0.2502,0.18311 -0.2502,0.37842 0,0.21362 0.037,0.30518 -0.061,0.061 -0.354,0.20751 -0.293,0.14039 -0.3906,0.1648 -0.1648,0.061 -0.232,0.0244 -0.061,-0.0366 -0.061,-0.21362 0,-0.46387 0.7934,-1.06201 0.6348,-0.5127 1.1719,-0.5127 0.4028,0 0.7934,0.20142 0.3968,0.20142 0.6043,0.5127 0.1526,0.20141 0.1831,0.38452 0.03,0.177 0.03,0.78125 l 0,2.2705 q 0,0.37232 0.061,0.49439 0.067,0.12207 0.2136,0.12207 0.1526,0 0.2258,-0.0427 0.1526,-0.0488 0.2991,-0.1831 0.061,-0.0366 0.116,-0.0366 0.1221,0.0244 0.1221,0.14648 0,0.0671 -0.037,0.1648 -0.824,0.72632 -1.3245,0.72632 -0.5371,0 -0.6531,-0.65308 -0.037,-0.0366 -0.049,-0.0366 -0.012,0 -0.073,0.0488 l -0.061,0.0488 q -0.4028,0.34791 -0.6653,0.46998 -0.2624,0.12207 -0.6103,0.12207 -0.5371,0 -0.8789,-0.31128 -0.3357,-0.31739 -0.3357,-0.81787 z m 0.9643,-0.1648 q 0,0.29297 0.1953,0.49439 0.2015,0.19531 0.4944,0.19531 0.2014,0 0.5554,-0.22583 0.3541,-0.23194 0.4273,-0.43335 l 0,-1.0376 q 0,-0.0244 0,-0.0488 0,-0.0305 -0.012,-0.0671 -0.012,-0.0366 -0.037,-0.0366 -0.024,0 -0.061,0.0122 -0.2869,0.14038 -0.8911,0.39062 -0.6714,0.27466 -0.6714,0.75684 z" />
        <path
           inkscape:connector-curvature="0"
           id="path4239"
           style="font-style:normal;font-variant:normal;font-weight:normal;font-stretch:normal;font-size:medium;line-height:93.99999976%;font-family:ETBembo;-inkscape-font-specification:ETBembo;text-align:end;letter-spacing:0.11px;word-spacing:0px;text-anchor:end;fill:#000000;fill-opacity:1;stroke:none;stroke-width:1px;stroke-linecap:butt;stroke-linejoin:miter;stroke-opacity:1"
           d="m 1018.7048,236.9908 q 0.024,-0.0488 0.098,-0.0854 0.7142,-0.36011 1.1536,-1.58691 0,-0.0427 0.079,-0.0793 0.049,-0.0183 0.098,-0.0244 0.03,0 0.055,0.0122 0.073,0.0244 0.079,0.0916 -0.018,0.36621 -0.018,0.64697 0,0.27466 0.018,0.45166 0.012,0.0488 0.061,0.10986 0.049,0.0549 0.091,0.0549 l 1.3855,0 q 0.2136,0 0.1465,0.19532 -0.024,0.20141 -0.1099,0.41504 -0.061,0.0977 -0.2014,0.0977 l -1.1841,-0.0244 q -0.049,0 -0.1159,0.0549 -0.061,0.0488 -0.073,0.0977 l 0,2.20947 q 0,0.96435 0.1709,1.31225 0.177,0.3418 0.6286,0.3418 0.4029,0 0.7508,-0.66528 0.012,-0.061 0.122,-0.0549 0.116,0.006 0.1648,0.0671 0.037,0.0427 0.037,0.10987 0,0.0549 -0.024,0.12817 -0.5127,1.13526 -1.4648,1.14136 -0.586,0 -0.9644,-0.43945 -0.3723,-0.43946 -0.3723,-1.12305 l 0,-0.5127 0,-2.50244 q 0,-0.10986 -0.073,-0.14038 l -0.2502,0 q -0.098,0 -0.2503,-0.0366 -0.055,-0.0915 -0.055,-0.1709 0,-0.0488 0.018,-0.0915 z" />
        <path
           inkscape:connector-curvature="0"
           id="path4241"
           style="font-style:normal;font-variant:normal;font-weight:normal;font-stretch:normal;font-size:medium;line-height:93.99999976%;font-family:ETBembo;-inkscape-font-specification:ETBembo;text-align:end;letter-spacing:0.11px;word-spacing:0px;text-anchor:end;fill:#000000;fill-opacity:1;stroke:none;stroke-width:1px;stroke-linecap:butt;stroke-linejoin:miter;stroke-opacity:1"
           d="m 1022.8432,240.89095 q 0,-0.92774 1.3244,-1.27564 0.5005,-0.14038 1.1902,-0.45776 0.1404,-0.0854 0.1343,-0.22583 l -0.012,-0.79956 q -0.024,-1.12305 -0.8484,-1.12915 -0.2136,0 -0.4639,0.1831 -0.2502,0.18311 -0.2502,0.37842 0,0.21362 0.037,0.30518 -0.061,0.061 -0.354,0.20751 -0.293,0.14039 -0.3906,0.1648 -0.1648,0.061 -0.232,0.0244 -0.061,-0.0366 -0.061,-0.21362 0,-0.46387 0.7935,-1.06201 0.6347,-0.5127 1.1718,-0.5127 0.4029,0 0.7935,0.20142 0.3967,0.20142 0.6043,0.5127 0.1525,0.20141 0.1831,0.38452 0.03,0.177 0.03,0.78125 l 0,2.2705 q 0,0.37232 0.061,0.49439 0.067,0.12207 0.2136,0.12207 0.1526,0 0.2258,-0.0427 0.1526,-0.0488 0.2991,-0.1831 0.061,-0.0366 0.1159,-0.0366 0.1221,0.0244 0.1221,0.14648 0,0.0671 -0.037,0.1648 -0.824,0.72632 -1.3245,0.72632 -0.5371,0 -0.653,-0.65308 -0.037,-0.0366 -0.049,-0.0366 -0.012,0 -0.073,0.0488 l -0.061,0.0488 q -0.4029,0.34791 -0.6653,0.46998 -0.2625,0.12207 -0.6104,0.12207 -0.5371,0 -0.8789,-0.31128 -0.3357,-0.31739 -0.3357,-0.81787 z m 0.9643,-0.1648 q 0,0.29297 0.1953,0.49439 0.2014,0.19531 0.4944,0.19531 0.2014,0 0.5554,-0.22583 0.354,-0.23194 0.4273,-0.43335 l 0,-1.0376 q 0,-0.0244 0,-0.0488 0,-0.0305 -0.012,-0.0671 -0.012,-0.0366 -0.037,-0.0366 -0.024,0 -0.061,0.0122 -0.2869,0.14038 -0.8911,0.39062 -0.6714,0.27466 -0.6714,0.75684 z" />
        <path
           inkscape:connector-curvature="0"
           id="path4243"
           style="font-style:normal;font-variant:normal;font-weight:normal;font-stretch:normal;font-size:medium;line-height:93.99999976%;font-family:ETBembo;-inkscape-font-specification:ETBembo;text-align:end;letter-spacing:0.11px;word-spacing:0px;text-anchor:end;fill:#000000;fill-opacity:1;stroke:none;stroke-width:1px;stroke-linecap:butt;stroke-linejoin:miter;stroke-opacity:1"
           d="m 995.43755,253.45271 q -0.006,-0.0366 -0.006,-0.0671 0,-0.14648 0.10376,-0.15258 l 0.16479,-0.0183 q 0.53711,-0.0366 0.63477,-0.19532 0.10376,-0.16479 0.10376,-0.96435 l 0,-2.23999 q 0,-0.46387 -0.0549,-0.54932 -0.0488,-0.0854 -0.28076,-0.13428 -0.28686,-0.061 -0.51269,-0.14038 -0.061,-0.0122 -0.0732,-0.14038 -0.006,-0.13428 0.0549,-0.1709 1.32446,-0.48828 1.51367,-0.5249 0.0671,-0.0244 0.12207,-0.0244 0.20142,0 0.20752,0.32348 l 0,3.60108 q 0,0.47607 0.0122,0.64697 0.0122,0.33569 0.11596,0.41504 0.10376,0.0732 0.50659,0.0732 0.061,-0.0244 0.13428,0.0305 0.0793,0.0488 0.0915,0.10986 0,0.0122 -0.006,0.0549 -0.006,0.0427 -0.006,0.0671 0,0.20142 -0.177,0.20142 -0.84229,-0.0183 -1.47706,-0.0183 -0.63476,0 -1.06201,0.0183 -0.0854,0 -0.10986,-0.20142 z m 0.83008,-7.03735 q -0.18311,-0.18311 -0.18311,-0.45776 0,-0.27466 0.19532,-0.46387 0.19531,-0.18921 0.48217,-0.18921 0.29908,0 0.50049,0.18311 0.20142,0.1831 0.20142,0.46997 0,0.27465 -0.21363,0.45776 -0.21362,0.177 -0.50048,0.177 -0.29908,0 -0.48218,-0.177 z" />
        <path
           inkscape:connector-curvature="0"
           id="path4245"
           style="font-style:normal;font-variant:normal;font-weight:normal;font-stretch:normal;font-size:medium;line-height:93.99999976%;font-family:ETBembo;-inkscape-font-specification:ETBembo;text-align:end;letter-spacing:0.11px;word-spacing:0px;text-anchor:end;fill:#000000;fill-opacity:1;stroke:none;stroke-width:1px;stroke-linecap:butt;stroke-linejoin:miter;stroke-opacity:1"
           d="m 999.04486,249.70515 q 0,-0.67749 0.46997,-1.09863 0.47608,-0.42724 1.21457,-0.42724 0.4761,0 1.0498,0.23803 0.037,0.50049 0.037,0.87281 0,0.22583 -0.012,0.40283 0,0.061 -0.1709,0.061 -0.073,0 -0.1281,-0.0183 -0.049,-0.0183 -0.037,-0.0427 -0.085,-0.50049 -0.3357,-0.77515 -0.2503,-0.27466 -0.6043,-0.27466 -0.299,0 -0.4944,0.18921 -0.18917,0.18311 -0.18917,0.46997 0,0.43946 0.75077,0.98877 0.122,0.0855 0.3784,0.25635 0.2563,0.1709 0.4394,0.31738 0.1893,0.14038 0.3418,0.30518 0.4273,0.46387 0.4273,1.0376 0,0.64697 -0.4822,1.09253 -0.4822,0.43945 -1.1597,0.43945 -0.3234,0 -0.62252,-0.0855 -0.0122,0 -0.10987,-0.0366 -0.0915,-0.0366 -0.14038,-0.0488 -0.0977,0 -0.16479,0.15869 -0.14649,0.0427 -0.18921,0.0427 0,0 -0.006,0 -0.10987,-0.0122 -0.12818,-0.12818 -0.10986,-0.8789 -0.10986,-1.33667 0,-0.0488 0,-0.0855 -0.0122,-0.0732 0.061,-0.0915 0.0733,-0.0244 0.18921,-0.0122 0.061,0.0244 0.0855,0.12818 0.26245,1.12304 1.0986,1.12304 0.3357,0 0.5738,-0.23803 0.238,-0.23804 0.238,-0.56153 0,-0.12207 -0.031,-0.23803 -0.03,-0.12207 -0.1221,-0.23804 -0.085,-0.12207 -0.1404,-0.19531 -0.055,-0.0793 -0.2075,-0.18921 -0.1465,-0.11597 -0.2014,-0.15869 -0.049,-0.0427 -0.2258,-0.1587 -0.1709,-0.12207 -0.1953,-0.13427 -0.34793,-0.23804 -0.56155,-0.40894 -0.21362,-0.177 -0.40283,-0.48218 -0.18311,-0.31128 -0.18311,-0.65918 z" />
        <path
           inkscape:connector-curvature="0"
           id="path4247"
           style="font-style:normal;font-variant:normal;font-weight:normal;font-stretch:normal;font-size:medium;line-height:93.99999976%;font-family:ETBembo;-inkscape-font-specification:ETBembo;text-align:end;letter-spacing:0.11px;word-spacing:0px;text-anchor:end;fill:#000000;fill-opacity:1;stroke:none;stroke-width:1px;stroke-linecap:butt;stroke-linejoin:miter;stroke-opacity:1"
           d="m 1006.0703,253.26961 q 0.012,-0.0122 0.2624,-0.0671 0.4273,-0.0244 0.5371,-0.23193 0.1099,-0.21363 0.1099,-1.00098 l 0,-5.71289 -0.012,-0.47608 q 0,-0.27465 -0.3113,-0.32348 -0.086,-0.0122 -0.2563,-0.0305 -0.1648,-0.0244 -0.2564,-0.0366 -0.073,-0.0122 -0.086,-0.15869 -0.012,-0.15259 0.086,-0.18921 0.5616,-0.22583 1.5992,-0.5249 0.037,-0.0122 0.067,-0.0122 0.061,0 0.098,0.0366 0.061,0.061 0.061,0.25024 l 0,3.85132 q 0,0.0855 0.043,0.18311 0.049,0.0915 0.1098,0.0549 0.5005,-0.31128 0.8728,-0.45166 0.3784,-0.14648 0.8789,-0.14648 1.0498,0 1.3245,0.88501 0.1404,0.41503 0.1587,1.38549 0,0.29908 -0.024,0.8545 -0.024,0.54931 -0.024,0.58593 -0.024,0.54932 -0.024,0.82398 0,0.23803 0.1404,0.30517 0.1464,0.0671 0.6469,0.0671 0.1221,0 0.1465,0.0488 0.03,0.0488 0.043,0.20142 0.01,0.0366 0.01,0.0671 0,0.13428 -0.085,0.13428 -0.4577,0.006 -0.9949,0.006 -0.2685,0 -0.5554,0 -0.8606,-0.006 -1.1108,-0.006 -0.2014,0 -0.2014,-0.21362 -0.024,-0.20142 0.1037,-0.19531 l 0.073,0 q 0.4395,0 0.586,-0.11597 0.1525,-0.12207 0.1892,-0.47607 0.085,-0.75074 0.085,-1.70899 0,-0.82397 -0.067,-1.14746 -0.067,-0.32959 -0.2564,-0.54321 -0.2991,-0.32349 -0.7751,-0.32349 -0.2381,0 -0.4761,0.0855 -0.238,0.0793 -0.3418,0.13428 -0.1038,0.0549 -0.4089,0.24414 -0.061,0.0366 -0.061,0.13428 l 0,2.99072 q 0,0.47607 0.1281,0.60425 0.1343,0.12207 0.5494,0.12207 0.177,0 0.1892,0.0976 0,0.10987 0.012,0.1648 0,0.0732 -0.049,0.12207 -0.037,0.0366 -0.079,0.0366 -0.012,0 -0.024,0 -0.1587,-0.006 -0.4761,-0.006 -0.3113,0 -0.7813,0.006 -0.4638,0.006 -0.7873,0.006 -0.3235,0 -0.5066,-0.006 -0.01,0 -0.012,0 -0.043,0 -0.073,-0.061 -0.031,-0.061 -0.031,-0.14648 0,-0.11597 0.043,-0.177 z" />
        <path
           inkscape:connector-curvature="0"
           id="path4249"
           style="font-style:normal;font-variant:normal;font-weight:normal;font-stretch:normal;font-size:medium;line-height:93.99999976%;font-family:ETBembo;-inkscape-font-specification:ETBembo;text-align:end;letter-spacing:0.11px;word-spacing:0px;text-anchor:end;fill:#000000;fill-opacity:1;stroke:none;stroke-width:1px;stroke-linecap:butt;stroke-linejoin:miter;stroke-opacity:1"
           d="m 1012.7965,251.09065 q 0,-1.2268 0.7324,-2.03247 0.7324,-0.80566 1.8311,-0.80566 1.2878,0 1.8005,1.10473 l 0.098,0.20752 q 0.1221,0.23804 0.2503,0.40284 0.018,0.0549 0.018,0.12817 0,0.0305 -0.01,0.0671 -0.012,0.10986 -0.1708,0.11596 -0.4822,0.0183 -1.3184,0.0183 -0.8362,0 -2.0325,-0.0183 -0.2258,0 -0.238,0.12818 -0.024,0.14038 -0.024,0.37231 0,0.96436 0.5371,1.59912 0.5371,0.62867 1.3367,0.62867 0.8728,0 1.5503,-0.79956 0.061,-0.0855 0.1892,-0.0671 0.073,0.0244 0.1159,0.11596 0.043,0.0855 0.01,0.14649 -0.415,0.48828 -0.885,0.8667 -0.7019,0.53711 -1.477,0.53711 -0.9888,0 -1.6541,-0.78736 -0.6592,-0.78735 -0.6592,-1.92871 z m 1.0742,-1.30005 q -0.01,0.0305 0.067,0.0549 0.085,0.0366 0.1343,0.0366 l 1.8738,0 q 0.098,0 0.2014,-0.0366 0.1098,-0.0427 0.098,-0.11597 -0.1404,-0.5127 -0.4517,-0.79956 -0.3112,-0.28687 -0.708,-0.28687 -1.2146,0 -1.2146,1.14746 z" />
        <path
           inkscape:connector-curvature="0"
           id="path4251"
           style="font-style:normal;font-variant:normal;font-weight:normal;font-stretch:normal;font-size:medium;line-height:93.99999976%;font-family:ETBembo;-inkscape-font-specification:ETBembo;text-align:end;letter-spacing:0.11px;word-spacing:0px;text-anchor:end;fill:#000000;fill-opacity:1;stroke:none;stroke-width:1px;stroke-linecap:butt;stroke-linejoin:miter;stroke-opacity:1"
           d="m 1018.1555,253.44051 q 0,-0.0854 0,-0.10376 0,-0.0183 0.018,-0.0549 0.018,-0.0366 0.049,-0.0366 0.03,0 0.098,0 0.4517,0 0.5921,-0.23193 0.1403,-0.23193 0.1403,-1.0437 l 0,-2.40479 q -0.037,-0.16479 -0.122,-0.1831 l -0.5249,-0.20142 q -0.1892,-0.0732 -0.2136,-0.15259 0,-0.0122 0,-0.0366 l 0,-0.0977 q 0,-0.10987 0.098,-0.14038 0.1525,-0.0732 0.7385,-0.27466 0.4516,-0.15259 0.7507,-0.29907 0.055,-0.0244 0.098,-0.0244 0.043,0 0.067,0.0183 0.061,0.0427 0.061,0.15869 0,0.15259 0,0.44556 0,0.29297 0.012,0.42725 0,0.0488 0.018,0.0732 0.018,0.0244 0.031,0.0183 0.012,-0.006 0.024,-0.006 0.3723,-0.81177 0.5676,-0.90943 0.1587,-0.0855 0.3662,-0.0855 0.3296,0 0.7935,0.20752 0.037,0.0122 0.1099,0.0366 0.079,0.0244 0.1037,0.0305 0.116,0.0183 0.116,0.10376 0,0.0183 -0.01,0.0427 -0.098,0.29908 -0.3601,0.78736 -0.1648,-0.0122 -0.4639,-0.15869 -0.2746,-0.14038 -0.4516,-0.14038 -0.4151,0 -0.8362,0.79956 0,2.17285 0.012,2.50244 0.012,0.47607 0.1404,0.60425 0.1342,0.12207 0.6103,0.12207 l 0.2747,0 q 0.086,0 0.122,0.17089 0.043,0.1648 -0.049,0.23804 -0.012,0.0122 -0.1708,0.0122 -1.001,-0.0183 -1.6663,-0.0183 -0.6653,0 -0.9949,0.0183 -0.018,0 -0.031,0 -0.067,0 -0.091,-0.0427 -0.024,-0.0549 -0.03,-0.17089 z" />
        <path
           inkscape:connector-curvature="0"
           id="path4253"
           style="font-style:normal;font-variant:normal;font-weight:normal;font-stretch:normal;font-size:medium;line-height:93.99999976%;font-family:ETBembo;-inkscape-font-specification:ETBembo;text-align:end;letter-spacing:0.11px;word-spacing:0px;text-anchor:end;fill:#000000;fill-opacity:1;stroke:none;stroke-width:1px;stroke-linecap:butt;stroke-linejoin:miter;stroke-opacity:1"
           d="m 1022.7089,251.09065 q 0,-1.2268 0.7324,-2.03247 0.7324,-0.80566 1.8311,-0.80566 1.2878,0 1.8005,1.10473 l 0.098,0.20752 q 0.1221,0.23804 0.2502,0.40284 0.018,0.0549 0.018,0.12817 0,0.0305 -0.01,0.0671 -0.012,0.10986 -0.1709,0.11596 -0.4821,0.0183 -1.3183,0.0183 -0.8362,0 -2.0325,-0.0183 -0.2258,0 -0.238,0.12818 -0.024,0.14038 -0.024,0.37231 0,0.96436 0.5371,1.59912 0.5371,0.62867 1.3366,0.62867 0.8728,0 1.5503,-0.79956 0.061,-0.0855 0.1892,-0.0671 0.073,0.0244 0.116,0.11596 0.043,0.0855 0.01,0.14649 -0.415,0.48828 -0.885,0.8667 -0.7019,0.53711 -1.477,0.53711 -0.9888,0 -1.6541,-0.78736 -0.6592,-0.78735 -0.6592,-1.92871 z m 1.0742,-1.30005 q -0.01,0.0305 0.067,0.0549 0.085,0.0366 0.1343,0.0366 l 1.8738,0 q 0.098,0 0.2014,-0.0366 0.1098,-0.0427 0.098,-0.11597 -0.1404,-0.5127 -0.4517,-0.79956 -0.3113,-0.28687 -0.708,-0.28687 -1.2146,0 -1.2146,1.14746 z" />
      </g>
      <rect
         style="fill:none;fill-opacity:1;stroke:#000000;stroke-width:0.701617;stroke-miterlimit:4;stroke-dasharray:none;stroke-opacity:1"
         id="rect4216"
         width="249.29839"
         height="249.29839"
         x="898.32294"
         y="66.121048" />
      <g
         transform="matrix(1.208549,-0.6977561,0.6977561,1.208549,-359.75711,645.2841)"
         id="g4286">
        <circle
           style="fill:#111111;fill-opacity:1;stroke:#000000;stroke-width:0.35812819;stroke-miterlimit:4;stroke-dasharray:none;stroke-opacity:1"
           id="path4174"
           cx="989.55481"
           cy="158.21297"
           r="2.320936" />
        <g
           id="g4281"
           transform="translate(30.05482,-23.98532)">
          <path
             inkscape:connector-curvature="0"
             id="path4178"
             d="m 959.49999,189.96609 0,29.2567"
             style="fill:none;fill-rule:evenodd;stroke:#000000;stroke-width:2.5;stroke-linecap:round;stroke-linejoin:miter;stroke-miterlimit:4;stroke-dasharray:none;stroke-opacity:1" />
          <path
             style="fill:none;fill-rule:evenodd;stroke:#000000;stroke-width:2.5;stroke-linecap:round;stroke-linejoin:miter;stroke-miterlimit:4;stroke-dasharray:none;stroke-opacity:1"
             d="m 959.49999,189.96609 -6.90184,11.95433"
             id="path4277"
             inkscape:connector-curvature="0" />
          <path
             inkscape:connector-curvature="0"
             id="path4279"
             d="m 959.49999,189.96609 6.90184,11.95433"
             style="fill:none;fill-rule:evenodd;stroke:#000000;stroke-width:2.5;stroke-linecap:round;stroke-linejoin:miter;stroke-miterlimit:4;stroke-dasharray:none;stroke-opacity:1" />
        </g>
      </g>
    </g>
  </g>
</svg>
